<svg xmlns="http://www.w3.org/2000/svg" class="cv-gh cv_af" width="36" height="36" viewBox="0 0 36 36" fill="none">
<path d="M21.5872 3.9702C29.4006 5.87077 34.2111 13.7737 32.3105 21.5872C30.4099 29.4006 22.507 34.2111 14.6935 32.3105C6.88012 30.4099 2.06963 22.507 3.9702 14.6935C5.87077 6.88012 13.7737 2.06963 21.5872 3.9702ZM22.2765 1.13617C12.886 -1.14803 3.42037 4.61362 1.13617 14.0042C-1.14803 23.3947 4.61363 32.8603 14.0042 35.1445C23.3947 37.4287 32.8603 31.6671 35.1445 22.2765C37.4287 12.886 31.6671 3.42037 22.2765 1.13617ZM23.0904 22.4707C23.8298 19.4312 20.8728 17.8159 18.7254 16.0869C17.4392 14.9636 18.0692 13.1822 20.2091 13.5722C21.3968 13.786 22.5154 14.4258 23.5106 15.0731L24.5912 12.8641C23.4011 12.1604 22.2939 11.7019 21.2746 11.4255L21.6255 9.98294L20.2084 9.63826L19.8407 11.1502C16.9925 10.8582 15.0997 12.2288 14.6299 14.1602C13.7896 17.6149 17.6956 19.1233 18.8656 20.0578C20.4695 21.3004 19.7291 22.8943 18.0109 22.8681C16.5203 22.8447 14.8536 21.8479 13.6272 20.9913L12.4158 23.164C13.5234 24.1268 14.9562 24.8446 16.4163 25.2283L16.0723 26.6424L17.4893 26.9871L17.8522 25.495C20.2802 25.7374 22.5011 24.9058 23.0904 22.4707Z" fill="#4A4E74"/>

</svg>