<svg xmlns="http://www.w3.org/2000/svg" class="cv-fv cv_af" width="39" height="39" viewBox="0 0 39 39" fill="none">
<path fill-rule="evenodd" clip-rule="evenodd" d="M30.8365 22.3206C29.38 22.3206 28.1974 21.1415 28.1974 19.6838C28.1974 18.2262 29.38 17.0477 30.8365 17.0477C32.293 17.0477 33.4721 18.2262 33.4721 19.6838C33.4721 21.1415 32.293 22.3206 30.8365 22.3206ZM26.5116 12.7452L23.4232 22.4438C24.0514 23.2555 24.2721 24.3102 24.2721 25.4159C24.2721 28.0647 22.0205 30.2137 19.3712 30.2137C16.7218 30.2137 14.574 28.0647 14.574 25.4159C14.574 22.989 16.3847 21.0017 18.7257 20.6841L24.3856 11.722C24.7352 11.1665 25.4678 11.002 26.0227 11.3523C26.4979 11.6526 26.687 12.2344 26.5116 12.7452Z" fill="#4A4E74"/>
<path fill-rule="evenodd" clip-rule="evenodd" d="M7.90924 22.3206C6.45157 22.3206 5.26904 21.1403 5.26904 19.6838C5.26904 18.2261 6.45157 17.0476 7.90924 17.0476C9.36462 17.0476 10.5437 18.2261 10.5437 19.6838C10.5437 21.1403 9.36462 22.3206 7.90924 22.3206Z" fill="#4A4E74"/>
<path fill-rule="evenodd" clip-rule="evenodd" d="M19.3723 5.5835C20.8288 5.5835 22.0079 6.76201 22.0079 8.21968C22.0079 9.67621 20.8288 10.8564 19.3723 10.8564C17.9146 10.8564 16.7332 9.67621 16.7332 8.21968C16.7332 6.76201 17.9146 5.5835 19.3723 5.5835Z" fill="#4A4E74"/>
<path d="M19.3797 2.48755C9.87822 2.48755 2.17487 10.1846 2.17487 19.6838C2.17487 29.1825 9.87822 36.8801 19.3797 36.8801C28.8761 36.8801 36.5674 29.1825 36.5674 19.6838C36.5674 10.1846 28.8761 2.48755 19.3797 2.48755" stroke="#4A4E74" stroke-width="3"/>

</svg>