<svg xmlns="http://www.w3.org/2000/svg" class="cv-ek reveal tween2-3 cv_af" viewBox="0 0 457 412" fill="none" data-reveal="in-east" loading="lazy" alt="Illustration of people who are landing jobs as developers">
<path opacity="0.7" fill-rule="evenodd" clip-rule="evenodd" d="M150.921 0.0259886C218.871 1.4082 259.288 67.1001 279.857 131.868C299.875 194.899 302.336 269.621 248.931 308.637C195.207 347.886 123.208 325.069 69.9012 285.255C19.1686 247.364 -12.5403 187.179 4.76028 126.272C24.2069 57.8104 79.7568 -1.4216 150.921 0.0259886Z" fill="#C7B9FF"/>
<mask id="mask0" mask-type="alpha" maskUnits="userSpaceOnUse" x="84" y="52" width="359" height="360">
<rect x="84" y="52.265" width="359" height="359" rx="12.6408" fill="#C4C4C4"/>
</mask>
<g mask="url(#mask0)">
<path fill-rule="evenodd" clip-rule="evenodd" d="M248.67 348.087C248.851 349.958 248.48 351.745 247.596 353.255L247.309 353.747L247.856 353.936C248.852 354.28 249.96 354.448 251.243 354.448C252.564 354.448 253.937 354.266 255.04 354.12L255.747 354.027L255.4 353.42C255.121 352.933 255.069 352.343 255.014 351.718C254.999 351.55 254.984 351.376 254.964 351.204C253.919 341.972 252.597 332.619 251.32 323.574C250.983 321.194 250.635 318.733 250.298 316.312L249.33 316.349C249.07 320.83 248.818 325.387 248.573 329.794C248.466 331.731 248.358 333.669 248.25 335.607C247.864 340.506 247.997 344.472 248.67 348.087ZM249.064 403.45C247.643 403.45 246.219 403.303 244.832 403.015C240.492 402.115 236.55 399.991 233.195 398.072C233.023 397.976 232.849 397.88 232.671 397.781C231.357 397.055 229.723 396.151 228.698 395.049C227.575 393.84 227.381 392.636 228.09 391.258L228.202 391.04L228.085 390.825C227.351 389.475 227.406 387.806 228.217 386.765L228.9 385.89L227.778 386.008C226.647 386.126 225.507 386.287 224.404 386.442C223.181 386.615 221.916 386.793 220.67 386.912L220.324 386.946L220.244 387.275C220.2 387.459 220.145 387.57 219.761 387.57C219.427 387.57 218.979 387.474 218.505 387.372C217.917 387.245 217.25 387.102 216.607 387.102C216.324 387.102 216.07 387.128 215.829 387.183L215.689 387.215L215.59 387.316C215.526 387.38 215.417 387.42 215.307 387.42C215.223 387.42 215.145 387.397 215.093 387.357L214.936 387.236L214.737 387.257C211.263 387.634 208.268 388.295 205.581 389.279L205.569 389.283L205.51 389.308C204.539 389.722 203.534 390.151 202.619 390.151C201.95 390.151 201.407 389.926 200.909 389.443L200.769 389.307L200.57 389.305C198.558 389.287 197.639 386.969 197.512 385.415L197.496 385.219L197.343 385.092C193.836 382.185 191.766 378.192 191.014 372.885C190.329 368.051 190.855 362.955 191.46 358.606C192.859 347.338 194.318 337.237 198.028 327.656L198.201 327.209L197.739 327.045C196.137 326.476 194.913 325.797 193.996 324.97L193.932 324.912L193.852 324.88C192.538 324.346 191.895 322.378 191.729 321.787L191.716 321.739L191.692 321.695C191.424 321.187 191.362 320.48 191.523 319.756L191.54 319.678L191.53 319.599C191.443 318.911 191.731 318.192 192.035 317.431C192.174 317.083 192.318 316.723 192.423 316.365C192.784 315.342 193.144 314.301 193.493 313.294C194.275 311.034 195.084 308.698 195.946 306.425L196.064 306.114L195.805 305.9C195.361 305.534 195.509 305.103 196.148 304.073C196.3 303.83 196.442 303.6 196.551 303.373C197.37 301.974 198.249 300.632 199.162 299.382L199.18 299.356L199.195 299.328C203.88 290.683 212.191 285.922 222.595 285.922L222.808 285.922L222.925 285.853C224.875 284.694 226.267 282.706 227.181 279.775L227.21 279.682L227.198 279.585C227.167 279.315 227.133 278.961 227.145 278.617C227.174 277.746 227.52 276.97 228.092 276.486C229.177 275.568 230.826 275.491 232.421 275.491L232.65 275.491C234.689 275.497 236.129 275.847 237.181 276.592C238.403 277.459 239.078 278.857 239.246 280.867C239.296 281.468 239.294 282.092 239.293 282.694L239.292 282.862L239.313 282.929C239.459 283.407 239.631 283.866 239.823 284.294L240.02 284.734L240.47 284.535C240.76 284.407 241.128 284.341 241.596 284.334C241.73 284.33 241.862 284.329 241.994 284.329C243.079 284.329 244.24 284.427 245.362 284.522C246.208 284.593 247.083 284.667 247.929 284.699L247.941 284.7C247.941 284.7 248.058 284.699 248.11 284.699C250.168 284.699 251.659 285.019 252.804 285.705C254.037 286.444 254.923 287.63 255.593 289.438C259.188 299.8 260.666 310.961 261.97 320.807C262.709 325.957 262.934 331.236 263.152 336.341C263.381 341.729 263.619 347.301 264.459 352.748L264.526 353.178L264.972 353.15C266.936 353.024 269.059 352.755 271.307 352.469C274.721 352.035 278.252 351.586 281.666 351.586C286.439 351.586 290.057 352.514 292.727 354.422C294.588 356.155 295.551 358.501 295.511 361.209C295.456 365.035 293.407 369.265 290.294 371.985L290.282 371.995C286.346 375.669 279.162 378.855 268.929 381.466C259.519 383.866 249.786 385.171 244.821 385.734L243.592 385.874L244.59 386.586C244.993 386.875 245.362 387.129 245.716 387.363L245.944 387.513L246.194 387.4C246.908 387.077 247.361 387.009 247.616 387.009C247.841 387.009 248.114 387.058 248.129 387.289C248.139 387.44 248.03 387.664 247.8 387.693L246.579 387.843L247.576 388.546C248.242 389.015 249.236 389.581 250.386 390.236C254.151 392.379 259.841 395.618 258.862 398.463L258.798 398.65L258.889 398.826C259.152 399.335 259.174 399.808 258.958 400.271C258.493 401.263 257.04 402.017 255.806 402.323L255.785 402.329L255.764 402.336C253.616 403.075 251.362 403.45 249.064 403.45Z" fill="white"/>
<path fill-rule="evenodd" clip-rule="evenodd" d="M244.933 385.177C245.081 385.028 245.144 384.832 245.005 384.603C244.469 383.926 243.358 384.389 242.666 384.545C242.405 384.33 242.146 384.115 241.896 383.888C241.983 383.356 241.336 383.002 241.07 382.592C240.809 382.29 240.563 381.947 240.25 381.693C239.487 381.106 238.43 381.503 237.545 381.476C236.863 380.62 236.161 379.79 235.513 378.904C236.26 377.663 236.313 376.209 236.065 374.826C247.531 370.527 257.455 362.389 269.856 360.508C270.282 360.438 270.521 359.925 270.415 359.55C269.55 357.51 257.12 362.773 255.261 363.726C249.781 366.319 244.648 369.551 239.321 372.402C238.211 372.985 236.989 373.298 235.774 373.601C233.908 367.55 230.751 362.002 228.33 356.167C228.488 355.898 228.622 355.616 228.735 355.326C228.655 358.534 231.813 358.489 232.249 355.445C232.069 357.032 233.284 360.43 235.037 358.201C235.448 357.64 235.594 356.923 235.663 356.2C235.753 356.7 235.856 357.198 235.969 357.694C236.419 358.677 237.647 357.482 237.932 356.969C238.097 356.94 238.251 356.866 238.364 356.775C241.463 357.2 245.114 357.176 247.388 354.758C251.245 356.22 255.514 354.91 259.416 354.327C267.354 353.425 275.324 352.05 283.334 352.155C286.91 352.36 291.129 352.931 293.391 355.946C296.292 360.292 294.652 366.161 291.452 369.923C283.752 379.554 257.324 383.742 244.933 385.177ZM245.149 388.647C245.29 388.61 245.431 388.576 245.571 388.544C247.818 390.392 258.402 395.193 257.597 398.06C257.313 398.417 256.632 398.498 256.201 398.613C255.451 398.813 254.694 398.987 253.929 399.124C251.458 399.569 248.899 399.646 246.431 399.139C245.523 399.003 244.704 398.62 243.877 398.25C241.205 397.089 238.262 395.806 235.602 394.654C232.224 393.331 226.299 390.723 228.736 386.323C231.045 388.888 233.975 388.664 235.452 385.475C235.961 384.507 236.405 383.202 237.601 382.811C238.232 382.389 239.038 382.302 239.565 382.771C239.603 382.713 239.637 382.631 239.656 382.558C240.25 383.394 240.763 384.274 241.459 385.037C241.22 385.05 238.731 386.87 239.466 386.871C240.349 386.421 241.227 386.046 242.181 385.804C242.873 386.491 243.633 387.131 244.421 387.721C243.656 388.221 242.969 388.832 242.416 389.496C242.368 389.554 242.426 389.63 242.498 389.599C243.356 389.221 244.239 388.888 245.149 388.647ZM256.541 401.046C247.945 404.861 238.845 400.613 231.514 396.084C229.823 395.15 227.597 393.827 227.939 391.63C229.185 393.431 231.24 394.457 233.211 395.346C236.524 396.825 239.858 398.257 243.179 399.719C243.493 400.747 244.992 400.786 245.899 401.014C249.934 401.787 254.271 401.403 258.069 399.861C257.849 400.504 257.13 400.799 256.541 401.046ZM222.245 386.19C222.033 386.217 221.82 386.242 221.608 386.265C221.63 385.988 221.46 385.71 221.188 385.624C221.31 385.035 221.356 384.427 221.29 383.83C221.645 384.736 222.792 384.461 223.52 384.2C224.56 383.92 225.593 383.62 226.621 383.299C227.027 384.044 227.457 384.777 227.984 385.45C226.063 385.619 224.159 385.955 222.245 386.19ZM221.399 383.339C221.348 383.445 221.275 383.558 221.274 383.686C221.222 383.245 221.12 382.809 220.966 382.392C221.111 382.708 221.255 383.023 221.399 383.339ZM220.187 380.974C219.241 379.756 217.494 378.761 215.879 379.101C215.776 379.123 215.773 379.288 215.879 379.308C218.049 379.599 219.954 381.3 220.029 383.498C220.201 384.493 219.5 385.47 219.736 386.424C219.689 386.427 219.642 386.43 219.596 386.433C219.579 386.497 219.563 386.554 219.543 386.603C219.777 386.642 219.846 387.015 219.57 387.081C219.406 387.12 219.235 387.141 219.061 387.149C218.176 386.914 217.243 386.859 216.398 386.51C215.561 386.145 215.77 385.119 215.475 384.408C215.258 383.588 215.009 382.771 214.696 381.985C214.673 381.921 214.586 381.936 214.579 381.999C214.358 383.569 214.365 385.165 214.419 386.747C214.128 386.776 213.84 386.809 213.55 386.844C213.569 386.402 212.227 381.019 211.52 382.4C211.876 383.919 211.919 385.506 211.957 387.069C209.858 387.411 207.79 387.92 205.778 388.612C204.36 389.037 202.674 390.293 201.297 389.157C200.231 388.286 199.872 386.767 199.973 385.474C201.359 377.823 212.308 376.929 218.772 377.494C219.383 378.886 220.004 380.273 220.634 381.657C220.504 381.419 220.355 381.19 220.187 380.974ZM198.141 385.325C198.023 383.588 198.319 381.425 199.621 380.13C202.603 377.639 206.778 376.856 210.504 375.954C212.24 375.616 213.999 375.391 215.766 375.279C216.393 375.23 217.189 375.37 217.631 374.864C217.859 375.397 218.09 375.93 218.321 376.462C210.903 375.502 195.427 378.838 199.761 388.878C198.843 387.896 198.235 386.7 198.141 385.325ZM234.995 379.582C235.337 380.425 235.754 381.227 236.3 381.961C235.68 382.362 235.174 382.954 234.817 383.591C232.531 389.501 230.086 386.335 227.048 383.164C229.619 382.206 233.024 381.488 234.995 379.582ZM196.941 384.123C190.996 378.32 189.843 368.654 192.039 361.056C192.234 358.239 193.231 355.554 194.125 352.886C196.97 344.794 200.711 337.009 205.198 329.658C210.765 331.169 216.323 332.72 221.903 334.182C222.672 334.346 223.441 334.672 224.23 334.72C224.512 334.897 224.795 335.093 225.088 335.265C224.661 337.333 225.055 339.444 225.155 341.525C225.246 343.163 225.066 344.767 224.847 346.388C224.601 348.745 223.59 356.413 225.616 357.817C226.303 358.145 226.916 357.175 227.212 357.442C227.479 357.258 227.728 357.019 227.931 356.755C228.713 359.255 229.991 361.574 230.781 364.076C231.832 367.752 235.282 373.704 234.516 377.211C233.923 379.377 231.331 379.844 229.46 380.552C227.298 381.295 225.111 381.977 222.889 382.531C221.804 380.257 220.767 377.961 219.75 375.656C215.1 365.022 210.981 354.167 207.301 343.183C207.232 342.939 206.385 340.297 206.23 341.034C206.217 340.958 206.121 340.763 206.084 340.93C206.709 343.509 207.342 346.088 208.027 348.653C206.344 348.42 204.534 348.329 202.994 349.144C202.915 349.186 202.973 349.29 203.052 349.277C204.876 348.965 206.635 349.555 208.387 349.978C210.847 358.254 214.022 366.319 217.383 374.283C216.343 373.956 215.137 374.318 214.052 374.344C210.636 374.693 207.258 375.431 204.031 376.58C199.974 377.879 197.106 379.574 196.941 384.123ZM193.668 323.736C192.669 322.673 191.884 321.316 192.036 319.876C192.636 319.085 192.835 318.054 193.184 317.14C194.55 313.317 195.818 309.464 197.305 305.682C200.467 306.643 203.579 307.795 206.514 309.309C207.054 309.582 207.588 309.864 208.116 310.157C208.669 310.463 209.272 310.995 209.935 310.843C209.21 311.856 207.718 312.911 207.466 314.083C207.411 314.454 207.677 314.798 208.086 314.715C214.481 319.204 221.086 323.598 227.132 328.598C231.659 332.139 235.134 335.011 236.687 340.756C237.733 344.478 237.737 348.368 237.583 352.195C237.553 352.939 237.552 353.7 237.491 354.449C237.582 355.009 237.409 356.149 236.772 356.17C236.786 356.305 236.832 356.431 236.904 356.541C236.884 356.568 236.863 356.593 236.841 356.619C236.809 356.466 236.778 356.314 236.749 356.161C236.253 353.99 236.187 351.47 236.269 349.159C236.304 348.496 235.275 348.512 235.218 349.159C235.063 350.906 234.908 352.654 234.753 354.401C234.567 355.533 234.86 357.014 233.944 357.875C233.013 357.024 233.321 355.347 233.366 354.249C233.439 352.459 233.518 350.669 233.585 348.879C233.606 348.312 232.655 348.166 232.547 348.743C232.242 350.387 231.911 352.027 231.555 353.661C231.34 354.293 231.193 357.129 230.119 356.637C229.48 356.205 229.941 353.675 229.857 352.837C229.896 351.178 229.92 349.522 230.043 347.868C230.093 347.2 228.993 347.058 228.842 347.71C228.598 348.765 228.363 349.82 228.151 350.882C227.685 352.672 227.854 355.099 226.171 356.289C225.512 351.638 226.46 347.02 226.593 342.386C226.514 340.885 226.253 339.398 226.023 337.915C225.768 336.275 225.62 334.489 226.216 332.907C226.053 332.199 225.412 334.115 225.352 334.275C224.87 333.336 223.695 333.263 222.766 332.97C220.701 332.31 218.586 331.812 216.497 331.225C210.956 329.705 205.409 328.208 199.861 326.714C197.645 326.108 195.311 325.391 193.668 323.736ZM249.149 348.472C248.384 344.378 248.406 340.229 248.732 336.09C249.091 329.67 249.44 323.25 249.813 316.831C251.432 328.448 253.158 340.052 254.478 351.707C254.572 352.518 254.557 353.376 254.972 354.1C252.682 354.403 250.242 354.708 248.016 353.939C248.993 352.27 249.337 350.37 249.149 348.472ZM260.717 319.634C262.448 330.645 261.461 341.849 263.14 352.847C260.811 353.105 258.499 353.487 256.194 353.906C256.447 352.548 255.968 351.145 255.886 349.777C254.634 340.018 253.252 330.266 251.42 320.593C250.971 318.278 250.517 315.972 249.997 313.67C250.075 312.276 250.144 310.882 250.19 309.487C252.731 307.908 255.597 306.886 258.561 306.371C259.362 310.78 260.162 315.186 260.717 319.634ZM240.68 285.034C240.579 284.863 240.482 284.688 240.39 284.51C240.703 284.522 241.008 284.533 241.316 284.583C241.302 285.073 241.329 285.567 241.335 286.061C241.181 285.7 240.88 285.37 240.68 285.034ZM292.957 354.034C285.564 348.723 273.421 352.107 264.857 352.653C263.224 342.074 263.891 331.323 262.369 320.728C260.967 310.142 259.489 299.409 255.969 289.268C254.516 285.346 252.003 284.182 247.865 284.213C245.765 284.132 243.545 283.8 241.504 283.847C241.057 283.854 240.589 283.913 240.185 284.091C239.618 282.827 239.31 281.47 239.154 280.102C239.144 280.016 239.033 280 238.999 280.083C238.519 281.273 238.468 282.573 238.729 283.819C238.918 284.713 240.043 288.228 241.349 286.852C241.452 289.736 240.811 293.18 237.952 294.677C232.955 296.829 226.049 294.87 223.155 290.301C222.595 289.388 222.113 288.417 221.494 287.54C225.809 286.333 228.231 281.224 227.215 277.334C226.586 280.36 225.441 283.741 222.588 285.435C212.2 285.412 203.562 290.087 198.682 299.091C197.727 300.399 196.844 301.758 196.035 303.14C195.599 304.065 194.324 305.351 195.407 306.244C194.156 309.54 193.047 312.883 191.875 316.205C191.553 317.312 190.817 318.474 190.964 319.637C190.805 320.355 190.812 321.203 191.176 321.892C191.522 323.122 192.297 324.775 193.582 325.297C194.672 326.281 196.051 326.959 197.489 327.469C193.654 337.373 192.194 348.054 190.894 358.517C189.62 367.672 188.963 378.807 196.944 385.423C197.099 387.316 198.235 389.728 200.482 389.748C202.039 391.258 203.936 390.43 205.669 389.691C208.593 388.621 211.66 388.028 214.707 387.697C215.034 387.95 215.566 387.908 215.857 387.614C217.703 387.193 220.261 388.896 220.634 387.353C223.015 387.125 225.369 386.698 227.747 386.448C226.745 387.733 226.817 389.627 227.572 391.015C225.649 394.751 230.127 396.915 232.865 398.448C236.561 400.562 240.42 402.569 244.647 403.445C248.364 404.218 252.257 403.983 255.843 402.749C257.727 402.282 260.358 400.745 259.24 398.581C260.657 394.462 250.705 390.195 247.778 388.132C248.974 387.985 249.018 385.531 245.906 386.941C245.53 386.692 245.16 386.436 244.794 386.175C257.383 384.745 281.425 380.812 290.535 372.309C295.541 367.938 298.428 359.094 292.957 354.034Z" fill="#2B283A"/>
<path fill-rule="evenodd" clip-rule="evenodd" d="M243.244 253.045C237.386 250.078 228.658 250.397 224.537 256.008C223.881 257.073 223.215 258.239 222.892 259.426C222.487 260.958 221.77 263.231 221.603 265.435C221.507 266.715 221.946 267.956 221.827 269.055C221.733 269.925 220.832 269.66 220.869 270.494C220.94 272.123 220.992 274.493 221.827 275.776C222.611 276.883 224.076 276.815 224.937 277.86C225.749 278.844 226.45 279.936 227.476 280.724C229.623 284.683 235.751 285.582 239.882 285.213C249.724 283.667 249.608 269.131 249.466 261.484C249.511 257.57 246.605 254.673 243.244 253.045Z" fill="white"/>
<path fill-rule="evenodd" clip-rule="evenodd" d="M251.566 261.956C251.642 262.02 251.717 262.083 251.787 262.148C253.162 263.433 253.838 265.384 253.575 267.23C253.349 268.822 252.373 270.485 250.943 271.333C251.159 271.577 251.327 271.872 251.441 272.16C251.721 272.87 251.701 273.629 251.396 274.326C251.084 275.035 250.463 275.897 249.756 276.267C249.407 276.45 248.996 276.513 248.621 276.395C248.389 278.895 247.691 281.282 245.88 283.203C244.423 284.749 242.437 285.823 240.314 286.118C239.16 286.277 237.976 286.231 236.833 286.014C236.295 285.912 235.765 285.762 235.254 285.567L235.235 285.56C234.673 285.345 234.108 285.13 233.699 284.679C233.268 284.204 233.689 283.488 234.322 283.624C234.676 283.7 235.005 283.849 235.335 283.998C235.56 284.1 235.785 284.202 236.02 284.282C236.558 284.463 237.118 284.603 237.682 284.676C238.81 284.823 239.968 284.704 241.057 284.388C242.819 283.877 244.454 282.752 245.523 281.273C246.753 279.571 247.257 277.528 247.44 275.472C247.595 273.72 247.59 271.958 247.586 270.199C247.584 269.579 247.582 268.96 247.588 268.341C247.594 267.681 247.593 267.02 247.593 266.359C247.593 265.769 247.592 265.179 247.597 264.59C247.599 264.262 247.598 263.934 247.598 263.607C247.596 262.744 247.594 261.882 247.649 261.021C247.595 261.011 247.539 260.988 247.485 260.948C247.165 260.719 246.884 260.435 246.602 260.151C246.382 259.929 246.162 259.707 245.923 259.51C245.373 259.057 244.776 258.66 244.155 258.311C241.83 257.003 239.142 256.441 236.48 256.484C235.016 256.508 233.58 256.697 232.149 256.999L227.714 258.17C226.913 257.62 226.02 257.213 225.134 256.809C225.012 256.754 224.89 256.698 224.768 256.643C224.697 256.92 224.536 257.189 224.383 257.447C224.31 257.569 224.239 257.688 224.18 257.804C223.935 258.283 223.709 258.773 223.509 259.273C223.107 260.278 222.784 261.321 222.541 262.376C222.3 263.422 222.165 264.483 222.03 265.546C222.026 265.581 222.021 265.617 222.017 265.653C222.009 265.718 222 265.784 221.992 265.85C221.931 266.324 221.87 266.802 221.843 267.277C221.832 267.474 221.831 267.672 221.831 267.869C221.83 267.965 221.83 268.06 221.828 268.155C221.828 268.19 221.825 268.232 221.822 268.279C221.808 268.496 221.789 268.809 221.933 268.964C221.947 268.979 221.962 268.992 221.98 269.004C222.938 268.717 224.04 269.032 224.478 270.002C224.506 270.063 224.438 270.117 224.385 270.073C223.491 269.334 221.942 269.755 221.453 270.759C221.225 271.226 221.191 271.793 221.308 272.294C221.395 272.661 221.571 272.99 221.748 273.319C221.855 273.519 221.962 273.719 222.049 273.928C222.179 274.24 222.242 274.548 222.292 274.879C222.297 274.91 222.301 274.943 222.306 274.978C222.33 275.168 222.36 275.396 222.488 275.53C222.616 275.665 222.841 275.706 223.036 275.742C223.084 275.75 223.131 275.759 223.174 275.768C223.473 275.835 223.762 275.916 224.034 276.057C224.751 276.427 225.232 277.131 225.701 277.816C225.928 278.149 226.153 278.477 226.399 278.761C226.834 279.261 227.308 279.731 227.813 280.163C227.933 280.267 228.071 280.365 228.212 280.466C228.638 280.768 229.087 281.088 229.136 281.602C229.158 281.829 228.954 282.052 228.746 282.108C228.277 282.236 227.928 281.959 227.586 281.686C227.551 281.659 227.517 281.632 227.482 281.605C227.133 281.332 226.796 281.044 226.475 280.739C225.839 280.137 225.267 279.472 224.752 278.767C224.649 278.625 224.551 278.473 224.451 278.318C224.191 277.914 223.922 277.496 223.536 277.229C223.28 277.052 222.981 276.98 222.68 276.907C222.344 276.826 222.006 276.745 221.724 276.514C221.263 276.137 221.198 275.663 221.13 275.161C221.103 274.962 221.075 274.759 221.021 274.555C220.936 274.232 220.786 273.935 220.635 273.638C220.465 273.302 220.295 272.966 220.218 272.592C219.959 271.327 220.347 269.779 221.595 269.156C221.671 269.118 221.748 269.085 221.827 269.056C221.803 269.039 221.781 269.019 221.761 268.997C221.623 268.85 221.566 268.604 221.521 268.413L221.518 268.399C221.388 267.851 221.31 267.284 221.234 266.726C221.227 266.67 221.219 266.615 221.212 266.56C221.039 265.316 221.13 264.052 221.332 262.817C221.522 261.655 221.819 260.517 222.225 259.411C222.084 259.314 221.972 259.172 221.91 258.991C221.795 258.662 221.867 258.327 221.938 257.994C221.95 257.938 221.962 257.883 221.973 257.827C221.996 257.709 222.022 257.59 222.048 257.472C221.988 253.648 225.235 250.478 228.423 248.725C231.998 246.758 236.268 245.933 240.331 246.371C242.366 246.591 244.395 247.09 246.18 248.108C247.808 249.035 249.141 250.4 250.017 252.042C250.852 253.607 251.274 255.402 251.32 257.166C251.344 258.057 251.255 258.949 251.082 259.824C251.07 259.882 251.058 259.941 251.046 260C250.965 260.389 250.878 260.804 250.969 261.19C251.048 261.523 251.31 261.742 251.566 261.956ZM222.234 271.79C222.775 271.781 223.235 271.883 223.705 272.169C224.156 272.445 224.576 272.843 224.779 273.332C224.948 273.736 224.271 274.002 224.073 273.626C224.04 273.563 224.009 273.502 223.978 273.441C223.816 273.125 223.666 272.83 223.392 272.571C223.082 272.278 222.634 272.01 222.221 271.884C222.169 271.867 222.179 271.79 222.234 271.79Z" fill="#2B283A"/>
<path fill-rule="evenodd" clip-rule="evenodd" d="M235.784 275.039C237.143 274.876 238.46 275.287 239.788 275.495C240.49 275.604 241.192 275.685 241.902 275.716C242.044 275.722 242.187 275.726 242.33 275.728C242.343 275.604 242.414 275.49 242.566 275.422C242.879 275.282 243.129 275.219 243.472 275.232C243.786 275.244 244.102 275.276 244.411 275.332C244.973 275.434 245.537 275.665 245.948 276.066C246.899 276.995 246.754 278.486 246.019 279.497C244.501 281.587 241.731 281.684 239.358 281.656L239.139 281.654C236.978 281.623 233.887 281.941 232.905 279.512C232.544 278.619 232.594 277.583 233.036 276.727C233.563 275.705 234.673 275.172 235.784 275.039ZM242.533 278.519L242.514 278.519C241.517 278.557 240.521 278.584 239.525 278.601C239.554 278.854 239.585 279.107 239.62 279.36C239.647 279.558 239.676 279.757 239.707 279.955C239.72 280.039 239.767 280.169 239.754 280.252L239.749 280.285C239.8 280.308 239.846 280.345 239.881 280.398C239.893 280.417 239.902 280.435 239.91 280.454C240.684 280.46 241.517 280.445 242.306 280.306L242.307 280.289C242.322 280.19 242.364 280.123 242.419 280.077C242.475 279.759 242.47 279.421 242.491 279.106C242.504 278.91 242.519 278.714 242.533 278.519ZM238.763 278.614C238.045 278.626 237.326 278.636 236.609 278.627L236.283 278.622C236.352 278.987 236.426 279.35 236.489 279.718C236.554 280.1 236.213 280.344 235.918 280.334C235.951 280.339 235.984 280.345 236.017 280.35C236.939 280.478 237.896 280.444 238.832 280.443C238.781 280.153 238.802 279.825 238.794 279.583L238.793 279.545C238.779 279.235 238.769 278.924 238.763 278.614ZM233.886 278.548C233.911 278.738 233.959 278.923 234.032 279.096C234.338 279.827 235.041 280.167 235.784 280.311C235.655 280.267 235.553 280.161 235.527 279.98C235.463 279.53 235.439 279.072 235.438 278.614C234.92 278.61 234.398 278.599 233.886 278.548ZM245.235 278.392C244.866 278.478 244.437 278.439 244.075 278.455C243.736 278.47 243.397 278.483 243.058 278.497C243.074 278.726 243.09 278.954 243.107 279.183C243.128 279.479 243.13 279.791 243.188 280.085C243.87 279.855 244.482 279.486 244.94 278.896C245.055 278.749 245.157 278.576 245.235 278.392ZM235.629 276.238C235.014 276.381 234.433 276.685 234.121 277.24C233.936 277.57 233.854 277.96 233.87 278.345C234.389 278.285 234.917 278.263 235.442 278.244C235.444 278.151 235.446 278.057 235.449 277.964L235.457 277.725C235.471 277.27 235.478 276.697 235.629 276.238ZM238.807 276.294L238.536 276.264C237.786 276.18 237.035 276.091 236.284 276.142C236.176 276.149 236.065 276.161 235.955 276.177C236.087 276.65 236.076 277.206 236.132 277.674C236.153 277.856 236.18 278.035 236.21 278.214L236.34 278.208C237.146 278.165 237.953 278.139 238.759 278.107C238.759 277.957 238.76 277.808 238.762 277.658L238.765 277.508C238.774 277.126 238.749 276.695 238.807 276.294ZM242.577 276.233C241.791 276.358 240.978 276.385 240.205 276.386C239.897 276.386 239.589 276.367 239.28 276.34C239.3 276.502 239.311 276.667 239.326 276.826C239.356 277.15 239.391 277.472 239.429 277.795L239.463 278.077C240.454 278.032 241.445 277.984 242.436 277.935L242.576 277.927L242.615 277.385C242.641 277.024 242.671 276.662 242.712 276.302L242.681 276.291C242.645 276.276 242.61 276.256 242.577 276.233ZM242.918 276.367C242.962 276.879 242.986 277.392 243.018 277.904L243.671 277.869C243.78 277.863 243.888 277.857 243.997 277.851C244.421 277.827 244.965 277.7 245.383 277.819C245.415 277.443 245.306 277.076 244.963 276.824C244.36 276.38 243.593 276.538 242.918 276.367ZM240.686 271.798C241.659 271.247 244.1 270.685 244.254 272.415C244.325 273.211 243.726 273.87 243.027 274.165L243.001 274.176C242.345 274.442 241.182 274.743 240.615 274.165C240.142 273.684 240.769 272.822 241.356 273.216C241.658 273.418 242.293 273.269 242.629 273.173L242.65 273.167C243.014 273.061 243.498 272.724 243.348 272.282C243.215 271.891 242.649 271.819 242.295 271.806C241.766 271.788 241.252 271.909 240.728 271.949C240.645 271.955 240.619 271.836 240.686 271.798ZM244.715 269.016C246.036 268.955 246.857 270.379 246.553 271.547C246.501 271.748 246.273 271.946 246.053 271.923L245.997 271.918C245.969 271.915 245.941 271.912 245.915 271.905C245.706 271.847 245.519 271.633 245.534 271.41L245.538 271.345C245.569 270.794 245.508 270.159 244.845 270.025C244.283 269.912 243.969 270.447 243.962 270.939C243.961 271.027 243.861 271.088 243.783 271.041C243.377 270.796 243.306 270.31 243.462 269.891C243.658 269.36 244.151 269.042 244.715 269.016ZM234.918 269.322C235.879 269.005 236.915 269.511 237.381 270.351C237.544 270.397 237.707 270.522 237.684 270.712C237.651 270.986 237.602 271.158 237.41 271.366C237.109 271.691 236.547 271.525 236.422 271.125L236.416 271.107C236.275 270.59 235.699 270.249 235.174 270.43C234.562 270.641 234.579 271.281 234.15 271.653C234.099 271.697 234.039 271.704 233.978 271.675C233.522 271.457 233.604 270.801 233.766 270.425C233.98 269.933 234.395 269.494 234.918 269.322ZM233.61 266.439C234.389 265.654 236.419 264.894 236.951 266.344C237.053 266.62 236.837 266.992 236.546 267.05C236.07 267.143 235.647 266.939 235.174 266.976C234.791 267.005 234.391 267.132 234.085 267.366C233.237 268.016 233.05 269.114 232.459 269.941C232.43 269.981 232.374 269.964 232.369 269.917C232.234 268.713 232.758 267.299 233.61 266.439ZM243.764 265.666C244.28 265.486 244.865 265.501 245.385 265.661C245.908 265.822 246.388 266.128 246.758 266.528C246.926 266.71 247.081 266.91 247.206 267.123C247.272 267.236 247.342 267.47 247.417 267.609C247.824 267.841 247.998 268.37 247.634 268.747L247.617 268.763L247.568 268.811C247.373 269.002 247.077 269.086 246.81 269.009C246.212 268.838 246.139 268.372 245.932 267.878C245.795 267.552 245.561 267.263 245.276 267.051C244.605 266.549 243.504 266.39 242.695 266.626C242.652 266.638 242.602 266.584 242.632 266.545C242.785 266.349 242.874 266.188 243.079 266.03C243.287 265.869 243.514 265.753 243.764 265.666Z" fill="#2B283A"/>
<path fill-rule="evenodd" clip-rule="evenodd" d="M321.045 369.48C320.48 366.914 323.064 366.046 324.693 365.475C325.86 364.737 330.183 362.179 333.528 359.021C336.265 356.438 338.128 353.126 338.904 352.81C338.904 352.81 339.702 352.359 339.785 352.023C340.271 350.055 339.866 348.222 339.785 347.029C338.228 346.63 336.98 346.132 336.047 345.436C335.775 345.525 335.367 345.638 335.245 345.25C334.402 339.758 334.038 334.331 333.352 328.836C330.754 307.904 330.461 283.45 334.93 264.332C334.977 263.384 334.892 262.529 334.805 261.714C334.201 261.651 333.836 261.08 333.342 260.739C332.577 260.145 331.67 259.688 331.707 258.65C331.525 258.516 331.547 258.44 331.636 258.269C331.052 255.818 333.658 253.235 334.394 251.214C333.055 238.428 334.877 226.347 333.861 213.559C332.577 213.034 333.44 209.756 333.528 208.404C334.239 199.695 338.878 191.083 347.233 188.238C347.71 188.144 348.428 187.611 348.823 187.969C349.587 187.673 350.603 188.255 351.194 187.585L351.188 187.581C351.686 186.907 351.909 186.051 352.073 185.242C352.045 185.47 352 185.696 351.943 185.917C353.384 181.956 353.746 180.897 358.383 180.71C360.471 180.683 363.225 180.744 364.442 182.688C364.941 183.592 364.789 184.629 365.099 185.581C365.667 187.326 368.121 186.483 369.41 187.389C379.721 190.617 388.179 197.205 390.959 207.779C391.527 209.053 392.172 210.322 392.647 211.637C392.72 211.832 392.923 212.493 392.437 212.797L392.202 212.944C395.297 227.062 395.502 238.958 385.104 248.369C384.324 252.413 386.331 257.936 385.56 261.863C385.999 262.471 385.442 262.962 384.88 263.001C384.826 263.03 384.607 263.124 384.547 263.15C385.441 275.475 381.686 292.084 380.03 298.639C379.805 302.575 381.181 305.809 384.013 307.954C387.142 309.834 393.327 318.328 392.18 327.237C393.52 327.493 394.851 327.634 396.136 328.126C401.762 327.157 401.706 337.74 402.064 341.461C402.671 347.692 403.048 356.723 396.983 360.711C395.386 361.842 392.146 363.166 390.486 361.356C389.942 360.718 389.805 360.102 390.019 359.451C387.278 355.671 388.017 350.726 387.765 346.293C386.97 346.246 386.138 346.61 385.369 346.477C384.58 345.799 387.459 345.984 387.758 345.944C387.727 345.26 387.671 344.54 387.598 343.851C387.147 343.939 386.568 344.151 386.134 344.167C385.877 344.228 385.695 343.883 385.85 343.704C386.189 343.388 387.053 343.437 387.54 343.392C387.458 342.815 387.357 342.209 387.246 341.651C386.651 341.63 386.036 342 385.473 341.924C385.899 341.646 386.7 341.731 387.219 341.547C386.881 339.75 386.193 338.044 385.552 336.363C383.982 336.995 382.627 337.02 381.093 336.831C380.466 336.925 380.16 336.8 380.058 336.034L380.098 335.986C378.883 328.887 374.961 322.121 367.675 314.447C366.236 312.875 364.61 311.025 363.527 308.956C361.35 304.65 360.978 299.898 359.3 295.427C357.734 290.932 355.593 286.633 353.582 282.372C353.287 284.555 352.891 286.796 352.479 288.937C350.667 296.525 350.843 304.62 352.176 312.25C354.15 322.936 353.198 333.673 353.637 344.435C353.631 345.056 353.552 345.62 353.646 346.266C353.658 346.316 353.634 346.375 353.574 346.373L353.46 346.376C352.511 347.054 351.202 347.176 350.087 347.544C349.619 347.905 349.751 348.478 349.708 348.925C349.586 350.85 349.429 352.782 349.623 354.766C350.483 356.374 351.551 356.042 351.77 358.309C351.961 360.896 352.299 363.648 351.008 365.953L351.496 366.035C352.221 367.52 351.779 368.484 350.075 369.112C341.662 372.331 329.824 375.254 321.045 372.824C320.886 372.978 320.653 372.818 320.472 372.575C320.298 372.342 320.17 372.033 320.198 371.853C320.349 371.065 320.142 369.626 321.045 369.48Z" fill="white"/>
<path fill-rule="evenodd" clip-rule="evenodd" d="M320.645 372.059C328.204 375.372 341.932 371.192 349.359 368.773C351.362 368.068 352.029 367.93 351.468 365.676C350.418 367.654 348.16 368.132 345.997 368.528C338.668 370.158 331.197 373.169 323.36 371.7C322.209 371.523 321.071 370.915 320.736 369.794C320.53 370.269 320.657 370.913 320.575 371.436C320.56 371.644 320.555 371.869 320.645 372.059ZM351.22 359.736C351.084 358.407 350.865 357.004 350.091 355.831C350.175 357.729 349.007 360.955 346.448 359.88C345.723 359.505 345.317 358.75 344.85 358.144C343.3 356.15 341.313 354.418 339.067 353.159C337.818 353.369 337.281 355.598 336.476 356.531C337.373 356.921 339 357.811 339.164 358.73C338.044 358.363 337.012 357.677 335.837 357.437C335.46 357.944 335.061 358.435 334.642 358.911C335.19 359.146 337.397 360.235 337.383 360.778C336.189 360.589 335.033 360.019 333.832 359.785C333.299 360.301 332.813 360.857 332.281 361.376C333.084 361.698 333.932 362.059 334.37 362.811C334.391 362.845 334.34 362.883 334.312 362.85C333.71 362.142 332.676 362.013 331.779 361.853C330.403 363.118 328.862 364.233 327.138 365.068C325.413 365.988 322.791 366.199 322.105 368.196C321.556 370.192 323.268 370.405 324.848 370.546C326.446 370.768 328.056 370.802 329.644 370.672C334.607 370.471 339.299 369.044 343.99 367.798C349.725 366.768 351.585 365.934 351.22 359.736ZM349.538 348.061C349.552 348.149 349.564 348.237 349.577 348.325C349.593 348.232 349.604 348.138 349.627 348.046C349.598 348.051 349.568 348.056 349.538 348.061ZM340.272 352.519C342.469 354.105 344.614 355.872 346.14 358.084C347.15 359.884 348.494 358.788 348.828 357.347C349.098 354.128 348.865 351.348 349.182 348.11C346.144 348.515 343.023 348.265 340.055 347.55C340.412 348.996 340.576 349.544 340.587 351.027C340.568 351.516 340.575 352.112 340.272 352.519ZM335.353 234.048C335.288 238.785 335.257 243.524 335.426 248.26C339.699 237.482 338.391 225.786 338.998 214.457C337.735 214.046 336.379 213.867 335.078 213.691C335.6 220.723 335.465 227.005 335.353 234.048ZM359.503 257.981C369.995 253.085 371.446 240.533 379.754 233.617C380.022 233.368 380.245 233.112 380.374 232.81C379.778 226.937 379.822 221.788 379.118 215.92C378.331 214.528 378.02 212.91 377.434 211.427C377.127 210.525 376.755 209.631 376.667 208.684C376.593 208.372 377.092 208.237 377.185 208.531C378.294 210.634 378.845 212.972 379.673 215.19C379.79 215.235 379.944 215.199 379.99 215.08C379.997 215.109 380.005 215.138 380.013 215.167C383.575 213.808 387.247 212.543 391.128 212.552C391.125 212.541 391.122 212.528 391.12 212.516C391.359 212.523 391.861 212.505 391.711 212.166C388.3 200.027 382.175 191.706 369.184 187.754C370.845 197.173 346.671 197.718 347.005 188.951C337.898 192.769 333.975 203.494 335.008 212.523C335.873 212.296 338.126 213.193 339.005 213.714C339.184 210.047 338.74 205.622 339.001 202.344C340.387 219.06 342.973 239.063 334.427 254.231C333.872 255.248 332.968 256.221 332.99 257.415C332.924 257.481 332.917 257.596 332.998 257.68C332.998 257.686 332.998 257.691 332.999 257.697C333.003 257.698 333.008 257.698 333.013 257.698C333.261 257.986 333.782 258.043 334.141 258.107C334.989 258.274 335.881 258.4 336.657 258.784C344.928 263.022 351.415 257.559 359.503 257.981ZM356.889 265.683C356.489 266.428 355.818 267.028 355.022 267.402C355.12 267.59 355.154 267.802 355.164 268C356.597 268.286 356.194 268.949 357.162 269.266C357.796 269.437 358.405 269.51 358.953 269.884C360.816 271.578 361.278 271.453 363.278 269.963C363.25 269.828 365.972 267.235 366.815 265.784C367.517 264.575 368.253 263.357 369.329 262.421C374.601 257.153 380.217 252.182 385.32 246.768C395.547 236.822 393.596 225.545 391.247 213.122C387.455 213.564 383.643 214.452 380.229 216.081C381.433 221.564 381.51 226.534 382.029 232.098C382.185 232.786 382.009 234.111 381.01 233.805C371.83 240.918 370.764 255.535 358.717 259.761C353.808 261.709 355.88 263.29 354.257 266.967C355.15 266.808 355.946 266.077 356.33 265.379C356.52 265.032 357.074 265.337 356.889 265.683ZM384.636 261.368C384.844 259.974 384.682 258.587 384.672 257.19C384.784 254.648 384.697 252.17 384.597 249.619C381.718 252.53 378.725 255.342 375.786 258.198C378.917 258.583 382.527 258.901 384.636 261.368ZM384.689 263.419C384.64 263.403 384.592 263.382 384.548 263.356C384.559 264.45 384.542 265.543 384.501 266.635C384.58 265.564 384.642 264.491 384.689 263.419ZM388.21 341.158C389.055 341.095 392.667 340.974 393.1 341.527C392.612 341.728 391.941 341.617 391.416 341.639C390.396 341.68 389.379 341.768 388.37 341.907C388.446 342.291 388.514 342.674 388.57 343.059C389.588 343.154 391.57 343.197 392.216 343.892C391.063 344.071 389.863 343.91 388.707 344.134C388.763 344.66 388.804 345.188 388.834 345.715C389.295 345.763 392.005 346.201 392.003 346.617C390.988 346.748 389.913 346.575 388.879 346.673C389.103 349.833 388.344 359.374 392.769 359.958C396.637 359.759 398.334 353.64 398.86 350.705C400.025 343.865 399.826 336.573 397.515 329.98C396.69 328.147 394.444 327.829 392.544 327.734C392.472 328.045 392.401 328.349 392.321 328.656C393.144 330.479 393.407 332.531 393.429 334.502C393.255 337.337 389.671 339.444 387.069 337.572C387.555 338.731 387.931 339.938 388.21 341.158ZM393.331 361.549C400.993 359.941 402.25 351.281 401.723 344.913C401.294 340.481 401.81 331.135 397.617 328.531C403.036 333.359 402.565 366.223 390.557 360.487C390.856 361.413 392.396 361.68 393.331 361.549ZM391.828 330.651C391.814 330.537 391.799 330.423 391.783 330.309C390.933 332.563 389.477 334.705 387.308 336.01C388.138 337.021 389.755 337.322 390.846 336.494C392.749 335.102 391.955 332.583 391.828 330.651ZM365.711 186.66C365.726 186.686 365.742 186.712 365.758 186.737C365.864 186.744 365.971 186.754 366.079 186.765C365.956 186.729 365.834 186.696 365.711 186.66ZM351.151 187.487C351.155 187.475 351.159 187.463 351.162 187.452C351.153 187.457 351.143 187.464 351.134 187.47C351.141 187.475 351.146 187.48 351.151 187.487ZM319.901 370.687C319.921 370.126 319.93 369.402 320.602 369.203C320.297 366.787 322.352 365.411 324.51 364.742C326.35 363.644 328.436 362.876 330.127 361.552C329.342 361.408 328.557 361.234 327.859 360.901C327.333 360.649 327.586 359.812 328.157 359.89C329.168 360.02 330.076 360.521 331.025 360.87C331.565 360.437 332.087 359.986 332.581 359.508C331.966 359.392 331.184 359.434 330.826 358.839C330.715 358.653 330.764 358.459 330.899 358.315C331.522 357.7 332.757 358.315 333.531 358.494C333.902 358.076 334.261 357.649 334.614 357.218C334.029 357.165 332.509 357.27 332.807 356.328C333.377 355.592 334.605 356.034 335.43 356.185C336.477 354.929 336.814 353.002 338.45 352.311C338.509 352.006 338.916 352.029 339.189 352.12C339.589 350.253 339.559 349.304 339.441 347.391C338.227 347.063 337.022 346.632 336.012 345.926C335.548 346.059 334.985 345.905 334.889 345.373C334.6 343.499 334.439 341.335 334.236 339.421H334.163C333.778 335.928 333.468 332.426 333.033 328.942C330.542 308.807 329.999 284.231 334.61 264.339C334.647 263.585 334.592 262.831 334.514 262.083C333.964 261.939 333.637 261.415 333.182 261.112C332.335 260.439 331.475 260.062 331.397 258.888C331.226 258.729 331.206 258.488 331.3 258.28C331.081 257.074 331.403 255.877 332.061 254.835C332.782 253.648 333.463 252.45 334.064 251.205C332.749 238.649 334.533 226.481 333.557 213.863C332.307 213.217 333.092 209.626 333.208 208.429C333.939 200.567 337.7 191.886 345.696 188.616C346.257 188.154 347.04 187.998 347.726 187.743C348.189 187.52 348.943 187.328 349.26 187.846C349.596 187.693 350.679 187.576 351.05 187.311C351.119 187.262 351.163 187.208 351.174 187.147C351.201 187.148 351.233 187.143 351.268 187.136C351.61 186.664 351.936 183.379 352.357 183.613C352.817 184.742 352.498 186.016 352.058 187.155C351.755 188.163 351.339 190.754 349.727 190.092C349.449 189.957 349.621 189.607 349.87 189.578C350.634 189.365 350.805 188.269 351.1 187.627C350.75 187.911 349.156 188.336 348.981 188.426C345.523 196.173 366.433 195.766 368.077 190.425C369.249 188.58 368.237 187.581 366.148 187.285C367.683 188.95 365.739 189.32 365 187.686C364.293 186.517 363.971 185.096 364.212 183.75C364.088 183.277 363.983 182.646 364.707 182.773C364.732 182.71 364.771 182.759 364.756 182.804C365.02 183.215 364.836 183.805 364.93 184.279C365.009 185.054 365.235 185.814 365.618 186.5C366.328 186.633 367.036 186.775 367.74 186.93C368.162 186.092 370.901 187.762 371.636 187.959C381.405 190.776 388.834 198.276 391.427 207.737C392.005 208.997 392.63 210.263 393.104 211.562C393.316 212.124 393.316 212.822 392.734 213.186C395.57 225.883 396.262 239.112 385.547 248.636C385.304 249.667 385.466 250.761 385.473 251.81C385.383 254.201 387.477 262.396 385.045 263.456C385.756 274.072 383.092 288.516 380.509 298.757C380.318 302.277 381.406 305.479 384.333 307.7C389.9 311.761 392.245 318.54 392.896 325C392.988 325.662 392.897 326.336 392.745 326.986C393.951 327.205 395.081 327.348 396.252 327.78C402.712 326.572 402.251 340.116 402.746 344.135C403.133 350.077 402.891 357.199 397.296 361.09C395.416 362.396 392.095 363.651 390.263 361.673C389.744 361.067 389.461 360.359 389.665 359.585C387.038 355.83 387.659 351.03 387.462 346.758C386.774 346.781 386.024 347.08 385.346 346.916C384.825 346.781 384.758 346.128 385.2 345.868C385.837 345.515 386.703 345.649 387.416 345.625C387.394 345.217 387.363 344.808 387.323 344.399C386.646 344.56 385.676 344.948 385.475 344.025C385.394 343.184 386.482 343.12 387.159 343.084C387.112 342.767 387.059 342.451 386.999 342.136C386.48 342.187 385.933 342.51 385.423 342.355C385.134 342.244 385.033 341.959 385.245 341.728C385.637 341.353 386.308 341.428 386.828 341.311C386.512 339.803 385.942 338.361 385.393 336.918C384.399 337.255 383.323 337.478 382.262 337.393C381.712 337.28 381.112 337.248 380.556 337.321C379.938 337.161 379.795 336.517 379.714 335.99C379.726 335.971 379.738 335.953 379.752 335.937C378.324 327.82 373.201 320.809 367.456 314.768C365.874 313.039 364.322 311.242 363.247 309.19C361.064 304.9 360.672 300.073 359.002 295.616C357.594 291.569 355.713 287.688 353.87 283.801C353.13 288.92 351.749 293.955 351.591 299.146C351.35 305.714 352.833 312.185 353.466 318.701C354.38 325.59 353.893 332.514 353.951 339.421H353.911C353.926 341.086 353.973 342.824 354.079 344.484C354.075 345.091 353.995 345.663 354.083 346.27C354.132 346.606 353.885 346.817 353.625 346.824C352.669 347.436 351.469 347.653 350.371 347.915C350.067 348.142 350.198 348.701 350.145 349.044C350.027 350.967 349.871 352.418 350.063 354.357C351.137 355.907 351.911 355.66 352.209 358.016C352.374 360.475 352.736 363.135 351.635 365.367C352.128 365.477 352.315 366.945 352.241 367.333C352.115 368.429 351.126 368.775 350.169 369.154C343.176 371.711 328.318 375.92 321.132 373.025C320.617 373.31 320.044 372.752 319.877 372.304C319.657 371.758 319.86 371.229 319.901 370.687Z" fill="#2B283A"/>
<path fill-rule="evenodd" clip-rule="evenodd" d="M338.977 167.978C339.711 164.069 341.523 160.349 344.304 157.439C344.626 157.093 344.914 156.548 345.404 156.461C345.895 155.483 346.833 154.792 347.582 154.002C349.217 152.411 350.782 150.633 352.891 149.628C362.674 145.701 372.089 156.898 374.087 165.318C376.071 172.09 373.904 181.431 365.304 181.705C364.088 183.276 362.409 184.363 360.685 185.333C358.33 186.805 355.761 187.402 353.036 186.583C350.323 187.275 347.511 185.055 345.88 183.108C344.591 181.599 343.708 179.758 342.529 178.197C341.137 178.163 339.935 177.013 339.748 175.665C338.448 173.334 338.507 170.54 338.977 167.978Z" fill="white"/>
<path fill-rule="evenodd" clip-rule="evenodd" d="M360.286 148.299C358.506 147.893 356.639 147.977 354.876 148.423C351.381 149.307 348.506 151.607 346.121 154.171C343.796 156.671 341.878 159.538 340.477 162.626L340.406 162.783C339.415 164.985 338.554 167.273 338.517 169.697C338.485 171.783 338.701 173.956 339.392 175.941C340.007 177.708 341.139 179.49 343.086 179.913C344.208 182.698 346.405 185.11 349.172 186.4C350.888 187.201 352.772 187.558 354.669 187.381C356.605 187.199 358.413 186.292 359.926 185.134C359.967 185.102 359.914 185.041 359.871 185.065C358.05 186.089 355.896 186.455 353.809 186.388C350.381 186.277 347.238 184.472 345.432 181.633C344.983 180.926 344.582 180.181 344.263 179.406C344.281 179.342 344.292 179.278 344.292 179.215C344.292 178.948 344.162 178.743 343.969 178.612C343.879 178.338 343.799 178.061 343.733 177.78C343.582 177.146 343.498 176.502 343.448 175.853C343.407 175.325 343.429 174.766 343.375 174.225C343.395 173.792 343.422 173.359 343.463 172.927C343.592 171.535 343.854 170.146 344.358 168.834C344.869 167.505 345.676 166.334 346.694 165.325C348.878 163.162 351.597 161.582 353.72 159.36L353.831 159.242L353.839 159.24C354.102 159.503 354.366 159.767 354.63 160.03L355.836 161.231C358.298 163.684 360.74 166.161 362.882 168.892C364.115 170.464 365.223 172.112 366.178 173.859C366.63 174.687 367.04 175.535 367.41 176.4L367.556 176.745C367.73 177.157 367.917 177.619 368.021 178.084C367.712 178.384 367.485 178.825 367.234 179.166C366.95 179.552 366.622 179.919 366.285 180.262C365.943 180.61 365.569 180.943 365.171 181.228L365.124 181.261C364.668 181.577 364.144 181.795 364.076 182.397C364.046 182.658 364.285 182.868 364.507 182.949C365.113 183.172 365.741 182.533 366.145 182.166C366.397 181.937 366.629 181.69 366.844 181.429C367.053 181.458 367.263 181.473 367.472 181.449C367.794 181.411 368.114 181.356 368.428 181.276C371.036 180.607 372.967 178.495 374.008 176.141C375.407 172.982 375.374 169.34 374.793 165.999C373.731 159.894 370.293 154.192 365.102 150.583C363.649 149.572 362.037 148.698 360.286 148.299ZM357.477 149.116C360.83 148.944 363.887 150.631 366.34 152.732C370.806 156.557 373.557 162.156 374.111 167.907C374.405 170.962 374.185 174.256 372.552 176.955C371.919 178.003 371.103 178.915 370.14 179.685C369.233 180.41 368.198 180.828 367.093 181.112C367.143 181.045 367.193 180.976 367.241 180.907C367.498 180.54 367.703 180.149 367.874 179.74C367.889 179.755 367.917 179.758 367.934 179.735C368.632 178.801 368.413 177.685 368.081 176.658C367.732 175.58 367.29 174.531 366.785 173.513C364.946 169.806 362.211 166.575 359.372 163.561C357.922 162.022 356.423 160.527 354.931 159.027C354.185 158.278 353.442 157.527 352.708 156.767C352.342 156.389 351.979 156.009 351.62 155.626C351.264 155.247 350.944 154.845 350.501 154.561C350.148 154.335 349.795 154.768 349.96 155.089C350.214 155.584 350.651 155.976 351.037 156.378L351.077 156.419C351.453 156.816 351.833 157.21 352.216 157.601C352.655 158.051 353.099 158.498 353.543 158.944C353.164 158.901 352.78 158.877 352.403 158.821C351.892 158.745 351.387 158.633 350.884 158.512C350.355 158.384 349.832 158.221 349.328 158.018C348.854 157.827 348.406 157.521 347.885 157.491C347.443 157.466 347.306 157.999 347.55 158.28C347.887 158.667 348.493 158.819 348.986 158.962L349.055 158.983C349.6 159.145 350.158 159.267 350.722 159.348C351.463 159.456 352.321 159.505 353.114 159.395C351.529 160.302 350.071 161.425 348.617 162.521L348.361 162.714C346.94 163.781 345.553 164.931 344.541 166.391C343.595 167.753 343.024 169.339 342.704 170.946C342.546 171.739 342.441 172.541 342.371 173.345C342.111 174.059 342.152 174.907 342.218 175.692L342.242 175.962L342.24 176.042C342.23 176.533 342.028 177.625 342.504 177.996C342.512 178.035 342.519 178.075 342.528 178.114C342.469 178.079 342.41 178.042 342.352 178.004C342.328 177.989 342.305 177.971 342.282 177.955L342.216 177.902C342.214 177.9 342.211 177.898 342.21 177.897C342.062 177.77 341.921 177.638 341.79 177.495C341.547 177.231 341.316 176.896 341.098 176.509C340.618 175.66 340.311 174.737 340.074 173.782C339.64 172.037 339.461 170.163 339.659 168.373C339.687 168.123 339.743 167.81 339.831 167.489C340.04 166.726 340.28 165.971 340.549 165.226C341.087 163.736 341.746 162.291 342.515 160.9C344.076 158.077 346.084 155.467 348.491 153.276C350.928 151.058 354.088 149.29 357.477 149.116ZM362.205 158.137C362.084 158.065 361.959 158.205 362.019 158.318C362.31 158.865 362.798 159.326 363.203 159.795C363.623 160.28 364.04 160.768 364.456 161.256C365.303 162.251 366.129 163.264 366.923 164.299L367.133 164.573C367.831 165.487 368.52 166.416 369.13 167.387C369.449 167.896 369.731 168.421 369.986 168.963C370.229 169.478 370.341 170.1 370.634 170.584C370.652 170.614 370.709 170.612 370.716 170.573C370.811 170.052 370.576 169.424 370.407 168.936C370.207 168.356 369.922 167.803 369.618 167.269C368.982 166.156 368.22 165.112 367.454 164.08C366.677 163.033 365.869 162.007 365.023 161.012C364.625 160.545 364.218 160.087 363.799 159.638L363.642 159.47C363.203 159.006 362.761 158.469 362.205 158.137ZM364.238 156.519C364.039 156.375 363.869 156.669 363.996 156.824C364.754 157.755 365.616 158.59 366.445 159.458C367.241 160.291 368.003 161.155 368.721 162.054C370.185 163.886 371.358 165.896 372.35 168.003C372.369 168.042 372.428 168.013 372.419 167.974C371.893 165.696 370.664 163.626 369.264 161.756L369.211 161.685C367.795 159.805 366.167 157.914 364.238 156.519Z" fill="#2B283A"/>
<path fill-rule="evenodd" clip-rule="evenodd" d="M353.324 177.909C352.875 177.188 351.917 178.954 351.816 179.258C351.726 179.527 351.666 179.803 351.636 180.081C351.288 180.157 350.926 180.158 350.57 180.091C350.039 179.992 349.715 179.713 349.254 179.475C348.936 179.31 348.535 179.503 348.369 179.777C348.175 180.099 348.299 180.433 348.555 180.674C349.04 181.129 349.996 181.234 350.63 181.113C350.993 181.043 351.326 180.911 351.62 180.717C351.622 180.753 351.623 180.79 351.626 180.826L351.631 180.888C351.68 181.393 351.822 182.028 352.224 182.357C352.884 182.896 353.698 181.859 353.057 181.321L353.037 181.304C352.639 180.99 352.552 180.148 352.573 179.684C352.587 179.381 352.644 179.074 352.742 178.786L352.762 178.728C352.792 178.647 353.113 177.874 353.23 177.972L353.235 177.978C353.283 178.033 353.36 177.968 353.324 177.909ZM349.739 173.842C349.133 174.202 348.209 175.04 348.861 175.932C349.629 176.718 350.734 175.817 351.279 175.409C351.784 175.093 352.351 175.905 351.883 176.274C347.947 179.118 346.35 173.936 349.433 173.419C349.772 173.362 349.898 173.731 349.739 173.842ZM356.212 170.517C355.62 170.415 355.013 170.558 354.523 170.897L354.486 170.923C354.013 171.26 353.485 171.852 353.756 172.433C353.865 172.666 354.19 172.703 354.397 172.597C354.741 172.421 354.804 171.988 355.111 171.748C355.362 171.551 355.702 171.432 356.026 171.461C356.788 171.528 357.256 172.262 357.493 172.894C357.523 172.974 357.645 173.006 357.692 172.919C358.25 171.901 357.263 170.699 356.212 170.517ZM346.723 170.134C345.588 170.043 344.26 171.191 344.558 172.36C344.702 172.921 345.554 172.905 345.706 172.36C345.789 172.06 345.781 171.795 346.002 171.546C346.185 171.34 346.444 171.221 346.723 171.239C347.03 171.259 347.314 171.409 347.529 171.62C347.724 171.81 347.84 172.088 348.041 172.257C348.091 172.298 348.157 172.301 348.206 172.257C348.553 171.945 348.345 171.295 348.125 170.969C347.81 170.503 347.298 170.18 346.723 170.134ZM358.373 168.442C357.645 167.813 356.322 167.205 355.34 167.515C354.776 167.693 354.53 168.58 355.16 168.862C355.89 169.187 356.731 169.055 357.473 169.392C357.785 169.534 358.079 169.712 358.296 169.972C358.467 170.177 358.641 170.446 358.888 170.564C358.953 170.596 359.041 170.596 359.094 170.539C359.636 169.94 358.847 168.851 358.373 168.442ZM347.973 167.486C347.523 167.363 347.024 167.366 346.567 167.443C346.11 167.521 345.646 167.705 345.273 167.975L345.23 168.006C344.822 168.306 344.336 168.742 344.362 169.272C344.384 169.715 344.862 170.015 345.274 169.783C345.61 169.593 345.768 169.214 346.053 168.961C346.288 168.753 346.564 168.589 346.858 168.473C347.185 168.346 347.512 168.286 347.863 168.28C348.133 168.276 348.405 168.362 348.67 168.39C348.648 168.433 348.858 168.413 348.978 168.374C349.067 168.337 349.067 168.227 349.036 168.156C348.883 167.804 348.327 167.583 347.973 167.486Z" fill="#2B283A"/>
<path fill-rule="evenodd" clip-rule="evenodd" d="M348.04 182.61C348.787 181.96 349.625 180.654 350.699 181.688C350.965 181.98 351.072 182.635 351.479 182.763C352.018 182.934 352.553 182.377 352.737 181.949C353.489 179.572 350.379 178.921 348.608 179.305C347.743 179.651 347.105 181.047 347.067 181.776C347.042 182.266 347.466 182.986 348.04 182.61ZM342.399 178.948C342.406 178.916 342.416 178.888 342.429 178.862C342.759 178.74 343.021 178.864 343.183 179.097C343.177 179.154 343.16 179.213 343.148 179.27C343.273 179.527 343.386 179.844 343.555 180.066C343.588 180.068 343.623 180.065 343.656 180.055C346.459 180.341 345.09 177.479 347.933 176.768C350.13 176.415 354.102 176.82 355.139 179.052C355.956 182.617 360.113 180.133 361.478 178.279C362.934 176.591 363.876 174.529 364.784 172.528C364.976 172.105 365.574 172.408 365.509 172.814C366.349 174.457 366.321 176.431 366.528 178.23C366.882 181.821 367.226 186.857 363.808 189.05C359.353 193.963 348.231 195.697 343.093 191.182C341.315 187.451 341.534 182.899 342.399 178.948Z" fill="#2B283A"/>
<path d="M172.702 254.167C172.718 254.177 172.718 254.187 172.701 254.197C172.667 255.692 170.292 271.512 170.203 271.59C166.132 300.39 159.793 328.648 156.624 357.602C157.581 358.852 156.201 360.667 156.624 362.148C156.953 364.003 153.103 365.111 152.59 365.087C151.781 365.821 150.237 365.686 149.463 366.454C148.912 367.345 148.802 370.702 148.822 370.568C148.719 370.757 163.576 377.434 170.464 381.354C171.938 382.131 173.366 383.498 174.977 384.194C175.745 384.58 174.556 385.912 174.11 386.608C173.551 387.534 174.355 388.526 173.025 388.254C171.936 389.153 165.388 388.481 163.754 388.254C157.56 387.557 151.635 387.645 145.492 386.608C144.059 386.352 142.644 386.066 141.312 385.468C140.118 385.912 138.807 385.6 137.589 385.439C134.361 384.717 134.791 380.81 135.201 378.371C135.542 375.192 136.887 372.178 138.7 369.509C138.465 369.298 138.251 369.072 138.02 368.85C136.426 368.818 135.46 367.175 135.749 365.77C135.41 365.108 134.994 364.496 134.851 363.768C134.09 364.037 132.959 364.21 132.696 365.052C132.332 366.36 131.237 367.465 129.752 367.514C129.167 368.147 128.302 368.582 127.441 368.743C128.979 373.516 129.315 379.021 130.516 383.981C130.92 386.26 131.29 388.545 131.599 390.837C132.077 393.039 131.566 395.792 129.025 396.515C126.812 397.025 124.484 396.435 122.235 396.432C119.909 396.151 117.374 396.565 115.197 395.623C112.859 394.385 113.065 391.753 113.244 389.569C113.712 384.966 114.312 380.259 116.02 375.91C114.764 374.53 115.594 372.461 115.787 370.836C115.787 370.836 117.015 366.454 117.015 364.129C115.172 364.134 113.082 362.07 114.243 360.352C114.112 355.222 117.476 350.702 119.065 345.937C122.033 339.317 123.723 332.401 125.821 325.497C127.556 320.053 129.753 309.024 129.752 309.031C131.766 295.544 127.129 282.347 123.632 269.495C122.339 264.506 122.488 260.557 121.592 254.9C121.535 256.082 171.782 254.765 172.701 254.197C172.701 254.186 172.702 254.176 172.702 254.167Z" fill="white"/>
<path fill-rule="evenodd" clip-rule="evenodd" d="M174.091 253.624C173.183 256.348 171.781 271.966 171.781 271.966C171.781 271.966 158.588 330.084 157.716 360.615C158.599 363.168 156.062 365.021 153.722 365.394L153.403 365.578C152.336 366.191 151.234 366.79 150.067 367.169C150.038 367.186 150.009 367.203 149.979 367.219C149.922 367.25 149.861 367.269 149.799 367.278C149.864 368.059 150.111 368.793 150.429 369.507C153.558 370.229 156.441 371.706 159.317 373.181C160.904 373.994 162.49 374.807 164.114 375.491C165.005 376.039 166.45 376.661 168.05 377.351C171.739 378.939 176.256 380.884 176.732 383.103L176.75 383.2C177.024 384.626 176.258 386.385 174.634 386.52C175.481 387.148 174.926 388.415 174.003 388.659C173.272 388.854 172.499 388.866 171.731 388.877C171.333 388.883 170.937 388.889 170.548 388.921C159.775 389.259 148.907 388.307 138.406 385.891C137.524 385.688 136.606 385.421 135.862 384.895C132.42 382.169 134.285 377.145 135.886 372.834C136.404 371.438 136.895 370.117 137.169 368.973C136.762 368.909 136.36 368.82 135.965 368.702L135.876 368.676C135.492 368.56 135.095 368.42 134.797 368.149C134.79 368.142 134.783 368.135 134.777 368.128L134.763 368.114C133.301 368.093 134.087 365.635 134.621 363.965C134.788 363.442 134.93 362.997 134.971 362.727C134.71 363.284 134.464 363.853 134.219 364.424C133.731 365.556 133.241 366.693 132.62 367.745C132.14 368.471 131.235 368.281 130.413 368.109C130.132 368.05 129.86 367.993 129.618 367.975C129.933 373.759 131.313 379.398 132.731 385.002C132.815 385.342 132.903 385.686 132.992 386.033C134.125 390.449 135.382 395.351 129.337 396.662C124.845 397.839 114.141 397.389 112.227 392.47C111.804 389.475 112.39 386.449 112.968 383.462C113.162 382.456 113.356 381.454 113.51 380.459L113.617 379.898C113.71 379.409 113.802 378.921 113.895 378.432C114.526 375.081 115.157 371.726 116.081 368.44C116.227 367.827 116.406 367.226 116.599 366.63C116.624 366.281 116.643 365.933 116.62 365.583C116.591 365.125 116.504 364.677 116.412 364.228C116.4 364.171 116.39 364.105 116.379 364.034C114.488 363.161 113.083 362.174 112.902 361.109C112.74 360.224 113.007 359.328 113.262 358.471C113.299 358.35 113.335 358.229 113.369 358.109L113.386 358.052C115.194 351.701 117.487 345.536 119.765 339.409C125.161 324.898 130.477 310.603 129.089 294.556C128.719 288.839 127.158 283.355 125.597 277.87C124.094 272.588 122.591 267.305 122.151 261.813C121.635 259.58 121.169 257.323 121.094 255.021C120.776 254.946 174.091 253.624 174.091 253.624ZM116.933 393.668C115.377 393.081 114.049 392.581 114.313 390.636C119.706 392.818 125.756 393.201 131.518 392.674C131.256 393.357 130.73 393.823 129.994 394.134C125.843 395.563 121.126 395.207 117.042 393.709L116.933 393.668ZM136.28 381.776C136.603 383.375 138.48 383.712 139.975 383.98C140.151 384.012 140.322 384.042 140.485 384.074C144.165 384.845 147.882 385.463 151.62 385.901C158.863 386.775 166.19 386.925 173.468 386.593C173.535 386.565 173.593 386.527 173.651 386.49C173.764 386.417 173.875 386.345 174.039 386.346L174.069 386.346L174.086 386.347L174.11 386.348C173.989 386.268 173.886 386.163 173.809 386.04C170.026 385.624 166.236 385.248 162.445 384.872C153.701 384.005 144.952 383.137 136.28 381.776ZM139.405 366.777C142.439 367.251 145.506 366.976 148.511 366.454C148.042 367.423 147.967 368.59 148.18 369.702C146.69 370.053 145.355 370.999 144.023 371.942C142.003 373.374 139.991 374.799 137.464 374.131C137.615 373.655 137.775 373.178 137.935 372.699C138.583 370.759 139.241 368.791 139.405 366.777ZM117.54 364.534C117.55 364.551 117.556 364.572 117.554 364.597C117.539 367.524 117.243 370.439 116.812 373.336C119.475 370.464 123.933 369.737 127.604 370.931L127.588 370.744C127.576 370.612 127.563 370.479 127.551 370.346C127.463 369.413 127.374 368.467 127.525 367.548L127.357 367.501C126.993 367.401 126.536 367.281 126.009 367.143C123.791 366.563 120.345 365.662 117.54 364.534ZM121.985 258.921C138.542 262.44 155.985 262.173 172.372 257.917C172.223 258.942 172.069 259.967 171.915 260.992C171.621 262.949 171.328 264.905 171.071 266.867C169.449 279.881 166.693 292.496 163.947 305.066C160.014 323.072 156.101 340.983 155.57 359.835C155.09 360.256 155.128 360.937 155.544 361.377C155.495 361.325 155.519 361.358 155.554 361.406C155.559 361.413 155.564 361.421 155.57 361.428L155.606 361.481C155.605 361.487 155.609 361.506 155.615 361.531L155.642 361.638C155.64 361.639 155.639 361.648 155.638 361.662C155.637 361.673 155.636 361.688 155.636 361.704L155.633 361.824C155.468 362.774 154.402 363.11 153.483 363.343L153.031 363.456C149.345 364.328 145.636 365.196 141.846 365.544C141.671 365.634 140.685 365.635 139.608 365.637C138.085 365.639 136.378 365.642 136.52 365.895C136.471 365.894 136.422 365.893 136.373 365.892C139.112 357.013 141.744 348.099 144.375 339.186C145.627 334.943 146.88 330.7 148.143 326.462C153.968 308.158 159.36 290.54 156.122 271.294C157.641 270.33 161.095 264.105 160.843 262.497C160.139 263.352 159.509 264.259 158.88 265.166C157.924 266.542 156.968 267.918 155.754 269.113C155.528 267.892 155.268 266.678 155.008 265.463C154.932 265.106 154.855 264.749 154.78 264.391C154.766 264.332 154.659 264.344 154.666 264.406C154.867 266.242 154.99 268.087 155.079 269.933C154.822 270.334 154.669 270.96 155.137 271.257C156.858 292.247 150.815 311.374 144.63 330.947C143.273 335.241 141.91 339.557 140.62 343.919C138.63 351.642 135.593 358.998 131.999 366.17C131.583 366.082 131.164 365.994 130.744 365.906C125.39 364.783 119.757 363.601 115.133 360.885C116.876 353.732 119.428 346.754 121.982 339.771C125.638 329.777 129.297 319.772 130.594 309.226L130.624 308.984C131.625 300.996 131.146 294.411 129.136 286.59C128.545 284.342 127.856 282.116 127.168 279.891C125.828 275.559 124.489 271.229 123.868 266.736C123.43 264.092 122.81 261.483 121.985 258.921Z" fill="#2B283A"/>
<path fill-rule="evenodd" clip-rule="evenodd" d="M206.009 209.574C204.567 209.715 203.125 209.857 201.683 209.998C194.777 210.526 187.874 211.628 181.021 212.289C180.85 212.011 180.516 212.057 180.313 212.25C179.629 212.19 178.863 211.668 178.243 212.211C178.223 212.208 178.203 212.205 178.183 212.203C177.08 210.086 176.318 207.828 175.578 205.567C175.105 204.177 174.47 202.832 173.296 201.898C171.292 200.507 166.7 197.686 164.347 197.805C164.308 197.384 164.112 196.949 163.789 196.669C164.5 195.457 161.658 194.666 161.458 194.807C161.586 190.758 159.682 187.243 155.483 186.437C151.722 185.653 146.371 185.521 144.348 189.452C144.126 189.427 141.852 189.415 141.632 189.44C141.29 189.007 137.535 193.111 139.074 194.54C125.313 200.628 117.488 199.901 113.679 217.016C113.164 218.623 113.127 220.383 112.583 221.954C110.649 226.472 109.08 231.282 108.689 236.197C107.746 236.439 107.638 238.102 108.73 238.342C109.147 238.434 109.496 238.56 109.801 238.798C109.563 242.826 110.537 252.027 111.151 251.999C112.402 255.982 117.985 257.106 121.937 255.707C121.256 256.988 121.937 257.794 121.937 258.479C136.158 259.017 151.707 258.707 165.925 259.445C167.743 259.419 169.656 259.892 171.45 259.62C172.544 259.358 172.546 257.638 171.436 257.425L176.285 256.372C176.176 256.331 178.283 254.929 179.876 252.311C181.358 249.381 180.349 245.845 181.021 242.658C186.266 242.229 191.598 242.045 196.786 241.157C197.494 243.274 200.556 240.742 201.529 239.724C201.528 239.722 201.527 239.721 201.526 239.719C201.997 239.59 202.375 239.149 202.387 238.626C202.718 238.154 202.787 237.489 202.47 237.033C203.922 228.654 206.136 220.099 206.936 211.642C207.219 211.579 207.485 211.455 207.711 211.264L207.693 211.246C208.075 210.819 208.15 210.083 207.512 209.721C206.997 209.428 206.568 209.519 206.009 209.574Z" fill="white"/>
<path fill-rule="evenodd" clip-rule="evenodd" d="M144.61 188.539C145.039 187.462 146.487 187.881 146.326 189.012C146.229 189.69 145.858 190.405 145.525 190.999C145.253 191.483 144.944 191.955 144.524 192.317C145.271 193.014 146.047 193.686 146.842 194.324C147.71 195.02 148.623 195.661 149.566 196.251C150.393 196.768 151.257 197.226 152.037 197.816C152.762 198.364 153.423 199.024 153.759 199.885C154.117 200.802 153.961 201.749 153.697 202.665L153.667 202.769C153.398 203.677 152.932 204.771 153.578 205.627C153.907 206.062 154.386 206.37 154.799 206.719C155.166 207.028 155.511 207.364 155.827 207.726C156.516 208.514 157.076 209.4 157.43 210.388L157.462 210.478C157.765 211.352 157.987 212.424 157.577 213.282C157.459 213.528 157.08 213.448 157.014 213.209C156.866 212.666 156.873 212.097 156.749 211.547C156.619 210.974 156.403 210.431 156.12 209.916C155.574 208.922 154.835 208.072 153.961 207.353L153.699 207.141C153.018 206.581 152.391 205.988 152.253 205.062C152.105 204.071 152.502 203.128 152.757 202.19C152.935 201.537 152.993 200.91 152.801 200.32C152.566 200.703 152.246 201.067 151.992 201.391C151.488 202.038 150.978 202.68 150.47 203.324C149.949 203.984 149.441 204.655 148.957 205.342C148.741 205.65 148.527 205.96 148.314 206.269C148.153 206.502 147.929 206.735 147.754 206.973C147.797 207.1 147.794 207.246 147.717 207.35C146.789 208.603 145.47 205.988 145.125 205.328C144.425 203.982 143.903 202.553 143.2 201.208C142.471 199.813 141.642 198.456 140.717 197.183C140.158 196.413 139.531 195.69 139.019 194.895C137.814 195.988 136.227 196.721 134.77 197.386C133.169 198.116 131.506 198.712 129.865 199.345L129.38 199.533C126.552 200.637 123.655 201.85 121.305 203.81C118.542 206.114 116.908 209.325 115.692 212.65C114.291 216.478 113.133 220.409 112.053 224.338C111.5 226.348 110.976 228.367 110.483 230.393C110.048 232.178 109.688 233.98 109.185 235.746C110.205 235.71 111.368 236.105 112.239 236.219C116.208 236.739 120.123 237.567 123.869 239C124.332 239.177 124.466 239.64 124.365 240.014C124.632 239.939 124.899 239.863 125.166 239.788C124.873 239.34 125.013 238.539 125.036 238.042L125.037 238.008C125.061 237.346 125.133 236.684 125.179 236.023C125.268 234.764 125.383 233.514 125.537 232.262L125.576 231.949C125.75 230.587 125.879 229.217 126.068 227.857L126.091 227.701C126 227.353 125.894 227.01 125.783 226.668C125.486 225.756 125.068 224.898 124.702 224.016C124.658 223.912 124.807 223.852 124.876 223.914C125.496 224.473 125.989 225.181 126.385 225.922C126.392 225.887 126.398 225.852 126.405 225.817L126.451 225.594C126.562 225.052 126.698 224.481 127.03 224.041C127.066 223.994 127.136 223.985 127.17 224.041C127.488 224.58 127.524 225.263 127.573 225.876C127.628 226.57 127.635 227.272 127.625 227.968C127.606 229.328 127.51 230.691 127.434 232.048C127.359 233.382 127.212 234.699 127.022 236.02L126.986 236.268C126.894 236.896 126.818 237.533 126.696 238.157L126.661 238.327C126.596 238.637 126.556 239.073 126.426 239.436C129.772 238.502 133.123 237.59 136.481 236.694C138.908 236.047 141.338 235.408 143.766 234.766C143.894 234.535 144.054 234.32 144.253 234.127C144.909 233.492 145.779 233.208 146.576 233.697C146.641 233.737 146.646 233.839 146.576 233.877C146.423 233.961 146.27 234.046 146.12 234.136L147.578 233.741C148.668 233.445 149.771 233.076 150.886 232.87C152.941 231.856 155.151 231.122 157.316 230.397L157.571 230.311C158.679 229.933 159.825 229.51 160.97 229.3C161.809 229.147 162.792 229.332 163.13 230.191C163.556 230.472 163.958 230.802 164.345 231.128C164.625 231.362 164.894 231.612 165.167 231.855L165.217 231.9C165.441 232.093 165.617 232.223 165.672 232.531C165.701 232.691 165.599 232.906 165.403 232.885C164.802 232.82 164.313 232.124 163.906 231.708C163.591 231.386 163.273 231.054 162.986 230.7C162.819 230.792 162.589 230.775 162.482 230.573C161.929 229.526 160.414 230.252 159.576 230.5L158.376 230.856C157.775 231.033 157.175 231.212 156.576 231.394C154.93 231.894 153.291 232.454 151.63 232.913C151.779 233.076 151.758 233.367 151.476 233.478C150.175 233.988 148.749 234.252 147.398 234.602C146.545 234.823 145.692 235.046 144.84 235.27C144.694 235.506 144.589 235.774 144.544 236.086C144.382 237.232 144.695 238.555 145.001 239.663L145.047 239.829C145.298 240.72 145.668 241.813 146.437 242.376C146.624 242.513 146.863 242.608 147.104 242.63C148.61 241.855 150.115 241.08 151.621 240.307C151.9 240.164 152.158 240.358 152.221 240.588C152.752 240.501 153.281 240.364 153.764 240.2C154.575 239.925 155.208 239.399 155.968 239.036C157.439 238.333 158.941 239.197 160.258 239.853L160.562 240.002C161.152 240.289 162.381 240.839 162.665 240.055C162.939 239.297 162.072 238.487 161.512 238.146C160.845 237.739 160.069 237.521 159.315 237.34C158.884 237.236 158.448 237.151 158.01 237.09C157.513 237.02 156.999 237.03 156.52 236.869C156.283 236.789 156.246 236.411 156.52 236.349C157.257 236.181 158.137 236.364 158.906 236.551L159.308 236.65C160.083 236.84 160.865 237.079 161.571 237.458C162.084 237.734 162.626 238.153 162.98 238.666C163.287 238.381 163.669 238.39 164.068 238.496L164.284 238.556C164.641 238.655 164.931 238.723 165.278 238.655C165.324 238.402 165.372 238.149 165.422 237.896C165.917 235.41 166.46 232.934 167.059 230.471C168.093 226.223 169.288 222.021 170.637 217.863L170.772 217.447C171.083 216.496 171.333 215.46 171.834 214.586C172.308 213.759 173.068 213.283 173.971 213.031C174.995 212.745 176.071 212.596 177.116 212.403C177.349 212.36 177.582 212.319 177.816 212.276C177.619 211.92 177.471 211.516 177.339 211.206L177.316 211.153C177.031 210.503 176.775 209.842 176.528 209.178L176.343 208.678C175.897 207.476 175.437 206.293 174.81 205.168C174.15 203.984 173.274 203.016 172.183 202.215C169.957 200.581 167.275 199.748 165.116 198.002C165.028 197.93 165.141 197.808 165.231 197.853C166.689 198.586 168.262 199.084 169.778 199.68L170.077 199.798C171.275 200.273 172.492 200.79 173.529 201.559C174.685 202.417 175.596 203.482 176.281 204.748C176.955 205.997 177.387 207.394 177.863 208.727L177.99 209.083C178.182 209.615 178.38 210.147 178.607 210.665C178.788 211.077 179.124 211.547 179.277 212.017C179.696 211.944 180.114 211.871 180.533 211.801C189.608 210.286 198.785 209.396 207.982 209.135C208.341 209.125 208.528 209.469 208.475 209.782C207.592 215.002 206.808 220.239 205.947 225.462C205.571 227.741 205.188 230.019 204.796 232.296C204.597 233.449 204.368 234.598 204.18 235.753C204.028 236.686 203.918 237.627 203.657 238.538C203.423 239.355 203.064 240.143 202.475 240.766C201.839 241.438 200.952 241.763 200.06 241.917C197.794 242.307 195.469 242.466 193.185 242.726L181.021 244.11C181.199 245.726 181.212 247.316 181.131 248.951L181.084 249.843C181.046 250.561 181.001 251.279 180.898 251.99C180.769 252.881 180.361 253.635 179.761 254.301C179.209 254.912 178.54 255.433 177.888 255.933C177.212 256.452 176.513 256.953 175.718 257.274L175.615 257.314C174.918 257.587 173.609 258.009 172.656 257.854C172.781 258.479 173.022 259.15 172.808 259.768C172.709 260.055 172.334 260.198 172.104 259.954C171.648 259.47 171.613 258.831 171.505 258.2C171.393 257.543 171.296 256.884 171.21 256.223C171.044 254.946 170.915 253.656 170.875 252.368C170.835 251.045 170.85 249.72 170.921 248.398C170.958 247.719 171.004 247.041 171.09 246.367C171.126 246.079 171.164 245.791 171.207 245.504C171.223 245.4 171.24 245.296 171.259 245.192L170.167 245.315C168.493 245.502 166.818 245.67 165.132 245.697C164.933 245.7 164.779 245.609 164.679 245.476C164.572 245.651 164.386 245.775 164.119 245.774C161.765 245.765 159.572 244.996 157.431 244.088C156.352 243.631 155.289 243.136 154.208 242.682C153.199 242.259 152.121 241.957 151.136 241.48L148.549 242.837C148.53 242.904 148.506 242.967 148.48 243.02C148.311 243.363 147.979 243.55 147.64 243.69C147.314 243.826 146.977 243.868 146.649 243.833C144.687 244.862 142.724 245.889 140.76 246.914L138.796 247.938C134.882 249.976 130.984 252.047 127.046 254.037L126.756 254.183C125.395 254.865 123.935 255.556 122.425 256.072C122.398 256.455 122.415 256.826 122.447 257.231L122.455 257.319C122.5 257.797 122.596 258.396 122.213 258.736C122.013 258.913 121.657 258.913 121.522 258.647C121.275 258.163 121.496 257.4 121.574 256.874C121.602 256.688 121.636 256.495 121.686 256.309C119.955 256.824 118.172 257.074 116.411 256.785C114.696 256.503 113.368 255.423 112.297 254.102C111.167 252.707 110.365 251.082 109.934 249.34C109.444 247.358 109.411 245.311 109.423 243.281C109.435 241.119 109.515 238.946 109.778 236.799C109.49 236.731 109.171 236.672 108.879 236.693C108.735 236.923 108.455 237.02 108.203 236.99C107.653 237.597 109.047 238.216 109.493 238.371C109.647 238.425 109.631 238.677 109.452 238.669L109.34 238.664C108.652 238.627 107.94 238.509 107.536 237.87C107.211 237.357 107.309 236.749 107.695 236.331C107.951 233.916 108.561 231.565 109.13 229.209C109.687 226.897 110.307 224.6 110.965 222.314L111.259 221.291C112.294 217.707 113.376 214.095 114.803 210.653C115.516 208.935 116.338 207.248 117.451 205.75C118.488 204.353 119.713 203.158 121.121 202.137C123.746 200.234 126.827 199.084 129.853 197.988L129.989 197.939C131.557 197.372 133.122 196.798 134.672 196.183C136.043 195.639 137.357 194.95 138.722 194.398C138.677 194.318 138.635 194.236 138.593 194.154L138.568 194.175C138.564 194.179 138.559 194.182 138.555 194.185C138.418 194.28 138.216 194.234 138.102 194.127C137.783 193.826 137.891 193.491 138.104 193.179L138.132 193.139C138.393 192.773 138.625 192.387 138.866 192.009L139.017 191.772C139.421 191.14 139.845 190.503 140.384 189.981C140.633 189.738 140.906 189.557 141.196 189.422C141.171 189.37 141.388 189.263 141.449 189.317C142.366 188.981 143.42 189.052 144.42 189.144M180.433 244.177L179.158 244.322C177.756 244.481 176.354 244.635 174.951 244.788L171.904 245.119C171.896 245.293 171.875 245.463 171.871 245.594C171.851 246.27 171.837 246.947 171.823 247.624C171.794 248.98 171.825 250.337 171.915 251.69C172.001 253.002 172.115 254.313 172.292 255.616L172.328 255.876L172.349 256.013C172.494 256.027 172.636 256.096 172.754 256.237C173.012 256.545 173.945 256.246 174.309 256.116C174.909 255.903 175.473 255.542 175.994 255.181C176.502 254.828 176.96 254.417 177.4 253.983L177.76 253.627C178.119 253.271 178.477 252.892 178.697 252.444C178.994 251.837 179.033 251.092 179.12 250.431C179.227 249.617 179.355 248.804 179.491 247.995M143.437 235.639L143.305 235.674C138.503 236.95 133.708 238.264 128.892 239.483C126.508 240.087 124.113 240.647 121.727 241.239L121.34 241.336C119.458 241.811 117.552 242.384 116.111 243.75C116.057 243.8 115.98 243.723 116.03 243.669C117.584 242.015 119.794 241.315 121.916 240.708C122.308 240.596 122.701 240.486 123.093 240.375C120.207 239.346 117.276 238.451 114.277 237.813C113.505 237.648 112.724 237.527 111.952 237.362C111.414 237.247 110.889 237.081 110.356 236.943L109.937 236.837L109.932 238.161C109.925 240.036 109.928 241.909 110.024 243.784L110.042 244.131C110.153 246.217 110.328 248.347 111.068 250.314C111.669 251.912 112.628 253.418 113.882 254.582C114.517 255.171 115.199 255.63 116.042 255.856C116.825 256.066 117.645 256.091 118.45 256.035C122.311 255.766 125.747 253.668 129.1 251.932C134.586 249.092 140.071 246.253 145.562 243.424C145.414 243.323 145.274 243.206 145.147 243.074C144.41 242.314 144.022 241.273 143.767 240.265C143.495 239.192 143.333 238.042 143.314 236.934M150.423 244.52C150.472 244.494 150.528 244.527 150.53 244.581C150.547 245.001 150.315 245.414 150.142 245.792L150.124 245.833C149.914 246.3 149.683 246.762 149.445 247.217C148.969 248.125 148.474 249.023 147.958 249.908C146.919 251.69 145.765 253.396 144.401 254.948C144.093 255.298 143.586 254.849 143.784 254.471C144.737 252.653 145.849 250.935 146.993 249.233C147.565 248.381 148.137 247.528 148.716 246.679C148.957 246.325 149.201 245.972 149.452 245.625L149.604 245.417M207.374 210.177C202.555 210.322 197.742 210.637 192.946 211.129C188.486 211.587 184.043 212.197 179.624 212.957C178.701 213.116 177.779 213.281 176.859 213.453L176.306 213.556C175.386 213.731 174.261 213.803 173.441 214.295C172.577 214.813 172.343 215.897 172.056 216.791C171.717 217.842 171.388 218.896 171.067 219.953C169.794 224.148 168.631 228.38 167.594 232.639C167.079 234.754 166.622 236.88 166.14 239.002C165.712 240.887 165.24 242.751 164.747 244.618C164.808 244.571 164.883 244.535 164.973 244.516C167.421 243.995 169.921 243.768 172.406 243.48L172.646 243.452C175.217 243.15 177.788 242.85 180.361 242.561L197.392 240.645C198.397 240.532 199.473 240.517 200.451 240.247C202.112 239.789 202.502 237.931 202.781 236.451L202.789 236.406C203.63 231.935 204.299 227.425 205.083 222.943M165.144 239.421C164.482 239.377 163.577 238.771 163.076 238.815C163.339 239.257 163.458 239.761 163.306 240.299C162.884 241.797 160.973 241.022 160.053 240.564C159.299 240.189 158.57 239.73 157.735 239.554C156.789 239.355 156.148 239.731 155.348 240.165C154.692 240.521 153.977 240.777 153.241 240.909C152.85 240.98 152.479 240.987 152.108 240.96C152.086 240.978 152.061 240.995 152.032 241.01L151.836 241.113C152.723 241.153 153.626 241.427 154.451 241.678C155.306 241.937 156.146 242.25 156.981 242.57L157.802 242.886C159.828 243.662 161.926 244.398 164.119 244.392C164.277 244.392 164.406 244.435 164.507 244.506M161.444 234.727C162.097 234.647 162.7 234.733 163.222 235.158C163.852 235.671 164.275 236.522 165.18 236.577C165.444 236.594 165.505 236.965 165.243 237.042C164.569 237.242 164.024 236.877 163.565 236.404L163.256 236.082C162.802 235.612 162.384 235.249 161.615 235.277C160.79 235.307 159.965 235.497 159.146 235.594C158.218 235.704 157.291 235.797 156.36 235.878C156.317 235.882 156.31 235.814 156.35 235.804L157.392 235.544M160.814 232.057L160.921 232.046C161.87 231.954 162.737 231.95 163.585 232.461L163.747 232.559C164.511 233.023 165.342 233.57 165.82 234.322C165.898 234.445 165.769 234.59 165.638 234.558C164.72 234.338 164.049 233.664 163.277 233.16C162.411 232.595 161.516 232.688 160.528 232.776C159.571 232.861 158.615 232.978 157.668 233.137C156.778 233.287 155.885 233.523 154.986 233.599L154.986 233.597C154.884 233.597 154.825 233.442 154.93 233.39C155.842 232.935 156.899 232.719 157.891 232.511M128.331 206.262C128.33 206.186 128.435 206.158 128.472 206.223C129.089 207.309 129.412 208.64 129.741 209.837C130.085 211.09 130.363 212.356 130.613 213.631C131.119 216.214 131.388 218.781 131.407 221.413C131.409 221.789 130.797 221.889 130.737 221.504C130.339 218.944 129.959 216.381 129.558 213.821C129.356 212.534 129.122 211.252 128.897 209.968M134.441 208.153C134.395 208.003 134.613 207.953 134.669 208.09C135.908 211.131 136.327 214.577 135.532 217.784C135.41 218.275 134.692 218.063 134.783 217.578M150.419 205.451C150.413 205.339 150.558 205.321 150.613 205.399C151.2 206.226 151.443 207.333 152.473 207.76C152.987 207.974 153.566 207.937 154.02 208.297C154.323 208.538 154.556 208.919 154.328 209.284C154.255 209.402 154.049 209.461 153.949 209.333C153.804 209.146 153.727 208.922 153.529 208.782C153.25 208.585 152.874 208.573 152.554 208.48C152.14 208.36 151.775 208.15 151.476 207.838M160.224 191.658C160.284 191.627 160.342 191.647 160.381 191.699C160.436 191.774 160.429 191.846 160.362 191.897C160.452 192.082 160.559 192.545 160.574 192.612C160.636 192.885 160.702 193.157 160.77 193.428C160.909 193.975 161.031 194.526 161.17 195.073C161.317 195.654 161.492 196.227 161.688 196.793C161.7 196.83 161.714 196.867 161.728 196.905L161.751 196.962L161.756 196.954C161.796 196.891 161.878 196.935 161.869 197.001C161.86 197.061 161.847 197.121 161.837 197.182L161.858 197.236C161.985 197.58 162.073 197.942 161.838 198.245C161.751 198.358 161.654 198.425 161.534 198.445C161.341 199.081 161.1 199.704 160.841 200.303L160.765 200.478C160.384 201.351 159.978 202.213 159.372 202.957C158.71 203.769 157.8 204.323 157.223 205.213C156.955 205.627 156.768 206.062 156.617 206.529L156.56 206.707C156.453 207.037 156.328 207.358 156.018 207.552C155.919 207.613 155.771 207.594 155.691 207.509C155.056 206.837 155.721 205.581 156.105 204.929C156.638 204.024 157.409 203.444 158.181 202.761C159.014 202.025 159.545 201.039 160.059 200.069C160.374 199.474 160.677 198.867 160.997 198.269C160.663 197.974 160.556 197.387 160.443 196.98L160.432 196.943C160.245 196.29 160.097 195.62 160.003 194.947C159.912 194.3 159.875 193.663 159.899 193.012L159.906 192.846M161.466 194.737C161.392 194.636 161.515 194.521 161.616 194.542C162.232 194.67 162.834 195.043 163.386 195.344L163.445 195.376C163.887 195.614 164.331 195.905 164.562 196.368C164.814 196.87 164.793 197.449 164.759 197.994L164.756 198.046C164.714 198.7 164.707 199.38 164.568 200.023C164.498 200.352 164.2 200.445 163.945 200.367C163.642 201.325 162.79 202.03 162.168 202.785C161.375 203.748 161.524 205.048 161.607 206.208C161.64 206.678 161.056 206.811 160.756 206.561L160.062 205.985C159.947 205.889 159.832 205.793 159.717 205.696C159.618 205.613 159.52 205.53 159.424 205.445L159.279 205.317C159.215 205.26 158.932 204.944 158.849 204.931C158.649 204.899 158.173 205.427 158.01 205.593L157.99 205.613C157.683 205.914 157.406 206.237 157.148 206.58C157.101 206.643 157.008 206.591 157.042 206.518C157.273 206.023 157.542 205.549 157.861 205.106L157.925 205.018C158.138 204.732 158.423 204.227 158.798 204.142C159.255 204.039 159.712 204.498 160.045 204.753L160.067 204.769C160.225 204.887 160.382 205.008 160.538 205.13C160.522 204.267 160.631 203.394 161.076 202.65C161.391 202.125 161.862 201.736 162.265 201.285C162.714 200.783 162.948 200.166 163.354 199.643C163.406 199.576 163.478 199.54 163.556 199.528C163.572 199.108 163.634 198.683 163.682 198.267L163.696 198.142C163.744 197.691 163.858 197.139 163.637 196.715C163.428 196.316 162.949 196.033 162.593 195.762L162.304 195.537M141.48 189.959C141.294 190.066 141.121 190.2 140.964 190.366C140.469 190.891 140.115 191.545 139.771 192.173C139.585 192.512 139.407 192.854 139.22 193.192C139.138 193.339 139.055 193.484 138.97 193.629C138.931 193.696 138.815 193.829 138.757 193.911C138.821 194 138.887 194.089 138.955 194.176C138.981 194.209 140.756 196.143 141.375 196.9C142.323 198.06 143.17 199.284 143.894 200.595C144.603 201.879 145.143 203.238 145.8 204.546C146.128 205.201 146.496 205.852 146.964 206.419C146.982 206.441 147.001 206.462 147.019 206.484C147.198 206.001 147.656 205.484 147.88 205.188L147.901 205.16C148.411 204.472 148.95 203.806 149.5 203.15C150.002 202.552 150.518 201.967 151.045 201.391L151.244 201.175C151.612 200.778 152.079 200.184 152.617 199.9C152.559 199.797 152.492 199.696 152.416 199.595C151.911 198.936 151.199 198.458 150.495 198.026L150.039 197.749C148.319 196.701 146.627 195.604 145.134 194.243C144.344 193.522 143.565 192.768 142.901 191.927L142.666 191.63M144.349 189.44C143.544 189.508 142.674 189.492 141.93 189.754C142.592 190.379 143.22 191.055 143.866 191.691C143.924 191.261 144.041 190.836 144.141 190.416" fill="#2B283A"/>
<path d="M190.963 225.534L188.135 225.79C187.795 225.82 187.544 226.121 187.574 226.46L187.589 226.618C187.619 226.957 187.92 227.208 188.26 227.177L191.088 226.922C191.429 226.891 191.68 226.591 191.649 226.251L191.635 226.094C191.604 225.754 191.303 225.504 190.963 225.534Z" fill="#2B283A"/>
<path d="M189.583 227.313L188.202 227.438C187.907 227.464 187.69 227.725 187.716 228.019L187.728 228.156C187.755 228.45 188.016 228.668 188.311 228.641L189.691 228.516C189.987 228.49 190.204 228.229 190.178 227.935L190.165 227.798C190.139 227.504 189.878 227.286 189.583 227.313Z" fill="#2B283A"/>
<path d="M189.632 228.776L186.804 229.031C186.464 229.062 186.213 229.362 186.243 229.702L186.258 229.86C186.288 230.199 186.589 230.449 186.929 230.419L189.758 230.163C190.098 230.133 190.349 229.833 190.318 229.493L190.304 229.335C190.273 228.996 189.972 228.745 189.632 228.776Z" fill="#2B283A"/>
<path d="M185.141 229.181L184.963 229.197C184.622 229.228 184.372 229.528 184.402 229.868L184.416 230.025C184.447 230.365 184.748 230.615 185.088 230.584L185.266 230.568C185.606 230.538 185.857 230.237 185.827 229.898L185.812 229.74C185.782 229.401 185.481 229.15 185.141 229.181Z" fill="#2B283A"/>
<path fill-rule="evenodd" clip-rule="evenodd" d="M153.425 155.222C157.272 155.222 161.888 157.088 162.28 157.125L162.291 157.126C162.497 157.126 163.304 157.741 164.711 158.971L163.187 161.946L163.31 162.063C163.901 162.63 164.404 163.146 164.802 163.553C168.049 166.874 168.633 179.917 167.868 184.465C167.102 189.014 165.685 193.464 159.086 193.464C152.487 193.464 145.146 189.494 144.015 188.258C143.261 187.433 142.414 187.038 141.474 187.073C141.436 187.024 141.398 186.975 141.36 186.927L141.221 186.907C139.921 186.719 138.989 186.465 138.425 186.146C137.325 185.523 136.116 182.249 136.116 181.528C136.116 180.814 134.311 175.62 134.275 175.07L134.274 175.055C134.274 174.595 131.915 172.483 131.915 171.812C131.915 171.141 131.44 171.182 131.915 168.818L132.054 168.124C132.559 165.607 133.55 161.439 137.325 159.628C141.474 157.638 149.539 155.222 153.425 155.222Z" fill="white"/>
<path fill-rule="evenodd" clip-rule="evenodd" d="M136.685 159.534C138.754 157.336 150.502 153.937 156.445 154.657L156.624 154.68C157.098 154.741 157.565 154.832 158.027 154.955C159.518 155.304 161.058 155.832 162.29 156.713C163.319 157.434 166.564 158.612 165.607 160.498C165.962 161.17 166.094 162.001 165.855 162.663C165.824 162.892 165.754 163.102 165.664 163.321C166.421 164.439 167.021 165.704 167.507 166.908C168.355 169.936 168.883 173.088 168.961 176.177C169.218 182.048 168.575 189.06 163.465 192.855C160.379 195.261 155.544 195.342 152.076 192.359C151.879 192.126 150.953 191.497 151.262 191.387C151.354 191.484 151.449 191.579 151.545 191.671C151.54 191.661 151.54 191.651 151.541 191.64L151.451 191.558C151.28 191.4 151.06 191.171 151.311 191.216C151.322 191.229 151.334 191.24 151.346 191.253C151.399 191.285 151.44 191.312 151.471 191.337L151.487 191.35L151.482 191.345C151.337 191.19 151.25 191.032 151.467 191.133L151.496 191.147C151.592 191.248 151.69 191.346 151.79 191.44C151.788 191.429 151.79 191.418 151.796 191.406L151.703 191.316C151.612 191.227 151.626 191.227 151.67 191.155C151.477 190.884 151.837 191.045 151.863 191.15C152.088 191.097 152.286 191.52 152.431 191.572C158.789 196.463 168.016 192.123 167.867 178.493L167.864 178.226C167.821 173.868 167.454 169.388 165.653 165.443C165.477 165.063 165.281 164.693 165.066 164.335C164.917 164.067 164.758 163.806 164.587 163.551C164.109 163.512 163.636 163.425 163.17 163.289C163.01 163.248 162.852 163.204 162.694 163.151C160.385 163.277 158.126 163.414 155.81 163.544L155.087 163.59C153.125 163.716 151.096 163.918 149.513 165.132C147.959 166.238 147.952 168.418 146.622 169.632C144.726 170.92 144.712 172.081 144.347 173.979C144.374 175.41 145.365 177.488 143.546 178.091C143.853 178.528 143.425 178.318 143.391 178.165C143.388 178.165 143.385 178.166 143.382 178.166C143.655 178.675 143.253 178.355 143.218 178.191C143.196 178.185 143.175 178.17 143.153 178.148C143.429 178.594 142.984 178.282 143.01 178.201C142.477 177.382 141.382 177.255 140.609 177.472C140.6 177.501 140.565 177.503 140.544 177.488C137.259 178.2 138.107 185.004 141.473 184.347C141.617 184.317 141.613 184.386 141.642 184.393C141.564 184.189 141.783 184.272 141.781 184.315L141.794 184.314C141.805 184.313 141.801 184.312 141.809 184.315C141.733 183.897 142.157 184.502 142.123 184.527C142.136 184.519 142.151 184.515 142.164 184.513L142.149 184.474C142.079 184.287 142.085 184.364 142.085 184.257C142.033 184.125 142.029 184.183 142.041 184.096C142.226 183.953 142.281 184.389 142.343 184.421C142.237 184.273 142.321 184.152 142.421 184.232C143.179 185.828 144.159 187.327 145.424 188.508C145.563 188.617 145.703 188.725 145.848 188.826C146.386 189.295 147.212 189.597 147.716 190.013C147.716 190.02 147.713 190.028 147.707 190.037L147.719 190.047L147.731 190.058L147.906 190.143C147.957 190.187 148.004 190.236 148.045 190.29C148.089 190.34 148.127 190.396 148.16 190.456C148.177 190.528 148.14 190.558 148.072 190.527C148.042 190.517 148.012 190.505 147.982 190.493C147.983 190.496 147.984 190.498 147.986 190.499C147.996 190.514 148.062 190.669 147.986 190.644L147.976 190.64C147.934 190.625 147.892 190.608 147.851 190.591C147.9 190.653 147.944 190.719 147.984 190.775C148.026 190.818 148.052 190.87 148.062 190.929C148.06 190.961 148.043 190.975 148.01 190.971C147.96 190.954 147.911 190.937 147.862 190.919L147.876 190.946C147.911 191.014 147.96 191.128 147.872 191.09C147.798 191.067 147.725 191.04 147.653 191.011C147.647 191.023 147.635 191.027 147.611 191.016C147.382 190.935 147.16 190.835 146.948 190.717C146.761 190.581 146.573 190.448 146.386 190.313C146.21 190.207 146.04 190.089 145.877 189.957C144.791 189.255 143.839 188.362 143.085 187.369C141.823 188.463 139.299 187.418 137.738 186.562C136.357 185.796 135.815 184.381 135.674 182.856C135.383 180.802 133.705 180.099 133.822 175.593C133.819 175.594 133.817 175.594 133.813 175.594C133.752 175.576 133.693 175.552 133.637 175.521C133.58 175.493 133.526 175.46 133.475 175.421L133.412 175.334C133.38 175.316 133.35 175.297 133.328 175.278L133.316 175.293C133.28 175.337 133.304 175.271 133.307 175.257L133.198 175.109C132.939 174.756 132.656 174.36 132.425 174.043L132.418 174.056C132.412 174.066 132.41 174.073 132.412 174.076C131.863 173.286 131.346 172.332 131.202 171.408C131.033 170.697 131.099 169.963 131.247 169.304C131.881 166.996 133.958 161.773 136.685 159.534ZM151.597 191.455L151.562 191.424L151.593 191.462C151.609 191.482 151.625 191.5 151.651 191.518C151.65 191.512 151.65 191.506 151.65 191.499C151.633 191.485 151.615 191.471 151.597 191.455ZM156.419 155.817C152.389 155.47 148.425 156.359 144.579 157.434L144.313 157.51C142.126 158.135 139.814 158.697 137.966 160.033C135.384 162.012 134.05 165.161 132.887 168.068C131.871 170.227 132.39 172.662 133.921 174.171C134.08 172.672 134.352 171.217 134.776 169.774C134.865 169.549 134.798 169.475 134.989 169.445C135.277 173.334 133.857 176.207 136.668 180.816C137.887 182.991 136.475 184.582 139.919 185.726L140.012 185.762C140.73 186.033 141.513 186.247 142.216 186.095L142.153 185.993C142.089 185.887 142.07 185.836 142.163 185.791C142.16 185.786 142.157 185.781 142.153 185.775C142.078 185.632 142.005 185.487 141.935 185.341C141.907 185.351 141.879 185.358 141.849 185.365C141.868 185.401 141.871 185.436 141.818 185.448C141.628 185.513 141.434 185.539 141.235 185.527L141.192 185.524C140.967 185.51 140.826 185.469 140.699 185.431C140.657 185.424 140.615 185.417 140.573 185.408C140.166 185.318 139.734 185.088 139.455 184.86C136.271 183.05 136.6 176.89 140.524 176.307C140.605 172.428 142.449 165.884 145.508 162.188C148.274 158.789 155.825 157.315 161.078 157.835C161.154 157.86 161.231 157.886 161.307 157.911C162.118 157.983 162.89 158.345 163.701 158.513C163.119 158.076 162.458 157.785 161.778 157.538C160.422 156.708 158.868 156.259 157.366 155.942C157.055 155.866 156.74 155.824 156.419 155.817ZM140.345 179.423C140.556 179.308 140.531 179.419 140.58 179.387C142.098 179.263 143.735 180.593 144.583 181.702C144.516 181.771 144.335 181.565 144.303 181.532C144.299 181.537 144.294 181.54 144.288 181.542L144.312 181.575C144.656 182.069 143.974 181.488 143.91 181.368C143.899 181.374 143.888 181.378 143.875 181.375C143.929 181.428 144.094 181.566 144.123 181.665L144.166 181.701C144.579 182.055 144.545 182.321 144.076 181.819C144.087 181.842 144.092 181.863 144.084 181.881L144.1 181.891C144.33 182.052 144.52 182.501 144.038 182.04C144.088 182.377 143.561 181.726 143.544 181.731C142.632 181.014 141.289 180.317 140.144 180.224L140.105 180.219C139.895 180.192 139.796 180.13 139.869 179.992C139.611 179.931 139.671 179.803 139.794 179.807C139.611 179.687 139.776 179.573 139.881 179.617C139.809 179.416 140.1 179.55 140.127 179.522C140.279 179.288 140.319 179.483 140.345 179.423ZM137.163 166.926C137.892 166.658 140.045 167.458 139.873 168.518C139.771 168.761 139.433 168.9 139.195 168.763L138.885 168.555C138.345 168.193 137.859 167.876 137.279 167.561C136.964 167.404 136.828 167.072 137.163 166.926ZM141.311 165.351L141.03 165.168C139.51 164.173 137.362 162.665 141.172 164.225C141.606 164.411 142.183 164.522 142.42 164.935C142.792 165.698 141.812 165.749 141.311 165.351ZM141.481 160.886C141.359 160.423 142.877 160.967 143.318 161.11L143.385 161.135C143.815 161.296 144.308 161.444 144.565 161.815C144.866 162.328 144.256 162.434 143.879 162.202C143.105 161.696 142.256 161.315 141.481 160.886ZM145.339 158.729C144.486 157.796 146.771 158.69 147.113 158.938L147.123 158.946C147.379 159.126 147.327 159.513 147.087 159.627C146.404 159.64 145.901 159.07 145.339 158.729ZM149.226 157.707C147.868 156.731 149.656 157.195 150.278 157.578C150.701 157.952 150.265 158.582 149.226 157.707Z" fill="#2B283A"/>
<path fill-rule="evenodd" clip-rule="evenodd" d="M155.677 180.94C157.148 180.762 158.574 181.212 160.012 181.438C160.771 181.558 161.531 181.647 162.3 181.68C162.454 181.687 162.609 181.691 162.763 181.694C162.778 181.558 162.854 181.433 163.019 181.359C163.357 181.206 163.628 181.137 164 181.151C164.34 181.165 164.681 181.2 165.016 181.261C165.624 181.372 166.235 181.624 166.68 182.063C167.71 183.078 167.553 184.708 166.757 185.813C165.114 188.097 162.114 188.203 159.545 188.173L159.308 188.17C156.969 188.136 153.622 188.484 152.559 185.829C152.169 184.853 152.223 183.721 152.701 182.785C153.272 181.668 154.473 181.086 155.677 180.94ZM162.984 184.743L162.963 184.744C161.884 184.785 160.806 184.815 159.727 184.834C159.759 185.11 159.792 185.387 159.83 185.662C159.859 185.88 159.891 186.096 159.924 186.313C159.938 186.405 159.989 186.547 159.975 186.638L159.969 186.674C160.025 186.699 160.075 186.739 160.113 186.797C160.126 186.818 160.135 186.838 160.144 186.858C160.982 186.865 161.884 186.849 162.738 186.697L162.74 186.678C162.755 186.569 162.8 186.496 162.861 186.446C162.921 186.099 162.915 185.729 162.938 185.385C162.953 185.171 162.969 184.957 162.984 184.743ZM158.903 184.848C158.125 184.862 157.348 184.872 156.57 184.862L156.218 184.857C156.292 185.256 156.373 185.653 156.441 186.054C156.511 186.473 156.142 186.739 155.822 186.728C155.858 186.734 155.894 186.74 155.93 186.745C156.928 186.886 157.964 186.848 158.977 186.847C158.923 186.53 158.945 186.172 158.937 185.907L158.935 185.866C158.92 185.527 158.909 185.187 158.903 184.848ZM153.622 184.775C153.649 184.983 153.701 185.186 153.78 185.375C154.112 186.173 154.872 186.545 155.677 186.702C155.538 186.654 155.427 186.538 155.399 186.34C155.329 185.848 155.304 185.348 155.302 184.848C154.741 184.843 154.176 184.831 153.622 184.775ZM165.909 184.605C165.509 184.699 165.045 184.656 164.653 184.673C164.286 184.69 163.919 184.705 163.552 184.719C163.569 184.969 163.586 185.219 163.604 185.469C163.628 185.792 163.63 186.133 163.692 186.455C164.431 186.203 165.093 185.8 165.59 185.155C165.713 184.994 165.824 184.806 165.909 184.605ZM155.508 182.251C154.843 182.408 154.214 182.739 153.876 183.346C153.675 183.706 153.587 184.133 153.604 184.554C154.166 184.489 154.737 184.464 155.306 184.443C155.308 184.341 155.31 184.239 155.313 184.137L155.322 183.876C155.338 183.378 155.345 182.753 155.508 182.251ZM158.949 182.311L158.657 182.278C157.844 182.186 157.031 182.089 156.218 182.145C156.101 182.153 155.981 182.166 155.861 182.183C156.005 182.7 155.993 183.308 156.053 183.82C156.076 184.018 156.106 184.214 156.138 184.41L156.279 184.403C157.151 184.356 158.025 184.327 158.898 184.292C158.897 184.129 158.898 183.965 158.901 183.802L158.904 183.638C158.914 183.22 158.887 182.749 158.949 182.311ZM163.031 182.245C162.18 182.382 161.3 182.411 160.464 182.412C160.129 182.412 159.796 182.392 159.462 182.362C159.484 182.54 159.495 182.719 159.511 182.894C159.544 183.247 159.582 183.6 159.623 183.952L159.659 184.26C160.732 184.212 161.805 184.159 162.878 184.105L163.029 184.097L163.072 183.504C163.101 183.109 163.133 182.714 163.177 182.321L163.144 182.309C163.104 182.293 163.067 182.27 163.031 182.245ZM163.401 182.391C163.448 182.95 163.474 183.511 163.508 184.071L164.216 184.033C164.333 184.026 164.451 184.02 164.569 184.013C165.027 183.987 165.616 183.848 166.069 183.978C166.104 183.567 165.986 183.166 165.614 182.89C164.962 182.405 164.131 182.578 163.401 182.391ZM160.985 177.398C162.038 176.796 164.68 176.182 164.847 178.072C164.924 178.942 164.276 179.663 163.519 179.985L163.49 179.997C162.78 180.288 161.522 180.617 160.907 179.985C160.396 179.46 161.074 178.517 161.71 178.948C162.036 179.169 162.724 179.006 163.088 178.901L163.111 178.894C163.504 178.779 164.029 178.41 163.866 177.927C163.722 177.499 163.11 177.421 162.726 177.407C162.154 177.387 161.597 177.52 161.029 177.563C160.94 177.569 160.912 177.44 160.985 177.398ZM165.347 174.358C166.777 174.292 167.666 175.848 167.337 177.124C167.28 177.344 167.034 177.56 166.795 177.535L166.735 177.53C166.705 177.527 166.674 177.523 166.646 177.515C166.42 177.453 166.217 177.218 166.234 176.975L166.238 176.904C166.271 176.301 166.206 175.607 165.488 175.461C164.879 175.337 164.539 175.922 164.532 176.46C164.531 176.556 164.423 176.622 164.338 176.571C163.898 176.304 163.822 175.772 163.99 175.315C164.203 174.735 164.736 174.387 165.347 174.358ZM154.74 174.691C155.781 174.345 156.903 174.898 157.406 175.816C157.583 175.867 157.76 176.003 157.735 176.211C157.7 176.51 157.646 176.699 157.438 176.926C157.113 177.281 156.503 177.099 156.368 176.662L156.362 176.642C156.209 176.077 155.586 175.705 155.018 175.902C154.354 176.133 154.374 176.832 153.908 177.239C153.854 177.287 153.788 177.295 153.723 177.263C153.228 177.025 153.317 176.308 153.493 175.898C153.724 175.359 154.174 174.88 154.74 174.691ZM153.324 171.541C154.166 170.683 156.364 169.853 156.941 171.437C157.051 171.739 156.817 172.146 156.502 172.208C155.986 172.31 155.529 172.087 155.016 172.127C154.602 172.16 154.169 172.298 153.837 172.554C152.919 173.264 152.717 174.465 152.077 175.368C152.046 175.412 151.986 175.394 151.98 175.342C151.834 174.027 152.4 172.48 153.324 171.541ZM164.316 170.696C164.875 170.499 165.509 170.515 166.071 170.69C166.637 170.866 167.157 171.201 167.558 171.638C167.74 171.837 167.908 172.056 168.043 172.289C168.114 172.412 168.19 172.667 168.271 172.819C168.712 173.073 168.9 173.651 168.506 174.063L168.488 174.081L168.435 174.133C168.223 174.342 167.903 174.433 167.614 174.35C166.966 174.163 166.887 173.654 166.663 173.113C166.515 172.757 166.261 172.441 165.954 172.209C165.226 171.661 164.034 171.487 163.159 171.745C163.112 171.759 163.058 171.699 163.091 171.656C163.257 171.442 163.352 171.266 163.574 171.093C163.8 170.918 164.046 170.791 164.316 170.696Z" fill="#2B283A"/>
</g>

</svg>