<svg xmlns="http://www.w3.org/2000/svg" width="28" height="26" fill="none" class="eu-cu eu_af"><path fill-rule="evenodd" clip-rule="evenodd" d="M25.823 3.864C24.493 1.697 22.213.5 19.652.5c-2.427 0-4.226.897-5.644 2.537C12.496 1.324 10.694.5 8.35.5 5.788.5 3.418 1.697 2.088 3.864c-.8 1.305-2.068 5.117.175 10.07C5.161 20.34 11.03 25.5 13.956 25.5c2.925 0 8.793-5.158 11.693-11.566 2.348-5.183 1.117-8.533.174-10.07" fill="#C7B9FF"/><path d="M25.823 3.864C24.493 1.697 22.213.5 19.652.5c-2.427 0-4.226.897-5.644 2.537C12.496 1.324 10.694.5 8.35.5 5.788.5 3.418 1.697 2.088 3.864c-.8 1.305-2.068 5.117.175 10.07C5.161 20.34 11.03 25.5 13.956 25.5c2.925 0 8.793-5.158 11.693-11.566 2.348-5.183 1.117-8.533.174-10.07" stroke="#2B283A"/>
</svg>