<svg xmlns="http://www.w3.org/2000/svg" class="cv-fp cv_af" width="40" height="34" viewBox="0 0 40 34" fill="none">
<path fill-rule="evenodd" clip-rule="evenodd" d="M14 16.5C13.7373 15.8308 13.9076 14.7284 14.0687 13.6852C14.2928 12.2349 14.4991 10.899 13.5 11C10.8561 11.2993 9.28335 11.9968 7.48687 12.7936L7.48687 12.7936C6.40538 13.2733 5.2428 13.7889 3.71658 14.2753C2.07787 14.8191 0.615038 16.8 0.695294 18.5162C0.85511 21.145 1.44114 23.8864 2.37008 26.3507C2.99862 27.9501 5.14335 29.1591 6.86116 28.9853C7.2981 28.936 7.73222 28.8724 8.16625 28.8089C8.33431 28.7842 8.50236 28.7596 8.67056 28.7359L9.45831 32.4209C9.59575 33.0638 10.4617 33.2205 10.8292 32.6643L14.3404 27.5712C16.0026 27.1825 17.6534 26.7458 19.2867 26.2255C20.9253 25.6814 22.4103 23.8005 22.3292 22.084C22.2473 20.7365 21.0932 20.6076 19.8625 20.4702C18.6922 20.3395 17.4528 20.2011 17 19L14 16.5ZM8.64202 23.0001C8.64202 24.1046 7.74659 25.0001 6.64202 25.0001C5.53745 25.0001 4.64202 24.1046 4.64202 23.0001C4.64202 21.8955 5.53745 21.0001 6.64202 21.0001C7.74659 21.0001 8.64202 21.8955 8.64202 23.0001ZM11.642 22.0001C12.7466 22.0001 13.642 21.1046 13.642 20.0001C13.642 18.8955 12.7466 18.0001 11.642 18.0001C10.5375 18.0001 9.64202 18.8955 9.64202 20.0001C9.64202 21.1046 10.5375 22.0001 11.642 22.0001Z" fill="#4A4E74"/>
<path fill-rule="evenodd" clip-rule="evenodd" d="M13.3345 6.66428L13.3287 6.68372C12.5149 9.41507 12.095 12.4017 12.1241 15.2515L12.1243 15.2718L12.1247 15.2921C12.1655 17.0082 12.9606 18.4975 13.8783 19.5532C14.8024 20.6163 16.1026 21.5355 17.6048 21.9186L17.6226 21.9231L17.6405 21.9275C18.9751 22.2505 20.3073 22.5182 21.6311 22.7488L25.073 26.8388C25.1893 26.9883 25.3673 27.2074 25.5807 27.4129C25.7046 27.5323 25.9173 27.7228 26.2089 27.8991C26.4884 28.068 27.021 28.3341 27.741 28.3587C29.6418 28.4235 30.4937 26.9459 30.6984 26.4956C30.9041 26.0431 30.9802 25.6025 31.0133 25.3759L31.2851 23.7915C32.5753 23.6576 33.7784 23.1451 34.7368 22.4952C35.8949 21.7098 37.0486 20.482 37.5539 18.8686L37.5602 18.8486L37.5662 18.8286C38.3799 16.0972 38.7998 13.1106 38.7708 10.2608L38.7705 10.2398L38.77 10.2188C38.7291 8.52889 37.9587 7.03061 37.0623 5.95639C36.1615 4.87682 34.8578 3.89224 33.3031 3.4961L33.2858 3.49168L33.2684 3.48748C29.067 2.47012 24.8044 1.8708 20.4854 1.69023L20.4675 1.68949L20.4497 1.68895C18.8464 1.64104 17.3216 2.22762 16.1578 3.01693C14.9997 3.80229 13.8454 5.0305 13.3405 6.64492L13.3345 6.66428ZM28.0495 24.9093C27.9609 25.5396 27.8015 25.4668 27.4085 24.9549L23.2151 19.9718C21.5832 19.7105 19.9591 19.402 18.3462 19.0116C16.7264 18.5986 15.1634 16.8841 15.1239 15.2209C15.0979 12.6714 15.4758 9.98384 16.2038 7.54032C16.7003 5.95253 18.6893 4.63769 20.3601 4.68761C24.4833 4.86 28.5514 5.43197 32.5623 6.40321C34.1821 6.81593 35.7307 8.6285 35.7709 10.2914C35.7969 12.8409 35.4191 15.5285 34.6911 17.972C34.1938 19.5597 32.2056 20.8743 30.5348 20.8243C30.1094 20.8066 29.6858 20.775 29.2623 20.7434C29.0984 20.7312 28.9344 20.719 28.7703 20.7076L28.0495 24.9093ZM25.0787 24.4917L25.0799 24.4836C25.0721 24.5237 25.0733 24.5303 25.0787 24.4917Z" fill="#4A4E74"/>
<circle cx="25.642" cy="12" r="2" fill="#4A4E74"/>
<circle cx="19.642" cy="13" r="2" fill="#4A4E74"/>
<circle cx="31.642" cy="14" r="2" fill="#4A4E74"/>
</svg>