<svg xmlns="http://www.w3.org/2000/svg" class="cv-bx reveal tween2-2 cv_af" width="574" height="439" fill="none" data-reveal="in-fade"><path d="M573 1c-15.543 26.053-61.97 33.985-59.096 109.078.274 18.024 3.199 35.81 8.081 53.194 5.49 19.55 14.898 38.426 17.925 58.547 3.07 20.407 2.752 41.818 2.276 62.369-.613 26.496-7.954 49.698-23.616 71.872-14.402 20.391-36.968 34.681-58.556 47.187-23.394 13.552-47.779 27.278-75.116 31.676-29.378 4.727-58.273 2.078-87.407-2.403-34.614-5.324-68.768-5.298-103.683-6.772-29.534-1.247-58.84-5.959-88.204-9.012-19.472-2.023-41.243-5.602-60.776-1.693C31.82 417.647 22.798 422.266 10.5 427m0 0c-13 9-45.114 218.778 0 0z" stroke="#F3BF99" stroke-width="2" stroke-linecap="round" stroke-linejoin="round" stroke-dasharray="4 8 4 8"/></svg>