<svg xmlns="http://www.w3.org/2000/svg" class="cv-gb cv_af" width="30" height="33" viewBox="0 0 30 33" fill="none">
<path fill-rule="evenodd" clip-rule="evenodd" d="M10.8319 17.0843C9.99398 16.249 8.63564 16.249 7.79768 17.0843C6.95918 17.9207 6.95918 19.2731 7.79768 20.1095L12.4097 24.7081C12.8131 25.1104 13.3593 25.3347 13.9274 25.3347H13.9982C14.5926 25.3138 15.1511 25.0498 15.5416 24.6056L23.373 15.8322C24.1535 14.9427 24.0634 13.593 23.1718 12.8146C22.2781 12.0372 20.924 12.1284 20.1434 13.0147L13.8222 20.1304L10.8319 17.0843ZM29.0574 4.72571C26.2742 4.38612 23.4036 4.16402 20.4498 4.0342C20.5378 5.38986 20.7051 6.79701 21.0072 8.11941C22.6048 8.19988 24.204 8.30718 25.7506 8.45256V28.0525C23.0629 28.3845 18.7942 28.8207 15.0003 28.8207C11.2059 28.8207 6.93719 28.3845 4.24948 28.0525V8.45256C5.79612 8.30718 7.39533 8.19988 8.99294 8.11941C9.29497 6.79701 9.46235 5.38986 9.55033 4.0342C6.59653 4.16402 3.72588 4.38612 0.942683 4.72571C0.404604 4.79062 0.000106812 5.24769 0.000106812 5.78684V30.6377C0.000106812 31.1634 0.384219 31.6119 0.906203 31.6945C1.21628 31.7428 8.55303 32.8828 15.0003 32.8828C21.4471 32.8828 28.7838 31.7428 29.0939 31.6945C29.6159 31.6119 30 31.1634 30 30.6377V5.78684C30 5.24769 29.596 4.79062 29.0574 4.72571ZM11.8883 11.4096H18.1118C18.4568 11.4096 18.7803 11.2449 18.9825 10.9664C19.1837 10.6864 19.2395 10.328 19.1295 10.0024C18.1258 6.99817 17.7916 1.83572 17.7916 1.7853C17.7916 1.19357 17.3104 0.715576 16.7186 0.715576H13.2815C12.6897 0.715576 12.2085 1.19357 12.2085 1.7853C12.2085 1.83572 11.8743 6.99817 10.8706 10.0024C10.7606 10.328 10.8164 10.6864 11.0176 10.9664C11.2198 11.2449 11.5433 11.4096 11.8883 11.4096Z" fill="#4A4E74"/>

</svg>