<svg xmlns="http://www.w3.org/2000/svg" class="cv-fd cv_af" width="32" height="31" viewBox="0 0 32 31" fill="none">
<path fill-rule="evenodd" clip-rule="evenodd" d="M26.883 10.8539C26.5006 10.4714 26.8632 9.68905 27.3927 9.57889C28.227 9.40533 29.0218 8.99476 29.6694 8.34718C31.4388 6.57781 31.4388 3.70908 29.6694 1.93971C27.9 0.170329 25.5 -0.499939 23.2619 1.93971C22.6144 2.58728 22.2038 3.38211 22.0302 4.21641C21.9201 4.74592 21.1377 5.10856 20.7552 4.72612L16.5865 0.557395C16.196 0.16687 15.5628 0.166871 15.1723 0.557395L10.8242 4.90549C10.4173 5.31242 10.8959 6.3979 11.4446 6.57159C12.0934 6.77702 12.8034 7.12711 13.5967 7.61716C13.6324 7.63919 13.6661 7.66584 13.6953 7.69591C15.339 9.38813 15.1012 11.8987 13.5 13.4999C11.8845 15.1154 9.49285 15.1934 7.8004 13.501C7.19126 12.8918 6.79328 12.1545 6.60869 11.385C6.47229 10.8163 5.42893 10.3008 5.0154 10.7143L1.06067 14.669C0.474881 15.2548 0.474881 16.2046 1.06067 16.7904L13.8259 29.5556C14.9707 30.7004 16.8172 30.7304 17.9985 29.6234L24 23.9999L30.7647 16.7893C31.3188 16.1987 31.3041 15.275 30.7315 14.7023L26.883 10.8539Z" fill="#4A4E74"/>

</svg>