<svg xmlns="http://www.w3.org/2000/svg" class="cv-fj cv_af" width="35" height="35" viewBox="0 0 35 35" fill="none">
<path fill-rule="evenodd" clip-rule="evenodd" d="M22.3843 25.0147C22.9174 25.5484 23.9085 25.729 24.668 24.9706C25.3392 24.2988 25.3977 23.361 24.7265 22.6892L23.0871 21.0401L20.7536 23.3754L22.3843 25.0147ZM34.2664 32.674C32.8741 28.6856 31.6325 24.68 30.3044 20.6045C30.2207 20.3465 30.0774 20.1127 29.8859 19.9212L27.0462 17.0775L24.7626 19.3635L27.166 21.7876C27.6756 23.3484 28.2058 24.9271 28.7429 26.5045L26.2002 29.0501C24.6302 28.5113 22.8292 27.9777 21.27 27.4629L18.9703 25.1598L16.7468 27.3855L19.4713 30.114C19.6616 30.3049 19.8943 30.4476 20.1505 30.5325C24.2364 31.8749 28.336 33.2363 32.302 34.6338C33.4387 35.0316 34.7548 34.0697 34.2664 32.674ZM17.1555 15.0965L7.62419 5.50789C8.23065 5.01034 8.84685 4.3758 9.47336 3.93787L18.843 13.3924L17.1555 15.0965ZM13.017 19.199L3.57678 9.74675C4.05369 9.06406 4.60397 8.33895 5.18234 7.71186L14.818 17.4043L13.017 19.199ZM32.8729 5.13185L30.9567 3.10212C30.2935 2.4372 29.8424 2.71177 29.3024 3.25001L21.1095 11.2228L10.9156 0.926795C10.3555 0.364477 9.48312 0.260153 8.8033 0.676303C5.28838 2.83271 2.40572 5.48839 0.253319 9.00617C-0.162257 9.68428 -0.0579335 10.5584 0.503238 11.1202L10.7889 21.4196L2.7634 29.4199C2.13975 30.0441 2.17013 30.6213 2.64876 31.0999L4.82179 33.2747C5.41621 33.8685 5.93611 33.6788 6.5225 33.093L32.8729 6.65258C33.3418 6.18197 33.3418 5.60246 32.8729 5.13185Z" fill="#4A4E74"/>

</svg>