<svg xmlns="http://www.w3.org/2000/svg" class="cv-gp reveal tween2-3 cv_af" width="363" height="198" viewBox="0 0 363 198" fill="none" data-reveal="in-north" loading="lazy" alt="Illustration of people who are reading a note">
<path fill-rule="evenodd" clip-rule="evenodd" d="M63.2901 88.1379C65.3486 87.5698 67.715 87.636 69.8269 87.7812C71.9717 87.9288 74.2731 88.182 76.2857 88.9802C78.0352 89.6742 79.5106 90.8412 80.4096 92.5135C81.1486 93.8882 81.4953 95.3958 81.7125 96.9272C81.8013 97.5539 81.8757 98.182 81.9464 98.8108L82.0918 100.119C82.1488 100.619 82.1985 100.994 82.2983 101.552C82.5745 103.096 82.9591 104.385 83.8178 105.508C85.8973 108.227 89.2929 109.137 92.3807 110.298C94.3566 111.04 95.9213 112.376 96.3554 114.522C96.7742 116.593 112.699 133.965 114.262 135.429L114.305 135.469C115.518 136.557 115.375 138.603 115.545 140.097C115.726 141.698 115.899 143.301 116.064 144.904C116.397 148.162 116.695 151.423 116.956 154.686C117.975 167.45 118.438 180.258 118.34 193.062L118.334 193.787C118.319 195.412 118.331 197.044 118.258 198.668C118.187 200.228 117.714 201.789 116.263 202.604C114.92 203.359 113.221 203.293 111.719 203.368L111.629 203.373C110.018 203.461 108.406 203.533 106.794 203.592C100.24 203.834 93.6804 203.86 87.1229 203.83C74.1138 203.77 61.0918 203.485 48.095 204.211C44.782 204.396 34.2201 203.272 30.9175 203.592C27.7609 203.899 30.4693 205.442 28.5192 205.34C22.1061 205.006 16.023 203.579 9.87862 201.861C9.11107 201.647 8.52411 200.904 8.53375 200.101C8.64787 191.285 8.89754 182.472 9.28767 173.663C9.63522 165.817 10.0932 157.976 10.6613 150.143C10.9083 146.738 11.1761 143.334 11.4646 139.933L11.5896 138.475C11.7525 136.595 11.8463 134.68 12.2171 132.827C12.584 130.993 13.4162 129.403 14.6229 127.983C15.7056 126.708 27.9649 116.731 30.9175 114.842C33.7435 113.034 36.7111 111.508 39.6124 109.832C40.8194 109.135 41.9786 109.386 43.0098 108.53C43.5534 108.079 51.4413 105.039 53.5695 104.036L53.6322 104.007C55.2611 103.228 56.76 102.383 57.8855 101.036C58.2628 100.584 59.0028 97.7396 59.0042 96.8307C59.0068 95.207 58.8833 93.4965 59.3747 91.9237C59.9623 90.0428 61.3785 88.6652 63.2901 88.1379ZM66.7813 130.004L54.177 154.473L62.373 154.473L56.4981 168.068L69.3998 168.068L64.8232 187.111L90.9956 154.473L81.1743 154.473L90.9956 141.623L84.1838 141.623L90.9956 130.74L66.7813 130.004Z" fill="white"/>
<path fill-rule="evenodd" clip-rule="evenodd" d="M109.121 143.763C109.092 143.792 109.062 143.821 109.033 143.851C109.066 143.804 109.095 143.755 109.121 143.707L109.121 143.763ZM84.6246 136.636C83.4926 138.077 82.2948 141.01 81.195 142.478C81.0372 142.688 80.8825 142.899 80.7293 143.111C80.2729 143.748 80.8825 144.722 81.6331 144.681C83.1326 144.601 84.6307 144.49 86.1287 144.377C83.0515 147.796 80.4965 152.042 77.6705 155.664C77.479 155.907 77.2906 156.151 77.1022 156.395C76.3869 157.325 77.1037 157.747 78.081 157.496C78.2832 157.444 78.4854 157.392 78.6875 157.342C80.109 156.979 81.5289 156.615 82.9504 156.253C83.7361 156.052 84.5265 155.803 85.323 155.649C85.6508 155.586 85.9648 155.638 86.2742 155.655C86.1257 155.881 85.9173 156.288 85.876 156.351C85.4119 157.072 84.9447 157.789 84.4744 158.504C83.5585 159.894 82.6379 161.281 81.6836 162.645C77.9615 167.962 73.9468 173.037 69.9674 178.16C68.9656 179.448 67.9501 180.724 66.9177 181.986C66.9223 181.979 66.9254 181.971 66.9299 181.963C67.8597 180.158 68.7895 178.355 69.7192 176.55C71.4869 173.121 73.2376 169.683 75.0236 166.262C75.1155 166.084 75.209 165.906 75.3024 165.728C75.6731 165.019 75.065 164.283 74.3037 164.433C70.5899 165.162 66.912 166.059 63.2798 167.12C63.1164 167.294 62.8761 167.344 62.6615 167.302C62.5155 167.346 62.3689 167.388 62.2229 167.432C62.2672 167.34 62.313 167.25 62.3576 167.159C62.2091 167.03 62.1353 166.831 62.2318 166.583C64.3219 161.207 67.1874 156.017 70.5827 151.264C70.446 151.267 70.3097 151.269 70.1726 151.273C66.4459 151.373 62.7897 151.906 59.1977 152.918C59.1809 152.587 59.3815 152.074 59.4903 151.83C59.9253 150.854 60.4247 149.901 60.8918 148.941C61.8476 146.968 62.8034 144.997 63.7592 143.024C64.6936 141.097 65.6203 139.164 66.4995 137.21C66.9606 136.185 67.4216 135.159 67.8811 134.133C68.2564 133.298 68.552 132.456 68.863 131.602C69.7759 131.869 81.4983 131.927 84.3473 132.124C85.0458 132.173 85.7458 132.217 86.4458 132.255C87.0033 132.287 87.7891 132.409 88.1736 131.907L88.3191 132.029C87.0539 133.537 85.8408 135.087 84.6246 136.636ZM38.8589 108.607C38.917 108.581 38.9736 108.555 39.0302 108.529C39.0592 108.57 39.0944 108.608 39.1311 108.646C39.2229 108.739 39.3131 108.84 39.4079 108.932C39.2244 108.825 39.0409 108.716 38.8589 108.607ZM120.782 194.418C120.676 192.193 120.558 189.968 120.432 187.744C120.184 183.395 119.929 179.047 119.587 174.704C118.893 165.905 118.247 157.108 117.207 148.34C116.77 144.665 116.16 141.018 115.549 137.368C115.627 137.298 115.707 137.228 115.785 137.159C115.701 138.157 117.061 138.79 117.735 137.794C117.786 137.719 117.835 137.645 117.884 137.567C118.467 136.626 119.812 132.012 119.719 131.621C119.55 130.917 119.081 130.291 118.715 129.671C118.395 129.129 118.072 128.587 117.744 128.05C117.09 126.973 116.416 125.907 115.71 124.864C114.247 122.705 112.648 120.632 110.764 118.819C108.814 116.941 106.576 115.397 104.265 113.997C103.154 113.325 102.009 112.716 100.842 112.148C99.6897 111.589 98.429 110.971 97.1883 110.653C97.1179 110.635 97.0459 110.733 97.1102 110.785C97.4395 111.044 97.7842 111.289 98.135 111.524C97.1853 111.196 96.2065 110.959 95.2201 110.875C93.31 110.206 91.3769 109.594 89.4761 108.896C87.6073 108.209 85.7662 107.436 84.524 105.809C83.4625 104.417 82.7916 102.715 82.2754 101.057C81.7086 99.2292 81.4835 97.3296 80.9596 95.4988C80.9182 95.3507 80.6747 95.3339 80.6425 95.4988C80.2688 97.4197 80.2856 99.5789 80.4985 101.518C80.7222 103.552 81.2966 105.548 82.5465 107.201C83.9986 109.124 85.9684 110.194 88.1848 111.047C89.9723 111.738 91.7828 112.44 93.6133 113.057C93.3743 113.213 93.1323 113.368 92.8826 113.516C91.8901 114.104 90.8577 114.627 89.8023 115.095C87.8754 115.952 85.8458 116.593 83.804 117.114C80.0038 118.079 76.1071 118.569 72.1889 118.633C64.3495 118.763 56.4227 117.126 49.2527 113.965C47.2338 113.075 45.2625 112.096 43.3111 111.069C42.7014 110.748 42.0887 110.424 41.4791 110.091C41.5297 110.089 41.5817 110.084 41.6323 110.079C42.994 109.951 44.3389 109.69 45.6561 109.321C48.3535 108.562 50.9391 107.378 53.4787 106.213C55.6323 105.225 57.8503 104.1 59.1661 102.042C59.8691 100.941 60.1923 99.6491 60.4542 98.3848C60.7468 96.977 61.0915 95.563 61.3044 94.1416C61.3794 93.6438 61.2676 92.9704 60.7315 92.7353C60.517 92.642 60.3409 92.5657 60.1004 92.5657C59.5689 92.5657 59.0236 92.9506 58.8965 93.4789C58.5825 94.7966 58.3925 96.151 58.1459 97.4823C57.933 98.6336 57.7385 99.8354 57.1151 100.848C56.026 102.62 53.8908 103.527 52.0864 104.39C49.7995 105.483 47.5111 106.549 45.1354 107.436C44.0892 107.827 43.0246 108.181 41.9448 108.471C41.9876 108.207 41.9509 107.929 41.7946 107.72C41.5342 107.375 41.2386 107.146 40.9032 106.882C40.5386 106.595 40.0485 106.445 39.618 106.572C39.618 106.573 39.6165 106.572 39.6165 106.572C39.4419 106.534 39.2489 106.549 39.0498 106.639C38.434 106.92 37.8198 107.204 37.2056 107.493C28.369 111.637 19.7836 116.504 13.2814 123.918C12.344 124.986 11.4663 126.11 10.6437 127.269C9.84416 128.395 8.85466 129.616 8.63409 131.012C8.61571 131.128 8.78573 131.181 8.81483 131.062C8.86691 130.847 8.93737 130.636 9.02468 130.431C8.8424 131.067 8.85313 131.742 9.11046 132.406C9.41527 133.187 9.97436 133.705 10.6805 133.911C9.9713 137.009 9.49493 140.149 9.11199 143.323C8.5621 147.896 8.17151 152.48 7.87742 157.076C7.28923 166.248 7.02731 175.466 7.21724 184.655C7.27085 187.252 7.35969 189.849 7.49449 192.445C7.56188 193.743 7.63541 195.039 7.71965 196.337C7.80237 197.614 7.73497 199.02 8.85161 199.693C8.86539 199.744 8.88071 199.793 8.8945 199.843C9.16561 200.785 10.3742 200.483 10.4875 199.628C10.489 199.619 10.4906 199.608 10.4921 199.599C11.405 198.904 11.2672 197.747 11.1998 196.636C11.1278 195.438 11.0512 194.241 10.9868 193.044C10.8643 190.747 10.7601 188.451 10.6667 186.153C10.4844 181.609 10.3818 177.059 10.3481 172.511C10.2807 163.416 10.8076 154.334 11.4326 145.264C11.6945 141.469 12.0008 137.692 12.0943 133.899C12.5829 133.645 12.733 132.925 12.4879 132.439C18.2748 136.376 23.6451 141.082 27.9569 146.551C28.6769 147.464 29.3646 148.405 30.0233 149.362C30.2377 149.673 30.4414 149.997 30.6467 150.321C30.4475 151.223 30.2928 152.141 30.0907 153.007C29.674 154.795 29.4979 156.65 29.2589 158.467C28.7734 162.158 28.4318 165.881 28.1423 169.592C27.5725 176.919 27.1497 184.246 27.0165 191.595C26.9429 195.751 26.8449 199.933 27.0287 204.088C26.8924 204.9 27.6261 205.694 28.3935 205.796C29.0659 205.886 29.6939 205.538 29.988 204.978C32.0835 205.237 34.234 205.357 36.3156 205.372C39.1202 205.392 41.9249 205.389 44.7295 205.329C50.3402 205.207 55.9494 205.064 61.5586 204.897C72.7771 204.567 83.9955 204.236 95.2155 203.905C98.3264 203.813 101.437 203.721 104.548 203.63C105.951 203.589 107.701 203.991 108.807 202.912C108.997 202.726 109.144 202.507 109.248 202.274C109.579 202.356 109.984 202.275 110.202 202.02C110.608 201.542 110.907 201.1 110.891 200.437C110.877 199.817 110.706 199.164 110.617 198.55C110.449 197.397 110.286 196.244 110.132 195.09C109.827 192.808 109.542 190.524 109.28 188.238C108.744 183.565 108.257 178.88 107.877 174.191C107.123 164.918 106.91 155.596 106.936 146.295C106.939 145.462 106.944 144.63 106.949 143.798C106.984 143.842 107.022 143.883 107.063 143.919C107.097 143.948 107.131 143.977 107.165 144.007C107.557 144.351 108.209 144.528 108.679 144.203C109.257 143.83 109.655 143.271 110.105 142.766C110.579 142.236 111.066 141.72 111.558 141.207C112.51 140.214 113.495 139.263 114.5 138.322C114.581 138.248 114.662 138.171 114.744 138.098C114.75 141.059 114.747 144.018 114.826 146.977C114.946 151.373 115.185 155.764 115.404 160.154C115.839 168.847 116.289 177.536 116.723 186.227C116.844 188.654 116.958 191.082 117.079 193.508C117.141 194.722 117.2 195.936 117.259 197.15C117.289 197.806 117.32 198.464 117.351 199.121C117.384 199.826 117.34 200.58 117.579 201.251C118.123 202.784 120.472 203.001 120.924 201.251C121.208 200.153 120.99 198.882 120.939 197.756C120.887 196.644 120.835 195.531 120.782 194.418Z" fill="#2B283A"/>
<path fill-rule="evenodd" clip-rule="evenodd" d="M76.9392 29.0498C85.9271 29.0498 97.1842 39.292 100.479 43.6505C103.249 47.3149 102.857 66.1926 102.857 77.3909C102.857 79.7329 101.797 84.1655 101.412 86.4058C100.003 94.6151 93.8605 101.5 81.7039 101.5C71.8056 101.5 64.1882 98.3679 56.822 90.3572C55.1415 88.5297 46.9343 95.0722 45.2558 92.7161C40.8717 92.7161 37.2058 51.7956 45.8135 39.5218C54.4212 27.248 67.9513 29.0498 76.9392 29.0498Z" fill="white"/>
<path fill-rule="evenodd" clip-rule="evenodd" d="M49.9236 31.932C55.1171 27.2119 62.0361 24.9411 69.0167 25.1087C72.6321 25.1957 76.2348 25.8836 79.6492 27.0616C81.3571 27.653 83.0113 28.4247 84.5926 29.2976C85.1625 29.6114 85.6878 29.9791 86.1936 30.3697L86.3196 30.4678L86.3212 30.4678C87.6777 30.9548 88.8887 31.8292 89.9872 32.8523C92.1891 32.6768 94.4083 32.8745 96.5373 33.5529C99.5006 34.4985 102.244 36.23 104.17 38.6889C106.414 41.5516 107.16 45.0239 106.894 48.6085L106.845 49.2174C106.582 52.3839 106.11 56.4568 103.509 58.5374C103.311 58.6955 103.092 58.8157 102.866 58.8884C104.542 61.7569 105.918 64.9416 106.741 68.158C109.883 80.4431 107.467 93.2548 103.689 105.096C103.379 106.071 101.902 106.72 101.15 105.766C99.8076 104.061 97.8575 102.762 95.6636 102.518C94.3102 102.368 92.9631 102.64 91.6841 102.026C91.1823 101.784 90.698 101.389 90.3497 100.908C88.1906 101.726 85.8653 102.112 83.559 102.017C79.7742 101.862 75.7283 100.552 73.1244 97.6808C72.7065 97.2199 72.6006 96.7023 72.6969 96.2359C73.0234 96.1195 73.3587 96.0328 73.7041 95.9786C77.006 97.9226 80.6458 99.2217 84.5575 99.3033C86.8178 99.3504 89.0224 99.0346 90.8551 97.6247C91.2517 97.3195 91.6164 96.9816 91.9535 96.6185C95.7853 94.1561 98.4869 89.9737 99.7712 85.4938C100.968 81.316 100.821 76.9658 100.409 72.6805L100.192 70.4192C99.8755 67.1002 99.5819 63.7712 99.4996 60.4381L99.5245 60.4368C100.334 60.3846 100.339 59.1191 99.5245 59.1718C97.4162 59.3081 95.3239 58.9626 93.2221 59.1131C93.2045 58.1205 93.1329 57.1324 92.8409 56.1751C92.6742 55.6281 91.7208 55.5203 91.6198 56.1751C91.4847 57.0511 91.4353 57.9223 91.4205 58.8022C88.2751 58.7605 85.1327 58.4961 81.9868 58.6047C81.4065 57.9865 81.2218 56.8901 80.9503 56.1275C80.9108 56.0152 80.8712 55.9045 80.83 55.7922C80.5915 56.8821 80.2534 57.948 79.8086 58.9915L79.0371 58.9941C74.6595 59.0147 70.1929 59.1454 65.9183 60.0535C65.6212 59.8257 65.4444 59.4281 65.3966 59.0671C65.0865 56.718 64.644 54.4313 63.8597 52.1926L63.7475 51.8768C63.7383 51.8506 63.7287 51.8227 63.7185 51.7935C63.1406 52.7253 62.4511 53.5939 61.6991 54.4028C61.2558 54.8795 60.7911 55.3354 60.3142 55.7783C59.8508 56.2923 59.372 56.7984 58.9079 57.3139C58.9261 57.4077 58.9419 57.5029 58.9548 57.5998C59.0967 58.6696 59.1115 59.7545 59.0075 60.8284C58.8194 62.7697 58.2708 64.6404 57.3894 66.371L57.3615 66.5443C57.2277 67.3553 57.0373 68.1934 56.5926 68.8041C57.1475 69.4253 57.5751 70.1672 57.823 70.9915C58.0436 71.7254 57.0272 72.3614 56.5001 71.7608C56.0814 71.2838 55.6162 70.8889 55.1053 70.5739C55.073 70.6177 55.0147 70.6392 54.9493 70.6027C53.5263 69.8136 51.1092 70.0524 49.6877 70.7956C47.9196 71.7191 47.2294 73.6151 47.4257 75.5363C47.6141 77.3722 48.4182 79.5181 49.9774 80.4589C50.6929 80.8906 51.2501 80.927 52.0099 80.7198C52.2528 80.6539 52.554 80.4518 52.6833 80.3513L52.8105 80.2495C53.3086 79.8562 53.7725 79.5869 54.3605 79.5766C54.9619 79.3892 55.5663 79.6491 55.7963 80.2791L55.8104 80.3198C55.9181 80.6408 56.1144 81.044 56.0716 81.5342C56.0273 82.0592 55.7867 82.5367 55.4274 82.921C55.3656 82.9874 55.2992 83.0538 55.2311 83.1155C61.4203 89.8091 62.2149 100.239 59.0412 108.601C58.9035 108.968 58.7563 109.33 58.6027 109.689C58.0724 110.919 56.0305 110.538 55.7709 109.319C55.6933 108.954 55.6078 108.59 55.5144 108.23C55.3428 107.563 55.1461 106.903 54.9244 106.253L54.8401 106.01C54.6518 105.472 54.4761 104.93 54.2861 104.392L54.2671 104.33C54.26 104.306 54.2521 104.278 54.2434 104.246L53.922 104.947L52.9454 107.061C52.4884 108.048 51.0363 107.512 50.9823 106.561L50.981 106.528C50.9762 106.353 50.9699 106.179 50.9588 106.006C50.8892 104.714 50.666 103.459 50.3114 102.23L50.1835 102.389C48.2786 104.742 46.043 106.947 42.9762 107.49C42.2069 107.626 41.3363 106.822 41.8649 106.046C42.0834 105.725 42.2939 105.396 42.4934 105.062C42.3208 104.982 42.1578 104.898 42.0074 104.812C40.844 104.159 39.8752 103.23 39.0743 102.175C37.3758 99.9389 36.7679 97.1242 36.6192 94.3696C36.4609 91.4584 36.7173 88.3891 37.5135 85.5808C37.8586 84.3663 38.3255 83.2009 38.8653 82.0703C38.8273 81.9691 38.7909 81.8679 38.7545 81.7667C38.172 80.1442 37.694 78.4855 37.2966 76.8077C36.4957 73.4206 36.0651 69.9259 36.0129 66.4455C35.9179 60.2104 36.9943 53.8757 39.2626 48.0613C41.6053 42.065 45.1289 36.2885 49.9236 31.932ZM47.0064 86.4467C46.5762 85.7701 45.4998 86.3798 45.8993 87.0612L45.9142 87.0856C46.5964 88.1593 46.9161 89.38 47.3087 90.5771C47.5604 91.3472 48.784 91.0182 48.5291 90.2402L48.4448 89.9805C48.0541 88.7666 47.6978 87.533 47.0064 86.4467ZM50.7528 73.5288L51.0386 73.3906C51.9401 72.9608 52.73 72.6681 53.7952 73.0433C55.2214 73.5446 56.7489 75.1401 55.7849 76.6882C55.4304 77.2591 54.8004 77.4868 54.1514 77.3524C53.0572 77.1257 52.7749 76.1414 52.2197 75.3335L52.1241 75.1966C51.7856 74.7077 51.3576 74.0319 50.794 73.8403C50.6658 73.796 50.612 73.5968 50.7528 73.5288ZM51.559 40.66L51.6511 40.5776C52.2637 40.0368 51.3646 39.1449 50.7551 39.6826C47.966 42.1447 46.9973 45.9983 45.5505 49.2826C45.226 50.0211 46.3166 50.6663 46.6443 49.9215C48.0244 46.7874 48.9405 43.0384 51.559 40.66ZM85.0743 39.5837C84.3455 39.2556 83.7079 40.3151 84.4086 40.664L84.4348 40.6764C86.8978 41.788 87.9457 44.3055 88.9493 46.6426C89.269 47.389 90.3597 46.7454 90.0431 46.0054L89.862 45.586C88.8148 43.1775 87.5935 40.7225 85.0743 39.5837ZM88.9341 38.0626C88.1616 37.7953 87.8308 39.0161 88.5969 39.2833C90.6848 40.0091 92.1173 41.5746 93.3251 43.3646C93.7778 44.0351 94.8747 43.4026 94.4173 42.7258C93.0148 40.648 91.3496 38.9038 88.9341 38.0626Z" fill="#2B283A"/>
<path fill-rule="evenodd" clip-rule="evenodd" d="M88.7539 75.8973C90.0315 76.6712 91.9782 78.4759 90.6038 80.3947C88.986 82.0865 86.6567 80.1467 85.5088 79.2694C84.4445 78.5895 83.2487 80.3382 84.2361 81.1321C92.5305 87.252 95.8965 76.0997 89.4001 74.9873C88.6848 74.8647 88.4192 75.6579 88.7539 75.8973ZM77.2122 61.136L77.5298 61.0806L77.6926 61.0531C78.6442 60.8963 79.7721 60.7914 80.4294 61.5358C80.798 61.9532 80.9249 62.7292 80.4294 63.1288C79.5577 63.832 78.594 63.5595 77.5494 63.619C76.6886 63.6682 75.8612 63.8102 75.032 64.0464C73.2129 64.5646 71.7306 65.5105 70.1769 66.5492C69.9731 66.6854 69.7649 66.4256 69.8622 66.2356C70.7591 64.4848 72.4972 63.0467 74.2382 62.1701C75.1674 61.7022 76.1842 61.314 77.2122 61.136ZM85.6268 85.3232C88.4069 85.5244 94.4318 84.2017 96.9335 86.1857C106.362 97.9191 68.9827 100.936 73.0196 87.9546C75.5908 83.7573 81.5048 85.4443 85.6268 85.3232ZM85.1495 92.406C84.4619 92.3502 83.6274 92.8929 83.4256 93.3123C83.2237 93.7318 83.3017 94.6182 83.3078 94.7718C84.5099 94.8926 85.7225 94.9109 86.928 94.8322C86.6148 93.7998 86.6047 92.5623 85.1495 92.406ZM90.7004 94.1386C90.5072 92.8571 89.5875 92.5536 88.843 92.746C88.0815 92.9426 87.6345 93.8162 87.6829 94.594C87.6861 94.6477 87.655 94.6932 87.6345 94.7364C88.6696 94.6144 89.6951 94.4138 90.7004 94.1386ZM82.1752 92.6381C81.7417 91.9808 80.7059 91.6637 80.0425 91.7795C78.9592 92.0068 78.831 93.3786 78.831 93.6582C79.8297 94.0376 80.89 94.2895 81.9038 94.4902C82.1073 94.5303 82.3114 94.5662 82.5158 94.6001L82.5291 94.4335C82.5537 94.0766 82.572 93.2397 82.1752 92.6381ZM94.4305 92.531C93.3198 90.8184 90.9322 92.0445 91.1294 93.9155C91.3416 93.8489 91.5528 93.7792 91.7629 93.7062C92.6356 93.4031 93.5929 93.0427 94.4305 92.531ZM85.6856 86.6298C84.1913 86.4957 82.9656 86.5409 81.991 86.721L81.9615 87.0454C81.8536 88.1703 81.7145 89.2762 82.3072 89.7287C82.7886 90.0963 84.3863 90.0613 85.4576 89.7952C85.7222 89.7287 86.0661 87.3958 85.6856 86.6298ZM87.9957 86.4952C87.7562 87.6038 87.6435 88.9499 88.1244 89.3497C88.6322 89.7718 90.2668 89.7146 90.6943 89.4334C91.0684 89.1873 91.0588 88.0552 90.92 86.7842C90.0921 86.5898 88.6506 86.4952 87.9957 86.4952ZM81.3277 86.7312L80.8384 86.7356L80.5614 86.7393C79.8611 86.7517 79.1056 86.7919 78.3914 86.9472C76.9725 90.003 82.1541 90.5305 81.3538 86.8442L81.3277 86.7312ZM91.5794 86.8053L91.5704 86.9784C91.5279 87.8368 91.556 88.9671 92.0332 89.2723C92.7353 89.7214 94.0538 89.6347 94.768 87.5576C94.5317 86.938 92.0249 86.8507 91.5794 86.8053ZM77.8283 68.5837C78.1283 68.5837 78.4152 68.6852 78.6765 68.873C78.9337 69.0578 79.1665 69.3275 79.3605 69.664C79.7274 70.3006 79.9568 71.1796 79.9568 72.1516C79.9568 73.1236 79.7274 74.0026 79.3605 74.6392C79.1665 74.9757 78.9337 75.2454 78.6765 75.4302C78.4152 75.618 78.1283 75.7195 77.8283 75.7195C77.5282 75.7195 77.2413 75.618 76.98 75.4302C76.7228 75.2454 76.49 74.9757 76.296 74.6392C75.9291 74.0026 75.6997 73.1236 75.6997 72.1516C75.6997 71.1796 75.9291 70.3006 76.296 69.664C76.49 69.3275 76.7228 69.0578 76.98 68.873C77.2413 68.6852 77.5282 68.5837 77.8283 68.5837ZM96.8163 68.5837C97.1163 68.5837 97.4032 68.6852 97.6645 68.873C97.9217 69.0578 98.1545 69.3275 98.3485 69.664C98.7154 70.3006 98.9448 71.1796 98.9448 72.1516C98.9448 73.1236 98.7154 74.0026 98.3485 74.6392C98.1545 74.9757 97.9217 75.2454 97.6645 75.4302C97.4032 75.618 97.1163 75.7195 96.8163 75.7195C96.5162 75.7195 96.2293 75.618 95.968 75.4302C95.7108 75.2454 95.478 74.9757 95.284 74.6392C94.9171 74.0026 94.6877 73.1236 94.6877 72.1516C94.6877 71.1796 94.9171 70.3006 95.284 69.664C95.478 69.3275 95.7108 69.0578 95.968 68.873C96.2293 68.6852 96.5162 68.5837 96.8163 68.5837ZM94.2352 60.3523L94.4783 60.4019L94.6396 60.436C97.262 60.9982 100.587 62.1063 101.814 64.6438C101.862 65.0101 101.811 65.0885 101.77 65.1398L101.757 65.1569C101.723 65.2007 101.696 65.261 101.537 65.3109C101.493 65.3004 101.448 65.2893 101.403 65.2775C100.829 65.1275 100.374 64.9209 99.9343 64.7065L99.4573 64.4723C98.904 64.2019 98.3457 63.9414 97.7541 63.749C96.4916 63.3386 95.193 63.0495 93.8743 62.8951C93.5885 62.8617 93.3132 62.7656 93.0961 62.6008C92.89 62.4444 92.7325 62.2279 92.6607 61.94C92.5677 61.5676 92.5944 61.2856 92.795 60.9495C92.9458 60.6972 93.1615 60.5223 93.4093 60.4218C93.6618 60.3194 93.9494 60.2953 94.2352 60.3523Z" fill="#2B283A"/>
<path fill-rule="evenodd" clip-rule="evenodd" d="M141.886 118.619C143.343 112.987 144.683 110.599 147.271 108.642C149.692 106.811 153.225 105.273 158.381 104.15C163.752 103.214 163.904 100.432 165.25 95.9613C165.643 94.6172 167.59 94.2595 168.43 95.2283C168.548 95.1009 168.672 94.9842 168.8 94.8788C168.685 94.2377 169.622 92.4004 169.591 91.7872C169.264 85.387 171.364 82.173 176.607 80.9782C177.747 80.7183 185.492 80.5653 186.603 80.8716C191.463 82.2108 196.247 86.4627 195.515 91.5847C197.041 93.5716 198.534 94.7844 200.887 95.4246C206.125 96.0874 211.362 96.6768 216.601 97.1813C226.857 98.7844 236.472 104.195 243.044 112.085C243.65 112.813 243.825 113.802 243.29 114.579C243.709 116.367 246.068 120.707 244.212 121.933C247.264 129.209 254.287 143.271 254.3 147.289C254.356 164.167 252.526 186.135 235.816 195.475C235.147 196.131 235.051 196.856 234.761 197.832C234.027 200.904 231.358 203.1 228.438 202.921C214.052 203.24 200.118 201.491 185.731 201.406C179.387 201.368 171.757 202.312 166.245 202.941C160.734 203.57 155.17 203.014 149.881 201.406C149.435 202.106 148.534 202.513 147.619 202.312C142.136 201.227 137.702 197.859 133.84 194.178C132.66 192.039 128.051 185.942 129.883 183.82C128.223 176.824 128.309 169.306 131.26 162.643C130.842 161.422 131.604 160.08 131.26 158.819C131.011 157.906 130.373 157.528 130.052 156.625C129.6 155.353 130.091 153.647 130.6 152.349C130.809 151.702 130.216 151.006 130.052 150.346C129.271 147.233 131.059 147.508 132.347 145.427C132.328 145.42 131.993 143.935 131.994 143.942C131.797 142.881 132.291 141.522 132.722 140.637C133.013 140.039 133.638 139.664 134.258 139.733C133.633 137.62 132.843 135.862 131.994 133.826C130.492 130.238 128.591 126.802 126.434 123.554C125.551 122.224 126.737 120.683 128.167 120.593C132.793 120.3 137.368 119.636 141.886 118.619Z" fill="white"/>
<path fill-rule="evenodd" clip-rule="evenodd" d="M155.388 145.755C157.238 145.032 159.231 144.633 161.233 144.477C160.155 144.289 159.074 144.108 157.984 144.014C157.223 143.949 156.518 143.956 155.946 144.531C155.565 144.914 155.386 145.407 155.136 145.86C155.218 145.824 155.303 145.789 155.388 145.755ZM135.527 138.994C138.557 139.147 141.591 139.865 144.332 141.166C145.454 141.699 146.47 142.469 146.767 143.735C146.918 144.382 146.881 145.05 146.801 145.703C146.741 146.198 146.726 146.83 146.294 147.165C146.221 147.221 146.142 147.264 146.06 147.296C147.072 147.751 148.034 148.298 148.89 148.861C149.672 149.376 150.476 150.169 150.837 151.063C150.867 150.962 150.898 150.867 150.928 150.777C151.543 148.964 152.49 147.48 153.983 146.481C153.719 146.363 153.537 146.083 153.622 145.697C153.976 144.082 155.472 142.679 157.162 142.779C159.012 142.887 161 143.559 162.673 144.407C163.283 144.394 163.892 144.402 164.493 144.429C164.597 144.432 164.592 144.572 164.493 144.584C164.005 144.645 163.517 144.714 163.029 144.794C161.869 144.979 160.712 145.213 159.581 145.505C158.224 145.855 156.819 146.206 155.551 146.818C153.091 148.006 151.568 151.112 151.88 153.814C151.932 154.257 152.104 155.597 152.721 155.459C153.243 155.342 153.45 154.257 153.632 153.856C154.12 152.79 154.999 152.093 156.054 151.622C157.292 151.067 158.618 150.692 159.902 150.255C160.629 150.007 161.356 149.759 162.085 149.512C162.83 149.257 163.539 148.906 164.333 149.084C164.812 149.192 164.868 149.762 164.598 150.089C164.189 150.587 163.581 150.733 162.99 150.938C162.212 151.208 161.434 151.478 160.657 151.748C159.456 152.165 158.197 152.516 157.025 153.026L157.062 153.109C157.157 153.083 157.269 153.178 157.251 153.294C157.075 154.372 156.831 155.619 157.102 156.699C157.316 157.555 158.07 158.503 159.049 158.251C158.895 158.111 158.839 157.87 158.942 157.646C159.33 156.82 164.411 153.558 164.864 154.769C164.879 154.812 164.833 154.844 164.796 154.837C164.41 154.757 163.763 155.414 163.454 155.622C163.007 155.922 162.554 156.215 162.113 156.523C161.63 156.86 161.159 157.213 160.699 157.578C160.338 157.865 160.065 158.163 159.651 158.308C159.868 158.411 160.041 158.603 160.114 158.848C160.301 159.486 160.662 160.027 161.289 160.309C161.946 160.602 162.686 160.417 163.378 160.489C164.321 160.584 165.143 161.031 165.83 161.669C167.273 163.012 167.997 165.378 170.014 166.012C171.219 166.391 172.556 166.152 173.776 165.981C175.139 165.789 176.466 165.638 177.838 165.837C179.152 166.029 180.394 166.482 181.594 167.035C182.719 167.554 183.962 168.14 184.96 168.913C185.166 168.282 185.373 167.657 185.53 167.012C185.901 165.488 186.102 163.935 186.15 162.368C186.195 160.877 186.112 159.379 185.983 157.895C185.92 157.153 185.819 156.415 185.756 155.674C185.739 155.487 185.706 155.287 185.681 155.087C183.899 154.039 182.027 153.236 180.14 152.41C180.135 152.408 180.13 152.405 180.125 152.403C180.066 152.376 180.009 152.352 179.951 152.327C179.952 152.323 179.954 152.32 179.957 152.316C179.742 152.185 179.591 152.01 179.501 151.813C176.782 150.015 174.509 147.561 172.814 144.699C172.103 143.499 171.42 142.254 170.49 141.203C169.501 140.082 168.326 139.415 166.872 139.069C165.172 138.662 163.42 138.419 161.678 138.28C160.727 138.206 159.664 138.089 158.628 138.094C157.906 138.099 157.199 138.16 156.55 138.339C155.589 138.602 155.028 139.33 154.424 140.067C153.848 140.773 153.274 141.481 152.736 142.218C152.226 142.916 151.745 143.637 151.327 144.394C151.076 144.847 150.844 145.314 150.648 145.795C150.58 145.965 150.49 146.158 150.448 146.335C150.406 146.513 150.483 146.701 150.282 146.701C151.11 146.713 151.101 148.031 150.279 147.983C147.06 147.796 151.671 141.531 152.345 140.658C153.3 139.422 154.284 137.809 155.812 137.234C155.833 137.226 155.857 137.218 155.878 137.211C155.434 136.791 155.083 136.288 154.747 135.776C154.401 135.25 153.988 134.646 153.874 134.022C153.802 133.624 154.299 133.397 154.535 133.745C154.877 134.253 155.043 134.896 155.298 135.455C155.559 136.021 155.877 136.556 156.127 137.127C156.731 136.942 157.383 136.858 158.046 136.829C157.209 135.7 155.778 133.52 155.606 133.24C154.814 131.944 154.06 130.608 153.34 129.27C152.561 127.82 151.894 126.311 151.148 124.844C150.725 124.013 150.299 123.175 149.829 122.368C149.667 122.092 149.493 121.815 149.296 121.564C149.258 121.514 149.209 121.472 149.164 121.425C149.112 121.397 149.059 121.365 149.029 121.349C148.758 121.194 148.663 120.834 148.472 120.605C148.168 120.237 147.81 120.194 147.352 120.189C146.376 120.179 145.397 120.217 144.422 120.244C142.99 120.284 141.559 120.341 140.128 120.416C139.695 120.439 139.264 120.462 138.831 120.489C136.75 120.612 134.671 120.774 132.597 120.972C130.761 121.147 128.926 121.432 127.089 121.569C129.576 127.459 132.334 133.242 135.457 138.824C135.488 138.88 135.512 138.937 135.527 138.994ZM149.326 154.168C149.727 154.351 150.116 154.58 150.479 154.84C150.419 154.435 150.404 154.008 150.421 153.58C150.121 153.9 149.739 154.083 149.326 154.168ZM132.2 144.036C132.229 144.04 132.255 144.055 132.269 144.083C132.824 145.224 132.592 146.499 131.685 147.394C131.211 147.86 130.176 148.387 130.21 149.153C130.238 149.773 130.915 150.293 131.204 150.804C131.473 151.281 131.573 151.804 131.358 152.321C131.082 152.982 130.311 153.245 130.047 153.895C129.713 154.72 130.256 155.715 130.637 156.433C130.992 157.098 131.45 157.762 131.754 158.465C133.791 159.517 135.615 161.13 137.183 162.768C138.899 164.559 140.372 166.666 143.098 166.613C143.371 166.608 143.578 166.752 143.702 166.95C144.46 166.985 145.221 167 145.98 167.003C147.314 167.01 148.647 166.996 149.98 166.955C150.073 166.633 150.005 166.197 150.01 165.925C150.026 165.05 150.035 164.177 150.071 163.302C150.081 163.059 150.092 162.814 150.102 162.571C149.622 163.436 148.686 163.829 147.619 163.769C145.905 163.669 144.18 163.389 142.482 163.137C141.587 163.006 140.695 162.856 139.804 162.696C139.072 162.566 138.039 162.599 137.527 162.014C137.407 161.878 137.4 161.628 137.589 161.536C138.095 161.288 138.415 161.426 138.971 161.533C139.65 161.665 140.33 161.789 141.012 161.906C142.321 162.133 143.633 162.343 144.948 162.528C145.697 162.633 146.448 162.736 147.198 162.818C147.853 162.888 148.592 162.982 149.12 162.491C150.185 161.498 149.588 159.833 148.915 158.83C148.901 158.811 148.901 158.792 148.906 158.775C148.271 158.627 147.638 158.454 147.006 158.332C145.791 158.099 144.567 157.902 143.342 157.727C140.825 157.369 138.291 157.132 135.761 156.894C135.134 156.834 135.127 155.851 135.761 155.91C139.396 156.241 143.05 156.556 146.637 157.254C147.536 157.427 148.429 157.624 149.316 157.846C149.735 157.949 150.185 158.111 150.625 158.116C150.651 158.116 150.678 158.116 150.705 158.114C151.566 158.087 151.691 157.353 151.218 156.741C151.16 156.666 151.099 156.591 151.038 156.52C150.202 155.526 149.161 154.863 148.088 154.177C146.886 154.013 145.687 153.65 144.511 153.384C141.606 152.724 138.701 152.064 135.794 151.406C135.224 151.276 135.466 150.403 136.036 150.531C138.243 151.029 140.449 151.527 142.655 152.026L145.884 152.756C146.53 152.9 147.335 153.192 148.094 153.297C148.469 153.349 148.831 153.355 149.159 153.279C150.217 153.029 150.27 151.711 149.814 150.928C149.303 150.048 148.336 149.498 147.479 149C145.993 148.135 144.412 147.514 142.867 146.797C142.593 146.737 142.319 146.677 142.045 146.617C140.451 146.267 138.629 146.096 137.128 145.454C136.678 145.264 136.924 144.558 137.368 144.568C138.533 144.593 139.752 145.006 140.89 145.251C142.122 145.518 143.356 145.782 144.587 146.047C144.711 146.074 145.443 146.307 145.554 146.256C145.624 146.222 145.649 145.979 145.672 145.819C145.748 145.293 145.803 144.74 145.721 144.211C145.54 143.027 144.549 142.47 143.546 142.015C141.313 141.004 138.864 140.371 136.427 140.117C135.866 140.059 135.304 140.023 134.739 140.004C134.076 139.984 133.529 139.867 133.193 140.519C132.665 141.545 132.374 142.865 132.2 144.036ZM135.304 181.249C135.791 179.572 135.658 177.781 135.992 176.07C136.164 175.187 136.398 174.311 136.655 173.449C136.862 172.753 137.207 172.013 137.246 171.286C137.248 171.238 137.191 171.21 137.152 171.232C136.465 171.624 135.938 172.471 135.547 173.136C135.078 173.932 134.72 174.765 134.431 175.641C133.856 177.386 133.384 179.491 134.126 181.249C134.346 181.773 135.122 181.878 135.304 181.249ZM150.34 159.03C149.929 158.99 149.518 158.912 149.107 158.82C149.566 159.267 149.991 159.805 150.227 160.401C150.263 159.943 150.31 159.486 150.372 159.032C150.362 159.032 150.35 159.032 150.34 159.03ZM154.292 193.948C155.017 193.444 155.546 192.739 156.161 192.117C156.765 191.505 155.82 190.562 155.215 191.174C154.69 191.705 154.235 192.368 153.618 192.797C153.32 193.004 153.183 193.377 153.378 193.709C153.55 194.002 153.996 194.154 154.292 193.948ZM158.335 174.563C157.012 173.993 155.71 173.372 154.324 172.961C153.497 172.715 153.146 174.002 153.969 174.246C155.245 174.625 156.441 175.189 157.66 175.714C158.443 176.052 159.123 174.903 158.335 174.563ZM172.315 174.164C172.639 173.367 171.345 173.024 171.026 173.809C170.659 174.713 170.238 175.593 169.871 176.496C169.547 177.292 170.841 177.636 171.16 176.851C171.527 175.947 171.948 175.067 172.315 174.164ZM186.111 190.061C186.327 190.348 186.686 190.503 187.026 190.3C187.31 190.13 187.484 189.679 187.266 189.389C186.628 188.542 185.983 187.705 185.236 186.95C184.63 186.338 183.685 187.281 184.29 187.893C184.957 188.567 185.542 189.305 186.111 190.061ZM188.085 100.856C187.471 101.274 186.934 101.781 186.409 102.304C185.8 102.911 186.745 103.853 187.355 103.246C187.797 102.806 188.242 102.359 188.76 102.007C189.059 101.803 189.193 101.424 189 101.095C188.827 100.799 188.383 100.653 188.085 100.856ZM168.01 122.305C168.357 122.997 168.669 123.676 168.689 124.464C168.71 125.321 170.047 125.322 170.026 124.464C170 123.433 169.619 122.54 169.165 121.632C168.78 120.863 167.627 121.539 168.01 122.305ZM160.646 105.078C159.927 104.601 159.258 105.756 159.971 106.229C160.549 106.613 161.126 106.997 161.704 107.381C162.423 107.858 163.091 106.703 162.379 106.23C161.801 105.846 161.224 105.462 160.646 105.078ZM192.591 135.199C192.714 136.046 194.003 135.684 193.881 134.845C193.693 133.548 193.463 132.269 193.111 131.006C192.88 130.179 191.59 130.532 191.821 131.36C192.174 132.623 192.404 133.902 192.591 135.199ZM197.279 150.467C198.14 150.449 198.14 149.116 197.279 149.134C196.5 149.15 195.735 149.355 194.983 149.542C194.148 149.75 194.504 151.035 195.339 150.827C195.974 150.669 196.621 150.481 197.279 150.467ZM199.009 181.224C199.304 181.368 199.608 181.497 199.907 181.633C200.505 181.906 201.103 182.179 201.701 182.453C202.947 183.023 204.193 183.595 205.437 184.169C207.927 185.318 210.437 186.427 212.933 187.564C215.479 188.723 218.018 189.898 220.554 191.078C221.749 191.634 222.953 192.17 224.154 192.711C225.181 193.174 226.451 193.984 227.579 194.06C227.637 194.064 227.656 193.99 227.623 193.953C227.197 193.47 226.518 193.189 225.958 192.875C225.386 192.554 224.803 192.252 224.223 191.946C223.014 191.308 221.803 190.674 220.582 190.058C218.14 188.826 215.694 187.603 213.247 186.382C210.751 185.136 208.258 183.882 205.74 182.68C204.555 182.115 203.368 181.551 202.181 180.988C201.538 180.684 200.894 180.38 200.251 180.076C199.973 179.945 199.698 179.803 199.414 179.686C199.036 179.53 198.749 179.562 198.36 179.466C197.725 179.31 197.45 180.115 197.937 180.466C198.339 180.754 198.55 181.001 199.009 181.224ZM207.936 194.894C208.073 194.561 207.786 194.157 207.469 194.074C207.09 193.974 206.785 194.204 206.647 194.539C206.28 195.428 205.758 196.244 205.086 196.933C204.485 197.548 205.43 198.491 206.031 197.875C206.874 197.012 207.479 196.003 207.936 194.894ZM214.503 173.498C215.113 172.891 214.167 171.948 213.558 172.556L211.825 174.283C211.215 174.891 212.161 175.833 212.77 175.226L214.503 173.498ZM232.282 170.681C233.528 171.045 234.981 171.38 235.83 172.44C235.872 172.492 235.941 172.425 235.916 172.374C234.829 170.126 231.71 169.338 229.551 168.551C228.024 167.994 226.457 167.532 224.877 167.119C225.035 165.322 224.599 163.396 224.448 161.608C224.286 159.699 224.154 157.785 224.087 155.87C224.018 153.916 224.001 151.949 224.066 149.995C224.13 148.048 224.383 146.125 224.494 144.185C224.505 143.997 224.243 143.988 224.187 144.143C223.53 145.944 223.25 147.939 223.036 149.837C222.816 151.793 222.743 153.743 222.772 155.711C222.801 157.733 222.919 159.751 223.081 161.768C223.157 162.723 223.246 163.678 223.33 164.633C223.395 165.362 223.424 166.085 223.573 166.79C222.62 166.557 221.665 166.336 220.713 166.122C217.677 165.439 214.627 164.805 211.604 164.067C210.12 163.704 208.657 163.27 207.179 162.884C205.788 162.521 204.319 162.081 202.891 161.919C202.381 161.861 202.316 162.556 202.653 162.792C203.814 163.605 205.356 164.171 206.697 164.626C208.043 165.082 209.442 165.41 210.822 165.748C213.698 166.454 216.602 167.03 219.502 167.631C222.398 168.231 225.299 168.827 228.162 169.567C229.541 169.923 230.915 170.281 232.282 170.681ZM239.112 135.021C239.857 135.457 240.529 134.304 239.787 133.87C238.816 133.302 237.782 132.876 236.739 132.46C235.939 132.14 235.595 133.43 236.384 133.745C237.321 134.119 238.24 134.511 239.112 135.021ZM241.807 184.541C242.554 184.973 243.226 183.821 242.482 183.391C241.437 182.787 240.292 182.384 239.208 181.855C238.438 181.479 237.761 182.629 238.534 183.006C239.617 183.535 240.762 183.937 241.807 184.541ZM243.019 156.432C242.297 157.116 241.334 157.437 240.425 157.796C239.633 158.109 239.981 159.398 240.781 159.082C241.913 158.634 243.065 158.226 243.964 157.375C244.59 156.782 243.642 155.842 243.019 156.432ZM235.035 118.255C234.242 118.566 234.589 119.854 235.391 119.541C236.28 119.193 237.198 118.929 238.087 118.581C238.88 118.271 238.533 116.982 237.731 117.296C236.842 117.643 235.924 117.908 235.035 118.255ZM220.947 103.091C220.103 102.95 219.744 104.234 220.591 104.377C221.641 104.553 222.676 104.76 223.672 105.144C224.476 105.455 224.821 104.165 224.027 103.859C223.031 103.475 221.997 103.268 220.947 103.091ZM216.296 140.012C217.069 139.633 216.39 138.484 215.621 138.861C214.81 139.259 213.97 139.566 213.085 139.754C212.242 139.932 212.601 141.217 213.44 141.039C214.436 140.827 215.384 140.459 216.296 140.012ZM211.896 119.215C211.064 118.988 210.712 120.274 211.541 120.501C212.999 120.899 214.501 121.106 215.97 121.46C216.807 121.662 217.161 120.377 216.325 120.175C214.856 119.82 213.355 119.614 211.896 119.215ZM193.25 112.689C192.403 112.845 192.764 114.13 193.605 113.975C194.501 113.81 195.408 113.807 196.316 113.807C197.178 113.806 197.176 112.473 196.316 112.474C195.285 112.474 194.266 112.502 193.25 112.689ZM132.432 119.653C134.617 119.444 136.805 119.278 138.996 119.153C139.098 119.148 139.199 119.141 139.301 119.136C139.312 119.113 139.327 119.091 139.342 119.068C140.058 118.021 140.584 116.975 141.04 115.792C141.477 114.666 141.9 113.504 142.571 112.488C143.338 111.33 144.373 110.424 145.506 109.639C146.194 110.1 146.833 110.64 147.417 111.212C148.031 111.814 148.977 110.871 148.362 110.269C147.843 109.761 147.289 109.291 146.704 108.867C147.38 108.457 148.07 108.072 148.743 107.689C151.265 106.255 153.847 104.928 156.483 103.716C157.708 103.151 158.948 102.649 160.197 102.141C160.869 101.868 161.533 101.516 162.204 101.2C162.156 100.726 162.298 100.196 162.662 99.8849C162.932 99.6566 163.14 99.5716 163.461 99.4102C163.533 99.385 163.577 99.37 163.597 99.3617C163.582 99.365 163.538 99.3783 163.467 99.4017C163.296 99.4801 163.283 99.4566 163.426 99.3333C163.435 99.0636 163.968 98.4938 164.09 98.2155C164.514 97.2606 164.646 96.2509 165.273 95.3812C166.137 94.1832 167.588 93.7301 168.941 94.1365C169.081 92.6953 169.118 91.1909 169.663 89.9044C169.678 89.8696 169.726 89.8544 169.748 89.8927C170.316 90.8576 170.365 91.9322 170.408 93.0452C170.45 94.0899 170.41 95.1579 170.273 96.1959C170.36 96.2626 170.448 96.3261 170.54 96.3875C170.971 96.6708 171.436 96.8891 171.924 97.0508C172.853 97.3573 173.828 97.4906 174.802 97.5372C177.318 97.6572 179.91 97.4039 182.384 96.974C184.886 96.5392 188.722 95.886 190.949 94.638C192.418 93.8151 193.773 92.8102 195.147 91.8372C194.649 90.2376 194.522 88.5181 195.024 87.1669C195.084 87.0052 195.338 86.9753 195.386 87.1669C195.7 88.4565 195.792 89.7528 196.21 91.0274C196.217 91.0457 196.224 91.0659 196.23 91.0841C196.361 90.9959 196.491 90.9091 196.621 90.8225C196.922 90.6242 197.332 90.7727 197.512 91.0557C200.399 95.5894 204.97 95.8494 209.771 96.6593C215.024 97.5455 220.304 98.5019 225.355 100.236C230.186 101.896 234.803 104.312 238.46 107.921C239.288 108.738 240.062 109.609 240.793 110.518C240.086 110.606 239.384 110.745 238.692 110.962C237.873 111.218 238.225 112.505 239.048 112.247C239.937 111.968 240.837 111.83 241.745 111.762C244.23 115.15 246.168 118.993 247.843 122.775C251.057 130.026 253.149 137.749 254.111 145.611C253.583 145.295 253.045 144.995 252.493 144.715C251.727 144.326 251.051 145.477 251.819 145.866C252.67 146.298 253.498 146.774 254.299 147.29C254.649 150.731 254.785 154.195 254.703 157.653C254.507 165.897 253.391 174.383 250.865 182.249C249.627 186.11 247.985 189.939 245.54 193.201C244.434 194.679 243.177 196.012 241.696 197.123C240.979 197.663 240.22 198.145 239.419 198.551C238.388 199.078 237.044 199.251 236.155 199.996C235.862 200.241 235.637 200.564 235.466 200.929C235.565 201.622 235.576 202.317 235.386 203.01C235.326 203.227 235.162 203.403 234.96 203.488C234.956 203.548 234.956 203.607 234.956 203.663C234.956 203.69 234.916 203.697 234.911 203.67C234.903 203.618 234.894 203.567 234.886 203.513C234.821 203.535 234.752 203.545 234.682 203.545C232.143 203.555 229.601 203.493 227.059 203.407C227.255 202.807 227.468 202.211 227.673 201.611C227.95 200.796 226.659 200.449 226.383 201.257C226.144 201.959 225.894 202.654 225.672 203.359C222.948 203.258 220.225 203.136 217.506 203.047C211.725 202.855 205.945 202.792 200.162 202.67C191.181 202.481 182.135 202.092 173.14 202.472C172.829 201.814 172.481 201.171 172.15 200.522C171.761 199.756 170.608 200.431 170.996 201.195C171.225 201.646 171.463 202.091 171.689 202.541C169.867 202.636 168.047 202.76 166.231 202.93C163.132 203.22 160.063 203.735 156.968 204.055C153.821 204.381 150.742 204.323 147.619 203.805C147.058 203.712 146.727 203.373 146.59 202.953C146.585 202.952 146.581 202.949 146.578 202.943C146.418 202.757 146.267 202.602 146.112 202.467C145.926 202.347 145.726 202.245 145.49 202.155C145.05 201.989 144.592 201.887 144.128 201.819C143.616 201.742 143.098 201.735 142.587 201.672C142.155 201.617 141.734 201.535 141.313 201.436C140.556 201.256 139.837 201.021 139.122 200.709C138.498 200.438 137.935 200.048 137.403 199.623C136.304 198.821 135.351 197.798 134.518 196.735C134.034 196.114 133.577 195.469 133.163 194.798C132.441 193.634 131.826 192.426 131.204 191.208C130.978 190.848 130.772 190.478 130.584 190.101C131.799 189.744 133.026 189.453 134.314 189.432C135.175 189.418 135.175 188.085 134.314 188.099C132.837 188.123 131.439 188.467 130.051 188.877C129.983 188.698 129.918 188.517 129.858 188.334C129.693 187.953 129.556 187.561 129.442 187.165C129.375 186.985 129.308 186.805 129.242 186.625C129.091 186.002 128.941 185.377 128.789 184.752C128.486 183.752 128.247 182.738 128.072 181.71C127.924 181.033 127.811 180.352 127.734 179.662C127.5 177.991 127.309 176.323 127.296 174.633C127.316 173.592 127.383 172.552 127.497 171.517C127.545 170.814 127.627 170.115 127.737 169.42C127.881 168.387 128.023 167.364 128.262 166.344C128.441 165.654 128.62 164.964 128.799 164.275C129.245 162.837 129.771 161.427 130.378 160.049C130.412 159.963 130.581 159.773 130.682 159.771C130.759 159.769 130.866 159.839 130.831 159.933C130.828 159.941 130.825 159.951 130.821 159.959C130.856 159.881 130.89 159.801 130.925 159.723C130.955 159.649 131.072 159.503 131.162 159.504C131.167 159.504 131.172 159.504 131.179 159.506C131.155 159.489 131.134 159.468 131.112 159.443C130.512 158.735 130.122 157.803 129.693 156.983C129.337 156.307 129.001 155.594 128.904 154.829C128.819 154.158 128.934 153.496 129.357 152.953C129.838 152.335 130.744 152.045 130.241 151.152C129.67 150.135 128.829 149.254 129.666 148.099C130.092 147.511 130.768 147.188 131.269 146.676C131.846 146.085 132.12 145.293 132.105 144.485C132.07 144.505 132.023 144.495 132.006 144.445C131.521 142.986 131.872 141.383 132.369 139.962C132.64 139.19 133.213 138.979 133.88 138.94C130.992 133.317 128.289 127.604 125.88 121.759C125.8 121.567 125.722 121.375 125.643 121.184C125.526 120.897 125.773 120.516 126.059 120.452C128.142 119.997 130.311 119.852 132.432 119.653Z" fill="#2B283A"/>
<path fill-rule="evenodd" clip-rule="evenodd" d="M156.715 14.8043C165.95 12.0964 197.713 14.8721 198.498 15.4586C199.783 16.5255 206.035 19.9108 207.008 20.6837C215.805 29.9971 207.419 43.8278 208.064 55.0631C208.023 59.0484 209.723 62.6872 210.505 66.5212C210.834 68.5304 210.762 70.6087 209.713 72.4126C207.87 75.6359 203.978 76.2893 200.813 77.589C199.238 78.2665 197.766 79.2271 196.417 80.2781C187.334 88.3048 182.278 93.8013 169.025 91.9906C168.957 92.6226 168.397 93.2437 167.702 92.9612C166.075 92.2993 164.459 91.5971 162.818 90.9697C162.467 91.8142 161.459 92.0553 160.777 91.3095L160.773 91.3148C157.735 88.8528 155.803 85.4865 154.367 81.8827C153.363 79.8036 152.541 77.6342 151.912 75.4003C151.841 75.1475 151.851 74.9217 151.915 74.7272C149.016 64.7461 147.943 54.2266 148.706 43.8635C148.86 41.7254 149.265 39.5589 149.165 37.4118C149.076 35.472 148.239 33.637 147.601 31.8304C144.313 24.1502 149.34 17.2225 156.715 14.8043Z" fill="white"/>
<path fill-rule="evenodd" clip-rule="evenodd" d="M155.553 2.33281L155.455 2.25656C154.39 1.42201 153.386 0.328265 151.884 0.738403C150.653 1.07488 150.031 2.09295 149.767 3.32327C149.392 2.93157 149.027 2.52606 148.672 2.10676C147.704 0.9679 145.543 1.55803 145.255 3.00922C144.671 5.93229 144.642 8.90712 145.21 11.8354C145.296 12.2788 145.398 12.7206 145.517 13.1571C144.87 12.3513 144.267 11.511 143.726 10.6258C143.141 9.66463 141.818 10.1409 141.726 11.1676C141.702 11.4333 141.688 11.7025 141.685 11.9734C141.272 12.1184 140.987 12.5428 141.096 13.064C141.697 15.9318 142.458 18.76 143.374 21.5398C141.902 20.7599 140.253 20.2974 138.7 20.8479C136.233 21.7244 135.646 24.4128 136.128 26.7268C136.734 29.6361 138.641 32.0708 141.101 33.6669C141.393 34.1052 141.681 34.547 141.956 34.9973C141.961 36.269 142.192 37.5373 142.659 38.7159C143.184 40.0394 144.11 41.1834 145.25 42.0531C145.65 42.9247 146.712 43.5614 147.643 43.3849L147.692 43.3748L147.694 43.3766C147.456 44.229 147.25 45.09 147.072 45.9528C145.695 52.6372 146.392 59.5953 147.648 66.2419L147.689 66.454C148.817 72.3691 150.129 78.4948 152.681 83.9872C154.988 88.9533 158.901 93.3207 164.492 94.4043C171.07 95.6795 178.35 93.6589 184.007 90.2889C186.057 89.0672 184.178 85.8473 182.136 87.0897C179.19 88.8808 175.989 90.1319 172.603 90.791C169.439 91.4053 165.9 91.6141 162.865 90.3406C158.638 88.5668 156.127 84.234 154.537 80.1548C153.601 77.7476 152.9 75.2629 152.247 72.7677C151.406 69.5599 150.622 66.3314 150.033 63.0667C148.936 56.9773 148.58 50.6532 149.741 44.5465C150.11 42.5983 150.634 40.6381 151.316 38.7538C151.423 38.621 151.525 38.4726 151.617 38.3104C152.33 37.0611 152.822 35.641 153.353 34.2899C153.817 33.484 154.325 32.7093 154.864 31.9517C155.67 31.3331 156.437 30.6717 157.14 29.9501C155.098 28.6294 153.297 26.976 152 24.8698C151.786 24.5224 151.922 24.1904 152.176 24.0032C153.211 25.2968 154.551 26.3924 155.96 27.363C156.682 27.9807 157.46 28.5357 158.275 29.0371C158.857 29.1522 159.446 29.2313 160.017 29.2961C161.642 29.4808 163.276 29.4117 164.893 29.1961C168.389 28.7302 183.174 24.6624 189.407 26.2437C190.705 26.5731 191.317 27.7362 192.005 28.8285C192.601 29.7786 193.359 30.565 194.269 31.2126L194.371 31.284C196.15 32.5143 199.727 36.4064 201.231 39.8803C203.172 44.3653 205.037 57.8056 204.179 57.9212C201.933 58.2249 200.689 59.4051 198.86 60.6717C198.739 60.7545 198.81 60.9788 198.966 60.9219C200.173 60.487 201.479 60.2299 202.745 60.0194C203.89 59.8279 205.096 59.7934 206.201 60.2023C207.898 60.8304 208.725 62.2505 209.065 63.8519C209.198 64.4782 209.257 65.1322 209.264 65.7793L209.265 65.9669C209.264 68.0071 208.883 70.2689 207.4 71.7738C206.77 72.414 205.915 72.8454 205.02 72.9644C204.04 73.0956 203.436 72.6538 202.536 72.4243C201.5 72.1603 200.691 72.8419 200.788 73.7306C200.569 73.9221 200.356 74.124 200.145 74.3293L200.145 74.3302L200.144 74.3311C200.005 74.3932 199.874 74.476 199.755 74.5761C199.56 74.7417 199.396 74.9229 199.264 75.1179C198.973 75.1749 198.693 75.3371 198.463 75.6339C197.99 76.243 197.553 76.859 197.147 77.4871C196.42 78.2584 195.696 79.0314 194.982 79.8166C194.124 80.7602 193.288 81.7254 192.447 82.6849L192.025 83.1641C191.571 83.6801 191.118 84.196 190.666 84.7137L190.531 84.8657C190.076 85.3749 189.727 85.7509 189.678 86.4841C189.643 87.0276 190.229 87.3969 190.714 87.2726C191.463 87.0799 191.81 86.493 192.258 85.9108L192.936 85.043L193.573 84.2253C193.889 83.8181 194.209 83.4126 194.526 83.0071C194.621 83.7543 195.413 84.3565 196.135 84.3893L196.303 84.3958C197.998 84.452 200.059 84.2131 201.349 83.0192C201.93 83.6041 202.652 84.0649 203.541 84.3409C205.562 84.969 207.628 83.8561 208.445 82.1633C210.029 82.8414 211.819 82.9778 213.53 82.4791C214.518 82.19 214.859 80.9607 214.171 80.2084L214.14 80.1755L214.132 80.1665C214.274 79.9821 214.352 79.7563 214.365 79.5105C214.38 79.2119 214.162 78.8955 214.207 78.6168C214.379 77.554 216.113 78.3414 216.665 78.5716C216.77 78.6154 216.869 78.6363 216.961 78.6396C217.814 78.8875 218.741 77.7687 218.294 76.8452C217.294 74.7814 216.318 72.7022 215.306 70.6419C215.434 70.685 215.565 70.7247 215.695 70.7575C217.513 71.2234 219.719 70.3295 219.3 68.1398C219.203 67.6256 218.736 67.2736 218.273 67.1149C217.372 66.8043 216.695 67.0286 216 66.7387C215.218 66.4143 214.401 65.819 213.713 65.2582C212.979 64.6611 212.345 63.9899 211.784 63.2617C211.559 62.204 211.171 61.1928 210.549 60.3231C210.511 60.2713 210.473 60.2196 210.433 60.1695C214.421 59.2197 213.899 55.3019 215.658 51.8298L215.806 51.542C217.001 49.2195 218.043 46.601 217.441 43.9563C217.334 43.4887 217.178 43.0418 216.978 42.6242C217.298 42.6639 217.619 42.7002 217.938 42.7364C218.672 42.8192 219.419 41.8736 219.127 41.1782C218.973 40.8141 218.804 40.4621 218.621 40.1205C218.113 39.1783 217.489 38.3225 216.755 37.5494C217.988 37.5166 219.224 37.5166 220.443 37.3751C221.595 37.2423 222.806 36.6124 222.77 35.2855C222.735 34.0203 221.624 33.0627 220.593 32.4454C219.579 31.098 218.293 29.9781 216.838 29.1458C217.126 29.0812 217.417 29.0333 217.714 29.0039L217.862 28.9907C218.693 28.9251 219.439 28.6974 220.193 28.3505C220.866 28.0399 220.856 27.0978 220.415 26.6233C218.991 25.0855 216.858 25.5862 215.198 26.4675C215.313 26.3209 215.44 26.1798 215.578 26.0448L215.662 25.9645C216.478 25.2057 215.253 23.9882 214.441 24.7443C214.184 24.9833 213.954 25.243 213.748 25.5182L213.729 25.4775C212.655 23.3013 211.084 21.3534 209.226 19.7926L208.789 19.4298C205.438 16.6333 204.404 15.3078 199.947 15.7196C200.137 14.9108 200.118 14.001 200.075 13.2529L200.069 13.152C199.898 10.3393 198.86 6.9728 196.114 5.7097C195.4 5.38357 194.592 5.91676 194.782 6.73295C194.915 7.311 195.077 7.87353 195.28 8.42053C194.68 7.7907 194.038 7.20229 193.357 6.66047C190.583 4.45178 186.876 2.55195 183.23 3.17315C181.226 3.51653 179.654 4.77273 177.977 5.82186C176.291 6.87789 174.408 7.50426 172.434 7.7303C169.676 8.0478 166.907 7.72858 164.179 7.22472C162.305 6.40854 160.486 5.45259 158.711 4.42244C157.619 3.78916 156.557 3.09722 155.553 2.33281ZM204.529 63.4227C203.945 63.2725 203.29 63.2743 202.705 63.4209C201.193 63.8006 199.787 65.0637 199.699 66.6563C199.659 67.3759 200.24 68.0644 200.913 68.249C201.677 68.4595 202.333 68.0868 202.779 67.4898C203.257 66.8513 203.377 66.1594 203.962 65.5796L204.097 65.4483C204.595 64.9728 205.348 64.3581 206.038 64.4683C206.14 64.4839 206.216 64.3458 206.113 64.2906C205.549 63.9835 205.18 63.5883 204.529 63.4227ZM196.678 55.9207C196.412 55.7033 196.059 55.9583 196.185 56.271L196.195 56.2934C196.511 56.9594 196.139 57.7411 195.756 58.2985C195.426 58.7799 196.05 59.2371 196.488 59.0301C197.722 58.4451 197.658 56.7144 196.678 55.9207ZM192.17 35.9098C192.193 35.7476 191.977 35.6803 191.921 35.8408C191.001 38.5102 190.736 40.8742 190.887 43.6971L190.901 43.9477C191.064 46.6668 191.54 49.5447 193.188 51.7779C193.569 52.2938 194.35 51.9901 194.224 51.3413C193.718 48.7444 192.745 46.2786 192.367 43.6506C191.972 40.9035 191.794 38.6586 192.17 35.9098ZM200.768 45.6124C200.633 44.8998 199.536 44.1664 198.982 44.8825C198.795 45.1258 199.014 45.4243 199.239 45.5141C199.45 45.5969 199.638 45.483 199.845 45.5244C200.013 45.5583 200.135 45.6627 200.217 45.8056L200.234 45.8368C200.396 46.1474 200.825 45.9161 200.768 45.6124ZM201.219 39.935C200.825 39.2068 199.918 38.7427 199.143 39.1965C198.887 39.3466 198.987 39.7832 199.298 39.7694L199.483 39.7619C200.036 39.7418 200.588 39.753 201.053 40.1024C201.157 40.18 201.271 40.0334 201.219 39.935ZM199.832 20.0498C202.041 19.0576 204.238 19.9533 206.042 21.3503C206.191 21.4659 206.264 21.6009 206.279 21.7365C205.075 21.268 203.793 20.9609 202.567 20.7074C201.565 20.5 200.553 20.36 199.54 20.3048C199.597 20.2032 199.69 20.1134 199.832 20.0498Z" fill="#2B283A"/>
<path fill-rule="evenodd" clip-rule="evenodd" d="M163.788 73.2619C165.576 72.4574 168.787 73.1594 169.953 73.4386C172.663 74.0877 175.389 75.4906 176.232 77.6885C177.181 80.1655 175.287 80.9452 175.008 80.8178C173.132 80.9498 170.898 79.7718 168.932 79.4678C167.336 79.2189 165.653 79.0016 164.157 78.1545C163.066 78.7544 160.6 79.0786 158.61 79.6032C156.915 80.0497 156.181 81.0179 154.609 80.812C152.726 80.5654 153.497 76.6092 155.596 75.0065C157.893 73.2526 161.778 72.5413 163.788 73.2619ZM160.248 90.1781C161.812 90.5591 161.917 87.1342 162.092 85.9242C162.229 84.9789 163.001 82.5411 164.959 82.6463C166.917 82.7515 167.653 84.7939 167.553 86.0643C167.489 86.888 166.729 91.0608 169.155 91.5887C170.701 91.5832 172.49 91.479 174.117 91.1795C176.031 90.7465 178.519 89.2305 179.177 92.216C179.413 93.2905 170.982 96.4828 167.241 96.7716C163.447 97.5396 159.008 96.3586 156.306 93.4593C155.692 92.7997 153.961 90.0619 153.837 89.3911C153.578 87.9818 154.178 87.075 155.924 87.5717C157.157 88.2295 159.242 89.9331 160.248 90.1781Z" fill="#2B283A"/>
<path fill-rule="evenodd" clip-rule="evenodd" d="M163.106 75.0634C162.472 73.9495 160.582 74.1306 160.293 75.4298C159.707 78.0635 162.858 80.4956 165.252 80.5563C167.63 80.6164 170.299 78.5989 169.955 76.0506C169.87 75.4202 169.025 75.4968 168.737 75.892L168.625 76.0436C167.843 77.0909 166.811 78.175 165.359 77.9196C164.757 77.814 164.211 77.4394 163.847 76.9571C163.408 76.3752 163.456 75.6802 163.106 75.0634ZM178.23 55.7947C177.907 55.7062 177.582 55.7405 177.296 55.8615C176.659 55.978 176.126 56.5079 175.939 57.1129C175.924 57.1653 175.908 57.217 175.89 57.2682L175.861 57.3445L175.937 57.1506C175.902 57.3416 175.746 57.5423 175.69 57.7341C175.621 57.9698 175.604 58.2375 175.627 58.4969C175.425 58.4989 175.222 58.5057 175.02 58.5232L174.824 58.5407C173.731 58.642 172.53 58.8277 171.882 59.7694C171.518 60.2986 171.86 61.2513 172.528 61.3533C173.558 61.5102 174.445 60.9424 175.471 60.8287C176.441 60.721 177.456 60.7827 178.414 60.9573C180.39 61.3175 182.207 62.116 184.133 62.617L184.395 62.6834L184.395 62.6821C184.725 62.7616 185.1 62.3042 184.773 62.0366C183.23 60.7731 181.254 59.7492 179.308 59.1256C179.591 58.6761 179.679 58.084 179.485 57.6014C179.455 57.5014 179.418 57.4041 179.379 57.3072L179.297 57.1077C179.289 57.0137 179.271 56.9208 179.244 56.8297L179.24 56.8019L179.238 56.8036C179.093 56.3342 178.714 55.9279 178.23 55.7947ZM158.542 55.8687C158.12 55.4478 157.526 55.51 157.086 55.8412L157.028 55.8869C156.612 56.0707 156.269 56.4723 156.043 56.8446C155.809 57.2311 155.653 57.6249 155.647 58.0505C154.625 58.0538 153.647 58.3592 152.897 59.1813C152.654 59.4466 152.489 59.8558 152.622 60.2156L152.702 60.4295C152.954 61.1089 154.086 61.5 154.471 60.7011L154.489 60.6621C154.898 59.7134 156.467 59.813 157.302 59.9099C157.883 59.9778 158.458 60.1219 159.019 60.2833C159.217 60.3401 159.413 60.4018 159.609 60.4649L159.805 60.5282C159.91 60.5618 160.454 60.8564 160.115 60.7867C160.024 60.7679 159.956 60.9 160.049 60.9444C160.452 61.1366 160.883 60.7537 160.856 60.3217C160.809 59.5718 159.614 59.1606 159.039 58.902L159.005 58.8864C158.784 58.7848 158.553 58.6875 158.315 58.5971C158.449 58.3984 158.56 58.1776 158.652 57.9406C158.739 57.7169 158.797 57.4994 158.829 57.2615C158.861 57.1452 158.861 57.0289 158.829 56.9125L158.824 56.8792C158.841 56.8023 158.848 56.7228 158.847 56.6427L158.851 56.6116L158.847 56.6116C158.836 56.3314 158.724 56.0506 158.542 55.8687ZM165.287 63.8541C163.666 64.3535 160.991 65.7138 161.836 67.8133C163.016 69.7416 166.145 68.3245 167.661 67.7015C169.024 67.2518 169.733 69.1545 168.416 69.728C157.53 74.0197 157.57 62.6931 164.893 62.8594C165.699 62.8776 165.724 63.6881 165.287 63.8541ZM179.687 49.0846L179.411 49.0042C177.974 48.5893 176.506 47.8728 175.23 48.9908C174.729 49.4298 174.626 50.342 174.985 50.8896C175.801 52.1373 177.013 51.9467 178.332 52.053C179.336 52.134 180.325 52.428 181.263 52.7954C182.029 53.0959 182.74 53.5189 183.411 53.9907C184.07 54.4545 184.52 55.1797 185.196 55.5972C185.444 55.7502 185.73 55.5927 185.819 55.3445C186.134 54.4641 185.602 53.3673 185.151 52.6172C184.6 51.702 183.764 50.9535 182.866 50.3871C181.881 49.7669 180.793 49.4087 179.687 49.0846ZM158.742 48.1381C156.313 48.1373 153.975 49.484 152.616 51.4581C152.154 52.1287 152.493 53.1223 153.155 53.5085C153.899 53.942 154.694 53.6299 155.184 53.0087L155.213 52.9711C155.992 51.9368 156.997 51.1223 158.188 50.592C158.769 50.3331 159.411 50.1232 160.04 50.0167L160.243 49.982C160.528 49.9344 160.858 49.889 161.115 49.9335C161.253 49.9515 161.38 49.997 161.496 50.0662C161.44 50.1883 161.585 50.3355 161.719 50.2623C162.323 49.9318 162.249 49.3423 161.75 48.8842C161.045 48.2359 159.653 48.1382 158.742 48.1381Z" fill="#2B283A"/>
<path fill-rule="evenodd" clip-rule="evenodd" d="M148.638 64.2033C150.571 66.2156 153.796 66.7931 156.367 65.7139C162.969 62.9341 159.738 54.2638 154.647 51.9354C154.011 51.7756 153.161 51.3966 152.387 51.3106C152.316 51.2759 152.164 51.3762 151.979 51.2814C146.366 51.9131 145.087 60.696 148.638 64.2033ZM169.931 64.7177C172.098 67.6149 176.128 68.5087 179.42 67.1619C185.923 64.5806 183.617 56.8922 179.167 53.878C169.768 50.3183 165.886 59.3758 169.931 64.7177ZM184.031 58.2991C184.037 58.2962 184.043 58.2948 184.049 58.2919C184.015 58.2767 183.98 58.2615 183.946 58.2459C183.957 58.2753 183.969 58.3042 183.98 58.3336C183.997 58.3219 184.012 58.3083 184.031 58.2991ZM144.166 55.1671C144.697 55.1682 145.463 55.2562 145.903 55.6272C146.986 51.9452 150.984 48.5376 154.462 51.0224C157.2 51.9099 159.232 53.8784 160.387 56.4953C162.469 55.247 165.743 55.7801 167.549 57.4309C168.731 53.4926 171.642 52.1135 175.106 51.91C178.887 51.2858 182.655 54.9867 183.831 57.9556C184.809 57.8435 186.27 57.5298 187.189 58.138C193.159 56.5602 203.596 55.6902 204.809 56.5669C205.674 56.9014 206.149 58.9588 204.941 59.0698C203.888 58.9192 205.064 57.5623 204.002 57.4142C198.349 57.061 192.86 58.2086 187.266 58.6901C186.767 59.3672 185.153 59.5937 184.292 59.3217C185.648 64.358 182.721 67.7844 178.336 68.8107C171.545 70.3829 165.637 64.2603 167.412 57.8919C165.355 56.8604 162.989 56.9047 160.748 57.448C164.493 71.3381 142.297 70.7149 145.764 56.1031C143.457 57.2597 142.956 55.4005 144.166 55.1671Z" fill="#2B283A"/>
<path fill-rule="evenodd" clip-rule="evenodd" d="M356.232 154.262L255.176 162.259L255.07 162.944C253.377 173.937 252.522 181.396 252.504 185.319L252.504 185.439C252.504 189.329 251.306 195.516 248.91 203.999L248.762 204.521L356.373 204.708L357.642 179.173L356.232 154.262ZM296.403 99.4679C292.294 99.67 288.153 101.426 287.833 102.548C287.121 105.048 285.975 115.747 282.208 117.391C278.441 119.035 270.398 117.536 268.099 121.462C265.799 125.387 258.247 141.389 258.247 145.118C258.247 147.604 282.858 148.467 332.078 147.707C331.449 127.685 328.83 117.16 324.219 116.132L323.807 116.041C317.139 114.589 313.154 114.543 310.879 112.202C308.558 109.813 308.137 105.714 307.174 102.548C306.644 100.804 301.446 99.2198 296.403 99.4679Z" fill="white"/>
<path fill-rule="evenodd" clip-rule="evenodd" d="M287.391 105.722C287.376 105.71 287.36 105.707 287.343 105.715C287.023 105.869 286.957 106.175 286.847 106.494C286.686 106.961 286.5 107.417 286.328 107.879C285.985 108.807 285.658 109.734 285.276 110.646C284.884 111.585 284.477 112.508 284.012 113.415C283.788 113.853 283.546 114.284 283.301 114.711C283.132 115.008 282.974 115.415 282.751 115.694C282.734 115.605 282.71 115.521 282.682 115.442C282.711 115.456 282.74 115.472 282.766 115.488C282.823 115.524 282.891 115.453 282.857 115.398C282.735 115.199 282.577 115.064 282.397 114.972C281.898 114.42 270.892 117.057 267.883 120.019C262.434 125.383 258.756 132.015 256.337 139.07C255.001 142.963 253.772 146.895 252.501 150.809C251.158 154.948 249.756 159.069 248.41 163.206C248.116 164.115 248.759 164.942 249.571 165.242C251.085 165.798 252.609 166.323 254.147 166.808C253.401 169.664 252.879 172.58 252.504 175.504C251.729 181.535 251.632 187.687 250.412 193.654C250.132 195.024 249.777 196.374 249.403 197.721L249.316 198.031C249.093 198.822 248.89 199.619 248.616 200.392C248.381 201.057 248.076 201.728 247.911 202.414C247.718 203.221 248.003 204.103 248.76 204.517C249.368 204.851 250.238 204.713 250.605 204.087C250.68 203.959 250.725 203.82 250.743 203.679C250.798 203.563 250.849 203.443 250.894 203.321C250.912 203.274 250.927 203.225 250.942 203.176L250.986 203.03C251.093 202.681 251.192 202.33 251.291 201.978C251.451 201.414 251.613 200.852 251.792 200.293L251.883 200.014C252.326 198.67 252.722 197.314 253.068 195.942C254.304 191.021 254.567 185.927 254.906 180.884L254.924 180.624C255.231 176.105 255.415 171.595 255.038 167.086L255.09 167.103L255.141 167.119C255.63 167.268 256.121 167.414 256.614 167.556C256.629 167.562 256.643 167.567 256.659 167.571C256.974 167.669 257.298 167.761 257.627 167.847L257.825 167.898L257.965 167.936L258.112 167.977C258.578 168.112 259.054 168.267 259.538 168.252C260.339 168.38 261.154 168.457 261.955 168.46C261.708 172.483 261.423 176.502 261.083 180.518C260.742 184.555 260.289 188.576 259.82 192.597C259.588 194.584 259.34 196.566 259.066 198.546C258.928 199.55 258.784 200.548 258.601 201.544C258.412 202.562 258.078 203.65 258.279 204.679C258.284 204.678 258.288 204.676 258.292 204.676C258.36 204.974 258.54 205.241 258.855 205.426C259.432 205.762 260.239 205.565 260.57 204.977C260.598 204.928 260.625 204.877 260.65 204.825C260.99 204.97 261.363 205.026 261.82 205.031L268.017 205.092C270.834 205.121 273.651 205.15 276.469 205.191C285.316 205.321 294.164 205.471 303.012 205.578L306.33 205.615C311.306 205.667 316.285 205.77 321.261 205.769C323.75 205.769 326.237 205.76 328.726 205.7C329.932 205.67 331.136 205.624 332.34 205.575L332.553 205.565C333.514 205.518 334.535 205.429 335.476 205.644C335.735 206.147 336.398 206.251 336.745 205.736C337.538 204.559 337.754 202.916 337.901 201.477L337.952 200.959C338.114 199.346 338.257 197.733 338.363 196.118C338.738 190.394 338.875 184.664 338.703 178.929C338.615 176.006 338.346 173.1 338.027 170.194C337.927 169.287 337.823 168.381 337.71 167.477L337.708 167.156C337.708 167.053 337.708 166.955 337.711 166.863L337.739 165.991C337.763 165.263 337.784 164.536 337.793 163.808L337.797 163.372L337.801 162.559C338.498 162.493 339.241 162.262 339.842 162.151C340.817 161.97 341.789 161.774 342.758 161.568C344.699 161.152 346.618 160.66 348.525 160.115L348.931 159.999C350.69 159.494 352.474 158.955 354.139 158.199C354.79 157.902 355.441 157.568 356.012 157.129C356.046 157.59 356.098 158.05 356.129 158.507C356.191 159.411 356.264 160.312 356.325 161.216L356.383 162.076C356.478 163.51 356.564 164.942 356.603 166.379C356.775 172.65 356.805 178.948 356.472 185.214C356.307 188.351 356.071 191.488 355.731 194.612C355.565 196.149 355.388 197.69 355.171 199.221C354.947 200.794 354.542 202.358 354.418 203.942C354.3 205.471 356.644 205.693 357.029 204.295C357.49 202.619 357.607 200.812 357.85 199.089L357.878 198.898C358.147 197.067 358.363 195.229 358.549 193.389C359.192 187.041 359.359 180.66 359.022 174.288C358.862 171.236 358.482 168.196 358.022 165.177L357.968 164.828C357.759 163.476 357.563 162.124 357.326 160.777L357.235 160.273C357.022 159.116 356.858 157.857 356.513 156.7L356.615 156.606C356.807 156.427 357.015 156.221 357.167 155.999C357.689 155.928 358.133 155.554 358.078 154.875C357.899 152.644 357.081 150.375 356.352 148.268C355.62 146.151 354.771 144.073 353.809 142.048C350.425 134.932 345.552 128.472 339.593 123.296C336.432 120.55 332.968 118.115 329.14 116.381C327.253 115.525 325.3 114.863 323.255 114.506C322.243 114.329 321.22 114.191 320.19 114.161C319.355 113.67 318.363 113.876 317.554 114.415L317.51 114.445L317.509 114.445L317.302 114.486C317.251 114.496 317.252 114.576 317.302 114.587C317.305 114.587 317.309 114.589 317.312 114.59C317.179 114.694 317.053 114.805 316.936 114.925C316.55 115.318 316.551 115.794 316.75 116.177C315.567 117.271 314.819 118.676 314.036 120.092C313.197 121.607 312.098 122.918 310.761 124.023C305.86 128.075 298.651 129.868 292.51 127.954C287.994 126.548 284.136 122.742 283.07 118.16C283.322 118.25 283.596 118.264 283.855 118.171C285.074 117.738 285.539 116.41 286.005 115.3L286.027 115.247C286.483 114.171 286.865 113.079 287.167 111.951C287.472 110.812 287.651 109.61 287.726 108.434C287.755 107.97 287.742 107.505 287.718 107.04L287.696 106.656C287.68 106.308 287.685 105.952 287.391 105.722ZM307.222 102.589C307.205 102.547 307.139 102.525 307.113 102.575C306.034 104.794 306.742 107.834 307.762 109.95C308.83 112.163 310.438 113.842 312.343 115.294C312.606 115.494 312.875 115.691 313.149 115.883C314.738 117.002 316.154 113.985 314.319 113.409C312.407 112.44 310.852 110.713 309.772 108.9C309.188 107.92 308.67 106.899 308.274 105.827C307.879 104.759 307.642 103.647 307.222 102.589Z" fill="#2B283A"/>
<path fill-rule="evenodd" clip-rule="evenodd" d="M312.522 41.4015C303.337 40.9006 295.199 38.3225 288.734 44.0923C288.734 44.0923 278.275 36.2895 276.53 39.2613C275.36 41.2526 276.982 43.9259 276.547 46.3831C273.712 51.2116 273.872 59.3844 273.712 61.2997C273.308 66.1272 270.763 84.2931 270.763 88.6068C270.763 90.8087 272.58 96.5756 273.712 99.7849C276.231 106.928 281.039 110.568 288.925 110.568C296.811 110.568 309.682 103.984 313.81 98.1385C314.172 97.6261 316.511 99.1208 318.958 96.5281C321.609 93.7193 323.08 88.362 323.08 85.1685C323.08 81.1161 325.701 78.3058 325.396 73.1186C324.715 61.534 322.35 41.9375 312.522 41.4015Z" fill="white"/>
<path fill-rule="evenodd" clip-rule="evenodd" d="M313.548 27.9335C313.429 27.9262 313.308 27.932 313.187 27.9438C313.054 27.9497 312.921 27.9626 312.789 27.989C312.114 28.1184 311.512 28.4752 311.045 28.9775C311.032 28.9906 311.022 29.0053 311.01 29.0183C310.792 29.1828 310.589 29.3694 310.407 29.5672C310.375 29.5367 310.344 29.5062 310.311 29.4757C310.215 29.3911 310.114 29.311 310.009 29.2354C309.57 28.8592 309.055 28.5857 308.501 28.4301L308.425 28.4096C308.41 28.4053 308.396 28.4024 308.381 28.3995C307.987 28.2685 307.573 28.2016 307.157 28.2029C306.658 28.1869 306.158 28.2685 305.692 28.4606C305.139 28.6894 304.658 29.0503 304.255 29.4844C303.989 29.6999 303.758 29.9371 303.513 30.1979C303.007 30.738 302.607 31.3699 302.355 32.0661C302.32 32.1636 302.29 32.2639 302.262 32.3644C301.645 32.2932 301.026 32.2423 300.406 32.2174C299.711 32.1753 299.016 32.1606 298.319 32.184C296.4 32.2465 294.522 32.5844 292.705 33.2033C292.34 33.3109 291.986 33.4478 291.645 33.6167C291.11 33.8293 290.604 34.1001 290.128 34.4277L289.722 34.6683C289.518 34.7894 289.314 34.912 289.116 35.0378C288.645 35.3394 288.199 35.6771 287.776 36.0411C287.33 36.4009 286.909 36.7926 286.508 37.203C286.399 37.3141 286.294 37.4267 286.191 37.54C285.267 38.0381 284.446 38.6759 283.68 39.4366C283.073 39.0877 282.445 38.7714 281.796 38.4902C281.127 38.2005 280.277 37.902 279.576 37.7055C278.946 37.5294 278.324 37.4085 277.693 37.3195C277.406 37.27 277.117 37.2307 276.827 37.1972L276.839 37.2017C276.635 37.1797 276.432 37.1608 276.226 37.1433L276.232 37.1419C276.145 37.1348 276.056 37.1273 275.968 37.1215L275.756 37.1042C275.692 37.0984 275.598 37.2482 275.592 37.3006L275.585 37.3545C275.537 37.4085 275.493 37.4682 275.463 37.5046C275.425 37.5015 275.387 37.4988 275.349 37.4972C275.235 37.4871 275.104 37.6894 275.037 37.7666L274.976 37.8377C274.907 37.9207 274.838 38.0162 274.827 38.1204C274.753 38.7248 274.683 39.3304 274.619 39.9362C274.594 40.3948 274.619 40.8491 274.695 41.2991C274.751 41.7359 274.81 42.1727 274.868 42.6081C274.961 42.914 275.053 43.2198 275.145 43.5254C275.181 43.6421 275.222 43.757 275.262 43.872C275.495 44.6402 275.768 45.3881 276.093 46.1128C275.856 46.3752 275.635 46.6472 275.429 46.9281C275.379 46.9786 275.33 47.0288 275.283 47.0812C275.27 47.061 275.251 47.0421 275.231 47.0317C275.161 47.0012 275.11 47.0376 275.066 47.0974C274.607 47.5356 274.273 48.0468 274.066 48.6305L273.937 48.935C273.916 48.9859 273.895 49.0368 273.874 49.0878C273.709 49.5306 273.582 49.9849 273.477 50.4448C273.384 50.8068 273.316 51.1738 273.273 51.5446C272.958 52.6007 272.709 53.6812 272.474 54.747C272.437 54.9148 272.455 55.0645 272.508 55.192L272.371 55.3257L272.137 55.5591C271.742 55.9516 271.34 56.3643 271.048 56.8313C270.744 57.3162 270.521 57.8346 270.274 58.3487L270.22 58.4579L270.111 58.6769C269.993 58.9161 269.937 59.0482 269.832 59.3373C269.659 59.8194 269.565 60.3041 269.522 60.8154C269.457 61.5593 269.466 62.3703 269.793 63.062C269.794 63.0678 269.797 63.0723 269.8 63.0765C269.949 63.745 270.316 64.3652 270.874 64.7612C270.994 64.8735 271.122 64.974 271.259 65.0539C271.588 65.2468 271.89 65.2641 272.249 65.1748L272.294 65.1631C272.339 65.1515 272.38 65.1413 272.419 65.1326C272.361 65.1806 272.332 65.2375 272.419 65.2782C272.504 65.3189 272.58 65.3422 272.651 65.351C272.62 65.3903 272.617 65.4325 272.682 65.4675C272.822 65.5417 272.935 65.5652 273.052 65.5446L273.027 65.7471C272.836 67.2789 272.665 67.5818 272.515 69.2273C272.416 70.9118 272.259 72.5922 272.042 74.2654L271.967 74.8733C271.727 76.8003 271.457 78.7414 271.045 80.6371C270.836 81.4657 270.657 82.3 270.505 83.1402C270.291 83.7794 270.141 84.4332 270.058 85.1001C269.937 85.7786 269.854 86.463 269.806 87.1532C269.638 87.5945 269.557 88.0429 269.561 88.5001C269.539 89.1146 269.559 89.7277 269.625 90.3378C269.661 90.9726 269.749 91.6016 269.887 92.2248C270.011 93.0797 270.237 93.9053 270.561 94.7062C270.82 95.6 271.138 96.4768 271.499 97.3343C272.061 98.6622 272.738 99.8956 273.51 101.111C274.232 102.252 275.008 103.349 275.894 104.37C277.04 105.689 278.346 106.898 279.777 107.917C280.593 108.52 281.455 109.062 282.356 109.525C283.458 110.093 284.577 110.604 285.771 110.949C286.516 111.164 287.274 111.313 288.04 111.427C289.546 111.649 291.106 111.616 292.62 111.355C293.597 111.224 294.557 110.997 295.465 110.672C296.212 110.404 296.923 110.097 297.634 109.75C298 109.574 298.353 109.37 298.691 109.142C299.259 108.773 299.791 108.357 300.287 107.897C300.449 107.759 300.606 107.617 300.761 107.469C300.835 107.403 300.794 107.306 300.708 107.283L300.682 107.279C300.715 107.249 300.75 107.218 300.784 107.186C300.791 107.18 300.797 107.173 300.803 107.166C300.819 107.151 300.836 107.137 300.851 107.122C300.908 107.073 300.851 106.962 300.801 106.936C300.783 106.926 300.758 106.924 300.73 106.927C300.736 106.921 300.74 106.917 300.746 106.913C300.752 106.908 300.753 106.897 300.752 106.885L300.774 106.868C300.848 106.802 300.81 106.706 300.723 106.681C300.68 106.668 300.61 106.675 300.536 106.691L300.509 106.697L300.558 106.65C300.646 106.575 300.618 106.49 300.51 106.464C300.43 106.469 300.35 106.48 300.271 106.499L300.213 106.515C300.183 106.522 300.156 106.531 300.127 106.54C300.176 106.495 300.226 106.451 300.274 106.406C300.322 106.364 300.271 106.243 300.227 106.218C300.167 106.185 300.051 106.231 299.997 106.27C299.864 106.285 299.689 106.343 299.625 106.399C299.449 106.567 299.267 106.729 299.082 106.886C298.969 106.921 298.863 106.968 298.781 107.038C298.571 107.239 298.353 107.428 298.13 107.611L297.96 107.728C297.932 107.747 297.903 107.766 297.875 107.785C297.554 107.973 297.233 108.159 296.914 108.347C295.744 108.743 294.573 109.139 293.404 109.534L293.25 109.58L292.114 109.72C291.368 109.799 290.62 109.794 289.874 109.708C289.314 109.716 288.759 109.66 288.212 109.547C287.284 109.389 286.373 109.158 285.487 108.835C284.466 108.463 283.494 107.974 282.545 107.447C282.204 107.256 281.869 107.054 281.539 106.84C281.433 106.764 281.327 106.687 281.22 106.608C280.519 106.083 279.849 105.522 279.203 104.929C278.9 104.651 278.608 104.362 278.327 104.062C278.286 104.018 278.247 103.976 278.207 103.932C277.938 103.638 277.677 103.334 277.428 103.019L277.19 102.751C276.231 101.559 275.378 100.276 274.611 98.9549C273.851 97.6459 273.224 96.2684 272.725 94.8429C272.565 94.3347 272.425 93.8194 272.308 93.2981C272.093 92.6718 271.951 92.0298 271.886 91.3746C271.864 91.2463 271.846 91.1182 271.829 90.99L271.819 90.788C271.817 90.7543 271.816 90.7207 271.816 90.6872C271.787 90.4835 271.762 90.2794 271.743 90.0756C271.731 89.8704 271.724 89.665 271.722 89.4597L271.739 88.2001C271.743 88.1608 271.747 88.1202 271.75 88.0793L271.782 87.8013C271.852 87.2275 271.906 86.6523 271.976 86.0787C271.976 86.0757 271.976 86.0713 271.978 86.0669C272.004 85.8529 272.032 85.6374 272.064 85.4219C272.08 85.2938 272.1 85.1656 272.119 85.0375L272.155 84.8134C272.223 84.4235 272.305 84.0369 272.405 83.6537L272.448 83.4896L272.702 82.2156L272.988 80.9618C273.173 80.1217 273.327 79.2757 273.45 78.4224C273.671 77.0626 273.861 75.701 274.025 74.3337C274.034 74.2681 274.043 74.2012 274.05 74.1356C274.218 72.8675 274.339 71.5947 274.418 70.3177C274.524 69.0598 274.585 67.7987 274.601 66.5364C274.603 66.4795 274.565 66.433 274.52 66.4066L274.524 66.1639C274.529 65.9492 274.533 66.2068 274.535 65.962L274.538 65.2887C274.537 65.2326 274.537 65.1936 274.536 65.1908C275.314 65.2446 275.838 65.2005 276.59 65.1609L276.718 65.1544C277.407 65.1225 278.092 65.0468 278.773 64.9331C278.776 64.9682 278.799 64.9928 278.838 65.0001C278.908 65.003 278.974 65.003 279.041 65.0046L279.016 65.0991C279.015 65.1473 279.037 65.1777 279.083 65.1908L279.278 65.1995C279.537 65.2104 279.798 65.2156 280.056 65.1806C280.287 65.1502 280.513 65.0962 280.738 65.0321C280.876 65.0088 281.018 64.9769 281.162 64.936C281.532 64.8297 281.899 64.687 282.271 64.5736C282.65 64.4933 283.035 64.4673 283.437 64.5632C283.863 64.6637 284.223 64.8457 284.669 64.735C284.758 64.7133 284.844 64.6799 284.93 64.6448L285.009 64.6392C285.023 64.638 285.037 64.6366 285.051 64.6346C285.516 64.5677 285.93 64.2736 286.373 64.1162C286.528 64.0786 286.681 64.0881 286.831 64.1506L286.868 64.1673L287.016 64.2765C287.075 64.3463 287.133 64.4168 287.191 64.4876L287.278 64.5938C287.437 64.7904 287.606 64.9666 287.811 65.0947C288.059 65.3233 288.354 65.4573 288.705 65.466C288.905 65.4718 289.103 65.4296 289.295 65.3686C290.021 65.5928 290.798 65.638 291.522 65.4196C291.81 65.3757 292.091 65.2987 292.361 65.1777C292.487 65.1209 292.614 65.0539 292.737 64.9797C293.248 65.1953 293.732 65.482 294.226 65.7297L294.338 65.7855C294.842 66.0368 295.401 66.2818 295.972 66.2452C296.693 66.1984 297.399 66.1025 298.105 65.9815C298.111 65.9815 298.118 65.98 298.124 65.9786L298.221 65.9624L298.574 65.9006L298.859 65.8477L299.004 65.9033C300.172 66.3449 301.452 66.6894 302.626 66.3804C303.138 66.318 303.618 66.146 304.05 65.8533C304.065 65.8431 304.08 65.8329 304.094 65.8213C304.163 65.7863 304.227 65.7472 304.284 65.705L304.296 65.6954L304.307 65.6859L304.313 65.683C304.953 65.389 305.32 64.7627 305.256 64.061C305.295 63.8381 305.294 63.6197 305.25 63.3868C305.459 63.6328 305.671 63.8761 305.887 64.1177C306.676 65.0668 307.449 66.035 308.164 67.0428L308.329 67.2761C308.722 67.8307 309.088 68.4046 309.426 68.9956C309.769 69.5795 310.12 70.1577 310.483 70.7285C310.955 71.2495 311.411 71.7829 311.851 72.3295L312.038 72.5645L312.671 73.3959C313.118 73.9261 313.49 74.5056 313.783 75.1345C314.023 75.5817 314.245 76.0375 314.445 76.5049C314.509 76.646 314.57 76.7887 314.63 76.9314C314.835 77.4891 315.009 78.0571 315.144 78.6437C315.253 79.0683 315.331 79.4988 315.378 79.9353L315.392 80.0811C315.409 80.2527 315.423 80.4246 315.43 80.5964C315.388 80.6213 315.353 80.6459 315.326 80.6706L315.22 80.7086L315.134 80.7341C315 80.7757 314.768 80.8616 314.824 80.9677L315.105 81.5037C315.076 81.5343 315.063 81.5661 315.082 81.6012C315.27 81.9607 315.459 82.3204 315.649 82.6802C315.654 82.6933 315.665 82.7034 315.675 82.7108C315.513 82.7849 315.356 82.8664 315.205 82.9553C314.912 83.1301 314.697 83.3324 314.497 83.5683C314.287 83.6936 314.089 83.8305 313.902 83.9876C313.672 84.2294 313.471 84.4945 313.3 84.7812C313.143 85.0521 313.015 85.3345 312.916 85.6301C312.872 85.7859 312.851 85.9476 312.853 86.1121C313.029 87.3557 314.453 86.5038 314.481 86.3946C314.676 85.6432 314.901 85.1687 315.405 84.6095L315.418 84.6007C315.71 84.4725 315.998 84.3458 316.3 84.2468C316.345 84.2556 316.392 84.2615 316.439 84.2687C316.386 84.3431 316.412 84.4159 316.519 84.4288C316.978 84.5193 317.441 84.5439 317.908 84.5046L318.616 84.4042C318.91 84.5168 319.191 84.6613 319.456 84.8335L319.543 84.8919L319.559 84.9035C320.243 85.4525 320.771 86.182 321.132 86.977C321.164 87.0479 321.195 87.1194 321.224 87.1915L321.268 87.3003L321.27 87.3061C321.743 89.1599 321.321 91.1953 320.459 92.8771C319.988 93.6299 319.497 94.3682 318.984 95.0919L318.485 95.7429C318.191 96.0196 317.902 96.3034 317.621 96.5946C317.577 96.6384 317.53 96.6819 317.484 96.7242C317.335 96.8217 317.183 96.9078 317.029 96.9806C316.969 97.0008 316.908 97.0198 316.847 97.0359C316.549 97.1785 316.237 97.2543 315.909 97.2631C315.476 97.2917 315.056 97.2409 314.65 97.1121L314.568 97.0853L314.509 97.0634C314.287 96.9222 314.082 96.746 313.886 96.5392C313.843 96.4941 313.761 96.4941 313.668 96.5189C313.617 96.4664 313.566 96.4111 313.518 96.3514C313.484 96.315 313.432 96.3137 313.391 96.3412C313.252 96.3253 312.878 96.5379 312.975 96.6499C312.991 96.6761 313.012 96.6994 313.029 96.7242C312.964 96.7577 312.898 96.7955 312.84 96.835C312.534 96.9198 312.082 97.2249 312.118 97.3167L312.123 97.3241C312.193 97.4579 312.286 97.5702 312.399 97.6593L312.437 97.6881L312.523 97.7478C312.402 97.8237 312.3 97.9109 312.351 97.972C312.375 98.0172 312.4 98.061 312.429 98.1003C312.181 98.4061 311.935 98.7147 311.69 99.0234C311.445 99.5535 311.142 100.048 310.78 100.507C310.478 101.005 310.116 101.452 309.691 101.851C309.656 101.886 309.62 101.92 309.585 101.953C309.272 102.184 308.945 102.4 308.605 102.607L308.458 102.696C308.381 102.742 308.251 102.8 308.312 102.913C308.32 102.927 308.329 102.939 308.339 102.948C308.124 103.087 307.903 103.22 307.674 103.342L307.652 103.356C307.566 103.411 307.449 103.511 307.572 103.593C307.677 103.662 307.955 103.473 308.087 103.386C308.111 103.386 308.14 103.379 308.17 103.37C308.126 103.393 308.083 103.418 308.039 103.443L307.973 103.479C307.922 103.51 307.671 103.676 307.846 103.746C307.932 103.753 308.011 103.731 308.084 103.681C308.17 103.639 308.254 103.594 308.337 103.547C308.308 103.593 308.308 103.638 308.381 103.667C308.406 103.668 308.431 103.667 308.455 103.664C308.283 103.773 308.107 103.875 307.925 103.971L307.895 103.99C307.818 104.039 307.696 104.134 307.785 104.216C307.885 104.306 308.162 104.114 308.234 104.07L308.447 103.944C308.463 103.951 308.48 103.954 308.499 103.955C308.435 103.995 308.375 104.037 308.31 104.075L308.22 104.123C308.109 104.185 307.951 104.286 308.008 104.388C308.065 104.488 308.235 104.405 308.345 104.34L308.463 104.267C308.468 104.264 308.473 104.261 308.479 104.258L308.483 104.276C308.484 104.278 308.485 104.281 308.487 104.284C308.542 104.379 308.68 104.317 308.774 104.262L308.85 104.216C308.98 104.138 309.108 104.061 309.235 103.984L309.425 103.867L309.428 103.867C310.085 103.472 310.693 103.079 311.266 102.572C311.608 102.269 311.927 101.949 312.23 101.606C312.84 100.921 313.293 100.136 313.73 99.3351C313.738 99.3219 313.727 99.2884 313.71 99.252C313.758 99.1531 313.805 99.0525 313.851 98.9491C314.3 99.0745 314.802 99.1109 315.264 99.0803C315.512 99.0641 315.756 99.0204 316 98.9549C316.777 98.8472 317.526 98.4933 318.173 98.0696C318.214 98.0434 318.25 98.0143 318.288 97.9882C318.555 97.8381 318.809 97.6635 319.049 97.4639C319.518 97.0765 319.966 96.6455 320.373 96.1956C320.667 95.8463 320.945 95.4836 321.206 95.1079C321.472 94.7366 321.74 94.3654 322.008 93.994C322.753 92.8291 323.229 91.488 323.415 90.1178C323.505 89.6127 323.552 89.1015 323.541 88.5918C323.534 88.2234 323.493 87.8507 323.422 87.4795C323.464 87.4386 323.506 87.398 323.549 87.3558C323.572 87.3964 323.595 87.4256 323.61 87.4109L323.944 87.0768C324.181 86.8381 324.34 86.6625 324.613 86.2766C325.047 85.6607 325.371 84.9836 325.611 84.2703C325.785 83.7606 325.9 83.181 325.945 82.6205C325.96 82.5272 325.974 82.4325 325.986 82.3364C326.079 81.5778 325.993 80.8512 325.878 80.1028C325.871 80.0534 325.846 80.0228 325.812 80.0067C325.804 79.9474 325.794 79.8865 325.784 79.8258C326.749 78.8048 327.444 77.5742 327.388 76.0881C327.37 75.6199 327.274 75.1583 327.09 74.7273L327.068 74.6786C327.874 74.5549 328.513 73.9893 328.993 73.2883C329.036 73.2547 329.077 73.2208 329.117 73.187C329.975 72.4543 330.571 71.4168 330.978 70.3209C331.27 69.6846 331.464 69.0046 331.546 68.2993C331.552 68.2489 331.555 68.199 331.56 68.1489C331.759 67.0337 331.81 65.9072 331.718 64.7975C331.918 64.1107 332.081 63.4117 332.192 62.6965C332.245 62.3559 332.281 62.015 332.309 61.6743L332.312 61.6555L332.316 61.5942L332.328 61.4414C332.33 61.4161 332.332 61.3909 332.334 61.3656C332.58 58.2467 331.882 55.1772 330.727 52.2883C330.627 52.0285 330.523 51.7693 330.416 51.5122L330.302 51.2437C329.143 49.377 327.403 47.8671 325.93 46.2725C325.421 45.7224 326.244 44.8965 326.754 45.4488C327.733 46.5083 328.784 47.523 329.732 48.6121C329.9 48.6243 330.067 48.6288 330.235 48.6205C330.526 48.6058 330.809 48.5593 331.083 48.4849C331.767 48.3845 332.389 48.1093 332.955 47.7045C333.711 47.3522 334.357 46.6881 334.421 45.8217C334.428 45.7344 334.427 45.6485 334.421 45.5627C334.491 45.1388 334.428 44.6949 334.25 44.2855C334.22 44.1734 334.18 44.0628 334.131 43.9535C333.987 43.6288 333.749 43.3174 333.459 43.1061C333.452 43.1017 333.446 43.099 333.44 43.0944C333.409 43.0626 333.38 43.0304 333.347 43.0014C333.297 42.9561 333.245 42.914 333.189 42.8747C333.386 42.5513 333.564 42.2195 333.715 41.8655C333.88 41.4811 333.965 41.091 334.011 40.6788C334.03 40.5157 334.038 40.3541 334.04 40.1926C334.049 40.1182 334.055 40.0425 334.061 39.9667C334.097 39.3901 334.03 38.7918 333.815 38.2529C333.799 38.2123 333.778 38.1714 333.759 38.1291C333.718 38.0068 333.673 37.8847 333.618 37.7651C333.402 37.3064 333.096 36.9177 332.718 36.5988C332.514 36.3935 332.286 36.2114 332.036 36.0571C331.889 35.9654 331.721 35.8838 331.545 35.8168C331.23 35.6508 330.826 35.4994 330.499 35.4879C330.459 35.4863 330.424 35.4908 330.386 35.4908C330.356 34.6549 330.248 33.7448 329.917 32.9876C329.725 32.4388 329.436 31.951 329.002 31.6C328.75 31.3373 328.439 31.124 328.052 30.9846L327.983 30.9607L327.956 30.9535C327.608 30.7846 327.232 30.7176 326.846 30.7192C326.395 30.6957 325.936 30.7803 325.544 30.987C325.463 31.0306 325.375 31.0845 325.292 31.1428C325.229 31.0175 325.159 30.8908 325.079 30.7643C324.798 30.3142 324.458 29.9225 324.065 29.5658C324.018 29.5236 323.967 29.4857 323.917 29.4451C323.727 29.2718 323.524 29.1116 323.314 28.966C322.861 28.6514 322.364 28.4171 321.842 28.2655C321.239 28.0431 320.604 27.9399 319.968 27.9616L319.836 27.9671C319.807 27.9699 319.778 27.9714 319.75 27.9728C319.119 28.0137 318.497 28.1681 317.902 28.4009C317.285 28.6442 316.764 29.0125 316.278 29.4347C316.165 29.2776 316.035 29.129 315.876 28.9892C315.831 28.95 315.783 28.9149 315.737 28.8785C315.702 28.8436 315.666 28.8101 315.628 28.7766C315.455 28.6237 315.271 28.4912 315.07 28.3732C314.844 28.2409 314.601 28.1492 314.348 28.0924C314.092 28.0049 313.822 27.951 313.548 27.9335ZM316.544 87.9625C316.518 87.9611 315.168 88.4668 314.495 88.7938L314.462 88.81C313.687 89.1944 313.314 89.4711 312.617 89.9647C312.57 89.9982 312.522 90.0491 312.522 90.0986C312.522 90.8176 312.697 91.6966 313.302 91.3072C313.389 91.2509 313.478 91.1959 313.566 91.1417L313.7 91.0611L313.704 91.0626C313.703 91.0626 313.701 91.0611 313.7 91.0597C315.018 90.2573 316.41 89.6283 317.879 89.1784C317.979 89.142 317.235 88.0178 317.029 88.0804C317.147 88.0338 316.563 87.9636 316.544 87.9625ZM302.698 56.2065C303.574 56.3001 304.45 56.3923 305.326 56.4824C305.884 56.5465 306.444 56.6033 307.004 56.6514C307.845 56.7141 308.686 56.7242 309.524 56.6091C309.821 56.5685 310.113 56.5101 310.401 56.4388C310.598 56.5829 310.802 56.7183 311.011 56.8481L313.325 58.6171C314.878 59.836 316.396 61.1274 317.764 62.5529C320.152 65.0435 322.096 67.9571 323.319 71.1846C323.43 71.2499 323.516 71.364 323.544 71.5388C323.76 72.8617 324.392 74.0682 324.62 75.3857C324.845 76.6834 324.546 77.7865 323.73 78.8151C323.556 79.0349 323.199 79.0232 322.98 78.8748C322.929 78.9747 322.709 78.9705 322.632 78.5293C322.269 78.1369 321.958 77.7255 321.748 77.2162C321.594 76.8411 321.854 76.581 322.169 76.5299C322.038 76.0581 321.89 75.5906 321.724 75.128C321.231 73.7533 320.605 72.44 319.816 71.2082C319.122 70.1247 318.319 69.1811 317.456 68.2347C317.446 68.2215 317.428 68.2173 317.409 68.2144L317.23 68.0162C317.205 67.9886 317.154 67.9915 317.098 68.006C317.044 67.9493 316.991 67.891 316.936 67.8342C316.882 67.776 316.822 67.7935 316.789 67.84C316.697 67.8197 316.529 67.9187 316.478 67.9509C316.391 68.009 316.363 68.0745 316.437 68.1575C316.45 68.1722 316.464 68.1867 316.477 68.1997C316.376 68.2421 316.277 68.2987 316.2 68.3542C315.93 68.4138 315.551 68.6642 315.617 68.7386C315.755 68.8826 315.889 69.0298 316.022 69.1797C315.905 69.2613 315.829 69.3413 315.86 69.3764C316.429 69.9747 316.953 70.6082 317.434 71.2794C317.8 71.7803 318.131 72.3015 318.427 72.8447C318.867 73.6135 319.24 74.4042 319.571 75.2167C319.618 75.3406 319.663 75.4642 319.707 75.588C320.191 76.9407 320.552 78.3444 320.705 79.7743L320.712 79.8707C320.74 80.3858 320.751 81.765 320.804 82.0938C320.482 82.2526 320.147 82.388 319.798 82.4988C319.733 82.5177 319.666 82.5352 319.599 82.5512C319.561 82.5352 319.522 82.5219 319.482 82.5103C319.162 82.3807 318.826 82.2875 318.484 82.2424C318.253 82.2119 318.023 82.2013 317.794 82.2079L317.695 82.2118C317.593 82.2147 317.493 82.222 317.391 82.2323C317.396 82.1739 317.399 82.1173 317.404 82.0589C317.433 82.04 317.455 82.0139 317.456 81.9788C317.525 81.3236 317.526 80.6683 317.461 80.0131C317.417 79.6709 317.366 79.3302 317.31 78.9896C317.254 78.7099 317.188 78.4348 317.117 78.1594C316.927 77.3879 316.675 76.6349 316.369 75.8983C315.497 73.797 314.248 71.9026 312.992 70.0184C312.075 68.6425 311.207 67.2358 310.259 65.883C309.451 64.7313 308.603 63.597 307.698 62.5194C306.794 61.4435 305.839 60.4081 304.809 59.4501C304.642 59.2971 304.475 59.1486 304.304 59.0016C303.328 58.128 302.267 57.41 301.162 56.7054C301.119 56.6777 301.044 56.7083 300.981 56.7606L300.803 56.6511C300.773 56.6329 300.743 56.6149 300.713 56.5975C300.685 56.5801 300.654 56.6091 300.638 56.6339C300.563 56.5946 300.487 56.5568 300.411 56.5188C300.356 56.4743 300.299 56.4321 300.243 56.3881C301.062 56.3469 301.881 56.2857 302.698 56.2065ZM292.423 46.4976C293.084 46.3652 293.749 46.3462 294.417 46.4452C294.696 46.4861 294.975 46.5353 295.251 46.5949C294.624 47.1409 294.12 47.8397 293.793 48.6439C293.439 49.5132 294.849 49.8878 295.198 49.0311C295.534 48.2046 296.171 47.5706 296.94 47.1906C297.106 47.2833 297.267 47.3838 297.421 47.495C297.622 47.6581 297.811 47.8343 297.989 48.028C298.377 48.4489 298.733 49.0108 298.966 49.5671C299.056 49.8699 299.123 50.1815 299.166 50.5019C299.174 50.5747 299.183 50.6489 299.19 50.7232C299.334 52.2301 298.903 53.6963 298.161 54.9937L298.132 54.9941C297.469 54.6353 296.776 54.333 296.062 54.0868C295.491 53.7025 294.898 53.3471 294.287 53.0253C292.989 52.341 291.617 51.8135 290.204 51.4528L290.041 51.4119C289.708 51.327 289.372 51.2522 289.035 51.1867L288.833 51.1485L288.83 51.1485L288.852 50.9314C288.965 50.0796 289.299 49.2889 289.731 48.5581C290.054 48.0063 290.542 47.4413 291.085 46.9899L291.088 46.9883C291.334 46.8485 291.593 46.7329 291.859 46.6373L291.959 46.6024L292.423 46.4976ZM310.193 45.2043C311.569 45.0745 312.945 45.0876 314.321 45.1997C315.22 45.2887 316.114 45.4123 317.003 45.5696C317.605 45.673 318.195 45.8186 318.775 45.9993L318.444 46.6696C317.889 47.786 317.321 48.8951 316.652 49.9496C316.306 50.4927 315.932 51.0097 315.524 51.5061C315.248 51.8614 314.945 52.1906 314.613 52.4934C314.525 52.5998 314.432 52.7003 314.337 52.7977C314.034 53.0569 313.707 53.284 313.35 53.4719C313.064 53.6802 312.765 53.8623 312.453 54.0219L312.336 54.0807L311.243 54.4999C311.184 54.5164 311.125 54.5329 311.066 54.5486L310.977 54.5714L310.811 54.6062L310.686 54.5385C310.666 54.5274 310.644 54.5164 310.623 54.5057C310.588 54.4869 310.563 54.5233 310.556 54.5494C310.553 54.5597 310.558 54.5741 310.565 54.5887L310.405 54.5026C310.132 54.6137 309.841 54.7026 309.529 54.7611C309.388 54.7875 309.247 54.8077 309.105 54.825L309.086 54.8377C309.083 54.8399 309.08 54.8423 309.077 54.8451L308.922 54.8451C307.832 54.9501 306.727 54.8113 305.639 54.6161C304.099 54.4614 302.56 54.2909 301.022 54.1315C300.993 54.1287 300.981 54.1417 300.981 54.1622L300.886 54.1535C300.749 54.1388 300.589 54.3674 300.693 54.4505C300.609 54.4999 300.529 54.5714 300.469 54.6267L300.435 54.6236C300.646 54.2101 300.809 53.7776 300.926 53.3279L301.074 52.5734C301.115 52.2924 301.139 51.9926 301.143 51.6969C301.153 51.5615 301.16 51.4349 301.16 51.3241C301.16 51.2193 301.159 51.1144 301.155 51.0097C301.445 50.8902 301.739 50.7855 302.039 50.6965C302.892 50.5918 303.743 50.4869 304.596 50.3835C305.108 50.4024 305.619 50.4388 306.129 50.4956C306.708 50.5466 307.285 50.6121 307.861 50.6907C307.915 50.6965 308.011 50.6237 308.069 50.5393L308.316 50.5729C308.444 50.5889 308.578 50.3325 308.409 50.2801C308.348 50.2558 308.287 50.2328 308.225 50.2107L308.134 50.1782L308.186 50.184C308.203 50.1856 308.225 50.1811 308.25 50.1725C308.386 50.1898 308.521 50.2073 308.655 50.2233C308.825 50.2445 308.787 50.0205 308.667 49.9678L308.61 49.9466C308.711 49.8839 308.8 49.7121 308.675 49.656L308.658 49.6496C308.6 49.6264 308.543 49.6074 308.485 49.5855C308.489 49.5667 308.489 49.5491 308.483 49.5333L308.724 49.5637C308.746 49.5666 308.641 49.4132 308.591 49.3829L308.582 49.3788L308.467 49.3438C308.45 49.2943 308.357 49.1851 308.324 49.1751C307.902 49.0424 307.508 48.9231 307.097 48.8313C307.077 48.8065 307.053 48.7876 307.027 48.7818C306.771 48.7206 306.511 48.6725 306.252 48.6319C306.234 48.6056 306.217 48.5868 306.196 48.5852C305.554 48.5036 304.909 48.4847 304.262 48.5285C304.138 48.54 304.014 48.5533 303.89 48.5692C303.653 48.5955 303.415 48.629 303.179 48.6742C302.588 48.7756 302.01 48.9297 301.447 49.1376L301.318 49.1866C301.176 49.2391 301.036 49.2943 300.898 49.3541C300.828 49.1052 300.741 48.8604 300.637 48.6203C300.621 48.5735 300.604 48.5285 300.585 48.4834L300.726 48.3988C300.757 48.457 300.819 48.5022 300.86 48.4776C301.873 47.7947 302.944 47.2252 304.074 46.7709C304.707 46.4913 305.354 46.2541 306.017 46.0559C306.348 45.9498 306.682 45.8537 307.017 45.7619C307.185 45.7269 307.352 45.6919 307.523 45.6628C308.399 45.4269 309.289 45.2742 310.193 45.2043ZM276.811 47.516C276.934 47.7283 277.062 47.9386 277.198 48.1459C277.857 49.1534 278.647 50.0989 279.543 50.9232C279.309 50.9226 279.076 50.9314 278.846 50.953C278.449 50.9904 278.06 51.0562 277.681 51.1484C277.651 51.1238 277.616 51.1114 277.589 51.1309L277.49 51.1992C276.677 51.4184 275.914 51.7629 275.222 52.2245L275.235 52.1333C275.237 52.1181 275.239 52.1029 275.242 52.0877C275.23 51.9086 275.227 51.7294 275.233 51.5517C275.376 50.5019 275.733 49.535 276.141 48.5567C276.149 48.5378 276.143 48.5132 276.132 48.4881C276.338 48.152 276.563 47.827 276.811 47.516ZM276.622 39.2613C276.926 39.3167 277.228 39.388 277.528 39.4769C278.093 39.5614 278.639 39.71 279.167 39.921C279.894 40.1787 280.6 40.4786 281.302 40.7962C282.666 41.4135 283.946 42.1941 285.111 43.1347C285.185 43.1914 285.257 43.2498 285.328 43.308C285.589 43.5336 285.843 43.7694 286.083 44.0184C286.335 44.2922 286.589 44.5661 286.841 44.8411C287.15 45.1645 287.506 45.4571 287.786 45.8065C287.842 45.8779 287.892 45.9565 287.937 46.0353L287.772 46.0919C287.634 46.1385 287.657 46.3977 287.794 46.3598C287.841 46.3467 287.885 46.3307 287.928 46.3134C287.909 46.3382 287.896 46.3629 287.893 46.3846C287.885 46.4545 287.939 46.5507 288.025 46.526C288.064 46.5157 288.103 46.5011 288.143 46.4851C288.154 46.5302 288.163 46.5754 288.163 46.619C288.156 46.6219 288.148 46.6249 288.14 46.6265C288.044 46.66 287.863 46.8098 287.837 46.9119C287.816 46.9905 287.883 47.0748 287.969 47.0515C288.033 47.034 288.096 47.0078 288.157 46.9787C288.116 47.0182 288.084 47.0604 288.081 47.0968C288.076 47.1638 288.134 47.2583 288.214 47.2366C288.363 47.1957 288.482 47.1332 288.581 47.0546C288.608 47.0894 288.645 47.117 288.676 47.1084L288.733 47.091C288.717 47.1054 288.703 47.1207 288.689 47.1356L288.669 47.1578C288.267 47.5917 287.915 48.0722 287.634 48.5893C287.621 48.5746 287.605 48.5615 287.584 48.5455C287.453 48.4348 287.318 48.327 287.182 48.2224L287.141 48.1865L287.099 48.1509L287.404 48.2513L287.397 48.2434C287.375 48.2159 287.308 48.1241 287.277 48.0935L287.27 48.0868C286.851 47.7127 286.395 47.3951 285.902 47.1361C285.583 46.9292 285.248 46.7545 284.897 46.6103C284.058 46.2215 283.204 45.9261 282.327 45.6523C282.196 45.6101 282.064 45.565 281.933 45.524C281.895 45.5109 281.888 45.527 281.894 45.5532L281.825 45.5328C281.703 45.4935 281.495 45.709 281.578 45.8094C281.527 45.8502 281.478 45.8956 281.435 45.9383L281.404 45.9696L281.369 45.9594C281.265 45.9273 281.089 46.0895 280.978 46.2044L280.895 46.2914C280.833 46.3584 280.71 46.4967 280.861 46.5507L281.049 46.6147C281.043 46.6525 281.059 46.6846 281.117 46.7064C281.183 46.7282 281.247 46.7515 281.311 46.775C281.272 46.8089 281.234 46.8441 281.196 46.8798L281.14 46.9336C281.074 47.0009 280.918 47.1492 281.056 47.2147L281.073 47.2219L281.253 47.2859C281.229 47.3384 281.235 47.388 281.314 47.417C282.36 47.7723 283.382 48.1889 284.381 48.6621C285.128 49.0755 285.918 49.3843 286.751 49.5866C286.819 49.6086 286.968 49.5052 287.029 49.4018L287.153 49.4383C287.174 49.4444 287.195 49.4502 287.216 49.4555L287.236 49.46C287.08 49.875 286.965 50.3248 286.901 50.7602C286.893 50.7995 286.888 50.8404 286.883 50.8797C286.72 50.8665 286.558 50.8548 286.395 50.8462C285.265 50.7864 284.123 50.8228 282.99 50.9568C282.532 50.6845 282.092 50.386 281.671 50.0629C281.543 49.9637 281.416 49.8618 281.29 49.7584C280.538 49.1061 279.858 48.3738 279.254 47.583C278.696 46.8506 278.211 46.0643 277.802 45.2403C277.441 44.4669 277.142 43.6631 276.916 42.8332C276.709 42.0745 276.638 41.3363 276.585 40.5515C276.568 40.4233 276.556 40.2953 276.546 40.167L276.547 40.1121L276.549 40.0855C276.564 39.8104 276.591 39.5351 276.622 39.2613ZM287.304 49.013C287.337 49.0246 287.372 49.0362 287.407 49.0464C287.387 49.0915 287.368 49.1352 287.349 49.1802L287.347 49.1793L287.209 49.0711C287.238 49.058 287.272 49.0378 287.304 49.013ZM276.826 37.1967C276.564 37.0993 276.366 37.0804 276.232 37.1414C276.43 37.156 276.628 37.1749 276.826 37.1967Z" fill="#2B283A"/>
<path fill-rule="evenodd" clip-rule="evenodd" d="M285.568 101.346C286.615 100.92 287.55 100.21 288.233 99.3026C288.47 98.9872 288.532 98.6541 288.482 98.3495C288.426 98.0069 288.223 97.6965 287.945 97.4882C287.667 97.2793 287.319 97.1763 286.983 97.2288C286.691 97.2745 286.4 97.434 286.169 97.7648L286.121 97.8309C285.715 98.3786 285.186 98.8279 284.583 99.1175C284.001 99.3966 283.351 99.5269 282.679 99.4511C281.397 99.3069 280.514 98.6163 279.576 97.6786C279.459 97.5602 279.343 97.4381 279.226 97.314C279.152 97.2015 279.05 97.1293 278.936 97.0913C278.809 97.0492 278.666 97.0516 278.535 97.0971C278.409 97.1411 278.296 97.2243 278.221 97.3351C278.149 97.4404 278.108 97.5705 278.121 97.7201C278.207 98.6919 278.717 99.5592 279.441 100.24C280.245 100.997 281.311 101.52 282.315 101.703C283.421 101.906 284.548 101.761 285.568 101.346ZM281.797 86.3524C280.62 87.0651 278.827 88.7269 280.093 90.4937C281.583 92.0516 283.728 90.2654 284.785 89.4575C285.765 88.8315 286.866 90.4417 285.957 91.1727C278.319 96.8081 275.219 86.5388 281.201 85.5145C281.86 85.4016 282.105 86.1319 281.797 86.3524ZM295.481 79.797C295.351 78.189 292.893 77.8239 292.649 79.415C292.43 80.8404 292.688 82.1497 293.332 83.433C293.947 84.659 295.495 84.087 295.612 82.9706C295.768 81.4742 295.562 80.7972 295.481 79.797ZM276.777 79.0861C276.435 78.639 275.94 78.3337 275.347 78.5062C273.496 79.0454 274.041 81.6652 274.692 82.9404C275.045 83.6329 276.187 83.8085 276.703 83.1988C277.545 82.2045 277.948 80.2188 276.878 79.2394C276.849 79.1887 276.817 79.1377 276.777 79.0861ZM293.359 72.7598L293.067 72.7087C292.162 72.5528 291.037 72.4029 290.397 73.1279C290.057 73.5123 289.94 74.2269 290.397 74.5948C291.199 75.2423 292.087 74.9914 293.049 75.0462C293.841 75.0915 294.603 75.2223 295.367 75.4398C297.042 75.9169 298.407 76.788 299.837 77.7444C300.025 77.8699 300.217 77.6306 300.127 77.4556C299.301 75.8435 297.701 74.5192 296.098 73.712C295.242 73.2811 294.306 72.9237 293.359 72.7598ZM278.463 72.0392L278.24 72.0848C275.803 72.5923 272.638 73.6061 271.485 75.9909C271.441 76.3281 271.487 76.4004 271.525 76.4476L271.537 76.4633C271.568 76.5036 271.593 76.5592 271.74 76.6051C271.781 76.5955 271.822 76.5852 271.863 76.5744C272.392 76.4363 272.811 76.246 273.216 76.0486L273.655 75.8329C274.164 75.5839 274.678 75.344 275.223 75.1669C276.386 74.789 277.581 74.5228 278.796 74.3806C279.059 74.3498 279.312 74.2613 279.512 74.1096C279.702 73.9656 279.847 73.7662 279.913 73.5012C279.999 73.1582 279.974 72.8985 279.79 72.5891C279.651 72.3567 279.452 72.1956 279.224 72.1031C278.991 72.0088 278.727 71.9866 278.463 72.0392Z" fill="#2B283A"/>

</svg>